<?xml version="1.0" standalone="no"?>
<!DOCTYPE svg PUBLIC "-//W3C//DTD SVG 20010904//EN"
 "http://www.w3.org/TR/2001/REC-SVG-20010904/DTD/svg10.dtd">
<svg version="1.0" xmlns="http://www.w3.org/2000/svg"
 width="900.000000pt" height="900.000000pt" viewBox="0 0 900.000000 900.000000"
 preserveAspectRatio="xMidYMid meet">
<metadata>
Created by potrace 1.14, written by Peter Selinger 2001-2017
</metadata>
<g transform="translate(0.000000,900.000000) scale(0.100000,-0.100000)"
fill="#000000" stroke="none">
<path d="M5603 6463 c-7 -2 -13 -10 -13 -17 0 -7 -14 -28 -31 -47 -17 -19 -35
-44 -40 -56 -5 -13 -15 -23 -24 -23 -9 0 -15 -9 -15 -24 0 -16 -7 -27 -20 -31
-11 -3 -20 -15 -20 -25 0 -11 -9 -24 -20 -30 -11 -6 -20 -15 -20 -21 0 -9 -26
-45 -127 -176 -29 -37 -60 -82 -68 -100 -9 -18 -20 -33 -26 -33 -5 0 -14 -12
-19 -26 -15 -40 -32 -29 -59 39 -15 37 -36 34 -84 -13 -41 -42 -62 -45 -98
-14 -8 8 -22 14 -29 14 -15 0 -140 124 -140 139 0 15 -50 42 -73 39 -12 -2
-26 -13 -32 -25 -5 -13 -18 -23 -27 -23 -20 0 -24 -25 -6 -36 6 -4 16 0 23 9
18 25 29 21 68 -27 l36 -44 -2 -95 c-2 -53 -6 -99 -9 -102 -10 -11 -38 26 -38
50 0 36 -10 55 -30 55 -19 0 -30 -19 -30 -53 0 -11 -8 -29 -17 -40 -10 -10
-20 -42 -23 -70 -4 -40 -9 -53 -23 -55 -12 -3 -20 4 -24 17 -8 30 -30 26 -67
-14 -46 -49 -62 -46 -69 13 -6 50 4 72 34 72 25 0 29 11 30 72 1 41 6 57 22
70 15 11 21 28 22 54 0 32 4 39 25 44 53 13 37 38 -111 183 -186 181 -195 187
-255 189 -30 0 -51 -5 -58 -13 -16 -20 -63 -49 -80 -49 -8 0 -18 -9 -21 -20
-3 -11 -11 -20 -16 -20 -14 0 -273 -259 -266 -266 8 -8 97 35 97 46 0 5 9 12
20 15 11 3 20 12 20 19 0 7 18 26 40 41 22 15 40 31 40 35 0 9 141 113 146
107 3 -3 6 -49 7 -103 1 -83 -2 -99 -16 -108 -23 -14 -39 9 -30 42 5 20 2 23
-18 20 -14 -2 -29 -14 -37 -31 -7 -15 -24 -39 -38 -54 -13 -14 -24 -32 -24
-39 0 -22 40 -28 60 -9 37 34 54 -5 20 -48 -11 -14 -20 -30 -20 -36 0 -6 -17
-26 -37 -45 -35 -32 -37 -37 -25 -56 11 -19 11 -25 -2 -39 -9 -10 -16 -25 -16
-34 0 -9 -4 -17 -9 -17 -5 0 -12 -8 -15 -18 -4 -10 -22 -34 -41 -53 -19 -18
-35 -41 -35 -50 0 -8 -11 -26 -24 -38 l-24 -23 -11 21 c-17 31 -38 26 -82 -18
-36 -36 -39 -43 -39 -94 0 -30 -6 -67 -14 -81 -17 -34 -216 -236 -232 -236 -7
0 -14 6 -17 14 -7 18 -72 13 -93 -8 -8 -9 -23 -16 -32 -16 -9 0 -28 -9 -42
-20 -14 -11 -33 -20 -43 -20 -11 0 -30 -9 -44 -20 -14 -11 -31 -20 -38 -20 -7
0 -18 -7 -25 -15 -7 -8 -23 -15 -35 -15 -12 0 -28 -7 -35 -15 -7 -8 -18 -15
-25 -15 -7 0 -24 -9 -38 -20 -14 -11 -36 -20 -50 -20 -14 0 -27 -7 -31 -15 -3
-8 -18 -15 -33 -15 -17 0 -33 -8 -41 -20 -7 -11 -23 -20 -37 -20 -14 0 -33 -7
-42 -15 -82 -70 -103 -84 -134 -90 -43 -8 -70 14 -49 40 7 8 18 15 24 15 7 0
11 18 11 48 0 46 1 47 35 52 40 6 53 36 24 57 -32 23 -58 15 -96 -30 l-36 -43
-64 4 c-56 4 -68 1 -84 -16 -15 -16 -30 -20 -78 -19 -34 1 -61 7 -63 13 -6 18
156 174 180 174 17 0 37 42 37 75 0 36 -23 31 -56 -12 -40 -53 -112 -129 -239
-254 -87 -86 -106 -109 -92 -114 11 -5 28 3 49 21 l33 27 3 -27 c2 -15 -4 -36
-12 -45 -9 -10 -16 -27 -16 -38 0 -21 -25 -47 -75 -78 -45 -29 -98 -55 -110
-55 -6 0 -28 -9 -50 -20 -44 -23 -129 -28 -123 -7 2 6 18 19 36 27 17 8 32 21
32 28 0 6 7 12 15 12 8 0 24 9 35 20 11 11 27 20 35 20 9 0 18 6 21 14 3 8 16
17 30 20 31 8 34 46 4 46 -11 0 -23 -7 -26 -15 -4 -8 -14 -15 -24 -15 -10 0
-24 -7 -31 -16 -7 -9 -22 -20 -34 -25 -30 -14 -61 -33 -80 -49 -9 -8 -25 -19
-35 -25 -54 -31 -155 -92 -178 -107 -15 -10 -36 -22 -47 -27 -12 -5 -27 -16
-34 -25 -7 -9 -21 -16 -30 -16 -10 0 -26 -7 -37 -15 -10 -8 -28 -15 -39 -15
-11 0 -29 -6 -40 -14 -11 -7 -31 -17 -45 -21 -34 -11 -72 -53 -68 -77 5 -34
83 -68 154 -68 34 0 78 -7 97 -15 20 -8 52 -15 72 -15 20 0 53 -9 73 -20 20
-10 62 -31 94 -44 53 -24 118 -77 118 -97 0 -4 -15 -16 -32 -25 -24 -13 -73
-19 -185 -25 -83 -4 -161 -12 -172 -19 -12 -6 -63 -15 -114 -19 -51 -5 -105
-14 -120 -20 -16 -6 -47 -11 -70 -11 -23 0 -79 -9 -125 -20 -46 -11 -109 -20
-141 -20 -32 0 -77 -6 -102 -14 -24 -8 -80 -17 -124 -20 -44 -3 -102 -13 -129
-21 -27 -8 -71 -15 -99 -15 -27 0 -61 -6 -75 -14 -15 -8 -48 -20 -75 -27 -26
-6 -50 -16 -54 -22 -8 -13 95 -107 117 -107 8 0 29 -9 45 -20 17 -11 40 -20
53 -20 12 0 33 -6 45 -14 12 -8 42 -17 67 -21 25 -4 54 -13 65 -20 12 -7 41
-15 65 -17 25 -3 59 -10 75 -16 109 -37 135 -45 180 -51 28 -4 59 -12 70 -18
11 -6 40 -14 65 -18 25 -4 57 -14 72 -21 15 -8 37 -14 49 -14 13 0 52 -9 88
-20 36 -12 91 -28 121 -36 30 -8 69 -20 85 -26 17 -6 50 -13 75 -17 25 -4 57
-15 70 -24 13 -9 31 -17 40 -17 27 0 124 -45 153 -71 35 -32 36 -87 1 -104
-12 -6 -28 -16 -35 -22 -8 -5 -42 -13 -77 -16 -34 -3 -69 -10 -76 -16 -7 -6
-41 -15 -76 -20 -53 -7 -68 -13 -92 -40 -15 -17 -28 -36 -28 -42 0 -21 77 -89
101 -89 13 0 44 -9 68 -20 25 -12 65 -20 96 -20 28 0 74 -7 101 -15 27 -8 76
-15 109 -15 33 0 96 -7 140 -16 52 -10 152 -17 286 -20 113 -2 226 -8 250 -14
59 -14 615 -34 969 -34 278 -1 286 0 328 22 23 12 42 26 42 30 -1 14 -88 62
-114 62 -15 0 -44 9 -66 20 -22 11 -53 20 -70 20 -17 0 -41 6 -53 14 -12 7
-44 16 -70 20 -27 3 -58 13 -70 21 -12 8 -37 15 -57 15 -19 0 -44 7 -54 15
-11 8 -31 15 -45 15 -14 0 -46 9 -70 20 -24 11 -58 20 -75 20 -18 0 -41 7 -52
15 -10 8 -30 15 -44 15 -22 0 -66 13 -185 52 -16 6 -50 14 -75 18 -25 5 -62
16 -82 24 -21 9 -48 16 -60 16 -13 0 -32 7 -42 15 -11 8 -32 15 -48 15 -15 0
-42 9 -60 20 -18 11 -45 20 -60 20 -15 0 -29 4 -33 9 -3 5 -30 17 -60 25 -30
9 -57 21 -60 26 -3 6 -16 10 -28 10 -22 1 -72 28 -118 65 -46 37 -119 135
-119 160 0 13 -5 27 -10 30 -29 18 0 137 50 210 31 45 122 127 153 138 9 4 17
11 17 17 0 5 6 10 13 10 8 0 22 9 32 20 10 11 24 20 31 20 7 0 32 13 56 29 24
16 73 43 111 61 37 18 70 36 73 41 3 5 13 9 23 9 10 0 24 7 31 15 7 8 20 15
30 15 9 0 29 9 43 20 14 11 30 20 35 20 6 0 22 -20 36 -45 22 -37 32 -45 56
-45 34 0 38 -11 14 -35 -9 -9 -29 -41 -45 -73 -16 -31 -34 -61 -39 -66 -6 -6
-10 -29 -10 -51 0 -49 28 -81 78 -91 34 -7 54 -25 34 -32 -22 -7 -12 -20 30
-36 l41 -17 41 29 c27 20 42 39 44 56 4 30 8 32 27 12 8 -7 46 -16 85 -20 64
-7 70 -9 53 -21 -10 -8 -30 -11 -45 -8 -39 8 -37 -21 1 -37 21 -8 47 -9 92 -2
41 6 73 6 92 0 15 -6 40 -8 54 -5 15 3 34 1 42 -3 9 -4 43 -18 76 -30 33 -13
67 -29 76 -36 8 -8 25 -14 36 -14 11 0 32 -9 46 -20 14 -11 31 -20 39 -20 8 0
31 -9 53 -20 22 -11 45 -20 51 -20 6 0 25 -7 40 -15 16 -8 38 -15 49 -15 11 0
30 -7 42 -15 12 -8 40 -17 62 -19 22 -2 50 -11 63 -20 12 -9 42 -16 66 -16 23
0 60 -9 82 -20 23 -12 59 -20 88 -20 27 0 57 -6 68 -15 12 -9 43 -14 90 -15
39 0 93 -7 120 -15 27 -8 92 -17 144 -21 52 -3 109 -10 125 -16 17 -6 118 -15
225 -20 277 -13 1730 -18 1815 -7 39 5 223 13 410 18 211 5 351 13 368 20 16
6 61 11 100 11 85 0 114 7 121 27 13 33 -13 43 -109 43 -77 0 -96 3 -118 20
-14 11 -29 20 -34 20 -5 0 -23 15 -41 33 -29 30 -32 39 -32 95 0 58 2 62 29
77 16 8 31 18 33 22 7 16 115 53 155 53 24 0 60 6 80 14 21 8 58 17 83 21 64
9 160 45 160 61 0 18 -59 84 -75 84 -7 0 -18 7 -25 15 -7 8 -27 15 -45 15 -18
0 -61 9 -95 20 -34 11 -80 20 -101 20 -21 0 -60 7 -86 16 -26 9 -68 19 -93 23
l-45 6 -3 77 -3 77 58 -2 c88 -2 253 13 298 28 25 9 112 16 230 19 105 4 222
13 260 21 39 8 84 14 101 15 17 0 52 9 77 20 40 18 66 21 194 20 114 -1 157 2
186 14 64 28 49 75 -61 183 -139 138 -363 354 -525 507 -143 135 -160 149
-178 138 -11 -7 -26 -9 -33 -5 -50 29 -394 339 -400 361 -10 29 -182 182 -205
182 -11 0 -33 -12 -49 -27 -15 -16 -59 -55 -97 -88 -37 -33 -80 -71 -95 -85
-15 -14 -68 -62 -118 -108 l-91 -83 -335 336 c-388 389 -476 482 -476 501 0
22 -48 17 -55 -6 -9 -27 -17 -25 -49 10 -15 17 -60 67 -101 112 -41 44 -75 87
-75 94 0 7 -6 17 -13 21 -15 10 -137 142 -187 203 -73 90 -83 97 -117 83z m3
-124 c9 -15 14 -986 5 -1065 -5 -50 -9 -59 -26 -59 -16 0 -21 8 -23 40 -2 22
-9 47 -16 55 -7 8 -16 23 -19 33 -9 23 -44 22 -52 -3 -3 -11 -3 -40 0 -64 6
-37 3 -50 -14 -72 -12 -15 -21 -33 -21 -42 0 -20 -40 -84 -63 -101 -11 -8 -29
-25 -40 -38 -12 -13 -32 -23 -48 -23 -15 0 -29 -7 -33 -15 -3 -8 -15 -15 -26
-15 -12 0 -30 -5 -42 -11 -23 -13 -37 -4 -20 13 7 7 12 24 12 39 0 15 7 32 15
39 8 7 15 21 15 31 0 11 9 36 20 56 11 21 20 48 20 60 0 12 7 26 16 31 8 5 18
27 21 50 3 23 12 47 19 53 8 6 14 24 14 39 0 15 7 33 15 40 18 15 20 50 3 50
-16 0 -44 -27 -112 -107 -86 -101 -148 -82 -101 30 8 20 15 53 15 74 0 21 10
53 21 72 15 24 19 45 16 68 -4 22 1 46 17 75 12 24 20 51 18 60 -2 9 6 22 17
28 12 6 21 19 21 29 0 10 7 24 15 31 8 7 15 17 15 23 0 6 7 18 15 27 9 10 17
26 19 37 2 10 17 39 34 64 16 24 32 54 36 66 4 11 13 27 21 33 8 7 15 23 15
36 0 13 9 28 20 34 11 6 20 19 20 28 0 10 9 25 20 35 11 9 20 23 20 31 0 7 6
19 14 25 8 7 12 21 9 31 -9 36 64 79 83 49z m-562 -564 c3 -8 12 -15 21 -15
26 0 16 -19 -12 -22 l-28 -3 -3 -101 c-2 -86 -6 -104 -22 -119 -17 -15 -20
-31 -20 -103 0 -74 -3 -89 -22 -109 -12 -13 -25 -23 -30 -23 -7 0 -87 -79
-362 -360 -32 -33 -66 -60 -75 -60 -9 0 -24 -9 -34 -20 -10 -12 -23 -17 -33
-13 -11 4 -15 2 -11 -4 9 -14 -19 -37 -33 -28 -22 14 -6 43 60 109 69 69 85
96 55 96 -19 0 -51 -20 -122 -75 -29 -22 -85 -62 -124 -90 -38 -27 -80 -58
-92 -69 -12 -10 -39 -29 -59 -42 -21 -13 -38 -28 -38 -32 0 -4 -24 -23 -52
-42 -88 -58 -168 -43 -114 21 14 17 26 34 26 38 0 8 51 61 197 204 61 59 97
87 109 85 15 -2 18 2 16 25 -2 15 1 27 8 27 11 0 109 94 537 518 124 122 231
222 238 222 7 0 15 -7 19 -15z m-2004 -974 c0 -11 -68 -79 -101 -101 -12 -8
-42 -30 -66 -47 -24 -18 -47 -33 -53 -33 -5 0 -14 -9 -20 -21 -9 -15 -18 -19
-35 -15 -17 4 -22 2 -21 -10 0 -9 -8 -21 -19 -28 -11 -6 -24 -17 -28 -23 -4
-7 -14 -13 -22 -13 -7 0 -20 -6 -27 -13 -7 -7 -42 -32 -78 -56 -36 -23 -69
-49 -73 -57 -4 -8 -13 -14 -18 -14 -6 0 -40 -24 -77 -53 -108 -84 -141 -92
-142 -31 0 21 92 116 145 148 17 10 39 27 50 38 57 54 203 158 222 158 5 0 14
9 21 20 7 11 19 20 27 20 8 0 19 9 25 20 6 11 17 20 24 20 8 0 19 7 26 15 7 8
20 15 30 15 10 0 20 7 24 15 3 9 18 15 35 15 16 0 31 6 34 14 5 13 21 17 100
24 9 1 17 -2 17 -7z m470 -436 c0 -8 -9 -23 -20 -32 -11 -10 -20 -24 -20 -32
0 -7 -17 -32 -37 -55 -21 -23 -60 -68 -88 -101 -27 -32 -57 -66 -66 -75 -8 -9
-19 -24 -22 -34 -5 -12 -13 -15 -26 -11 -12 3 -21 0 -25 -10 -10 -27 -26 -16
-26 20 0 24 -8 42 -27 61 -23 23 -36 27 -90 29 -34 0 -65 4 -68 7 -3 3 6 15
20 26 21 17 32 19 51 11 33 -12 32 -12 36 14 2 15 11 23 28 26 14 1 27 6 30
10 3 4 32 19 65 35 33 15 90 43 127 62 38 19 76 34 87 34 10 0 24 7 31 15 16
19 40 19 40 0z m3590 -286 c0 -15 -7 -29 -15 -33 -9 -3 -15 -18 -15 -35 0 -42
-17 -48 -51 -15 -40 38 -39 82 2 124 l32 31 23 -22 c14 -13 24 -34 24 -50z
m-1410 26 c0 -19 -9 -49 -19 -66 -22 -35 -18 -59 9 -59 29 0 50 -11 50 -25 0
-17 -34 -28 -60 -20 -26 8 -50 -11 -50 -39 0 -11 -7 -30 -15 -40 -10 -13 -15
-43 -15 -87 0 -58 3 -67 20 -72 11 -3 30 3 43 13 12 10 34 20 47 22 20 2 25 9
27 33 0 17 2 35 2 42 1 6 21 31 46 55 42 42 47 44 87 39 l43 -6 5 -50 c4 -42
9 -51 27 -53 16 -2 26 5 38 32 9 19 35 46 57 61 34 23 45 25 64 16 31 -14 33
-72 4 -119 -23 -38 -19 -52 15 -52 25 0 65 55 65 91 0 10 9 36 20 56 11 21 20
50 20 65 0 21 5 28 20 28 17 0 20 -7 20 -50 0 -45 2 -50 23 -50 12 0 29 -5 37
-10 13 -8 13 -14 1 -42 -7 -18 -14 -44 -15 -58 -1 -23 2 -25 44 -25 42 0 45 2
48 28 2 17 25 49 62 88 64 65 82 69 125 28 19 -18 19 -20 1 -69 -10 -28 -15
-57 -12 -65 8 -21 66 -20 66 0 0 25 60 145 75 151 18 7 64 -26 65 -47 0 -9 -7
-19 -15 -23 -16 -6 -21 -51 -6 -60 15 -10 38 4 50 30 15 34 14 61 -4 68 -17 6
-20 32 -6 40 5 4 21 2 35 -4 23 -9 26 -15 26 -62 0 -48 -5 -58 -43 -102 -40
-45 -45 -48 -66 -37 -20 11 -26 10 -47 -10 -13 -12 -24 -31 -24 -40 0 -33 -41
-100 -59 -97 -16 4 -18 24 -10 98 4 32 1 35 -23 38 -14 2 -32 10 -38 18 -16
18 -39 18 -46 -1 -5 -12 -27 -15 -110 -15 -93 0 -105 2 -124 22 -15 17 -19 30
-14 54 3 18 1 35 -5 38 -11 7 -48 -28 -56 -55 -3 -10 -14 -21 -25 -24 -10 -3
-21 -12 -24 -20 -3 -8 -16 -15 -28 -15 -13 0 -36 -14 -54 -34 -17 -19 -41 -39
-54 -46 -13 -7 -19 -17 -16 -26 4 -11 0 -14 -17 -12 -18 2 -23 -2 -25 -25 -3
-22 -8 -28 -25 -25 -41 6 -33 39 23 90 29 26 57 48 61 48 5 0 9 7 9 15 0 8 -9
15 -20 15 -10 0 -24 9 -30 20 -6 11 -21 20 -34 20 -13 0 -26 7 -30 15 -9 24
-21 18 -37 -17 l-14 -33 -92 -3 c-82 -2 -94 -5 -104 -24 -9 -17 -18 -19 -49
-15 -29 4 -50 17 -88 55 l-51 51 -30 -34 c-29 -34 -50 -43 -64 -28 -4 3 3 17
15 30 16 17 23 38 25 74 1 27 -1 49 -3 49 -3 0 -18 -7 -34 -15 -35 -18 -44
-44 -35 -101 5 -37 4 -44 -11 -44 -9 0 -23 8 -30 18 -13 16 -15 16 -28 0 -8
-12 -27 -18 -53 -18 -46 0 -85 35 -93 84 -3 16 -10 31 -16 33 -14 5 -46 -43
-54 -82 -4 -22 -12 -31 -29 -33 -35 -5 -43 17 -20 54 10 17 19 44 19 60 0 16
9 43 20 59 21 32 26 65 10 65 -5 0 -13 1 -17 1 -4 1 -19 -21 -34 -47 -14 -27
-34 -51 -45 -53 -10 -1 -26 -9 -34 -15 -24 -20 -117 -56 -143 -56 -26 0 -37
-16 -37 -55 0 -12 -7 -29 -16 -36 -24 -19 -46 13 -33 48 13 34 11 73 -3 74 -7
1 -22 2 -32 3 -11 0 -21 6 -23 12 -6 19 56 64 88 64 23 0 32 6 40 28 6 15 17
40 25 55 23 46 18 59 -18 56 -83 -5 -92 15 -20 49 66 31 209 32 258 2 18 -12
36 -31 40 -43 4 -12 21 -40 38 -61 17 -22 29 -48 28 -58 -2 -12 6 -21 22 -28
19 -7 26 -17 26 -37 1 -16 9 -44 18 -63 13 -27 24 -36 48 -38 28 -3 32 1 57
52 31 63 92 116 134 116 41 0 53 -17 53 -75 0 -59 5 -68 31 -54 12 6 19 21 19
40 0 16 7 44 16 60 19 37 12 59 -18 59 -33 0 -52 15 -44 35 5 13 14 16 40 11
44 -8 66 1 66 29 0 12 6 28 14 34 8 7 17 23 21 38 6 24 41 62 58 63 4 0 7 -16
7 -35z m-2000 -24 c0 -16 -6 -31 -15 -35 -8 -3 -15 -16 -15 -28 0 -13 -7 -34
-17 -47 -15 -23 -15 -25 3 -38 17 -13 17 -15 3 -23 -36 -21 -67 -84 -67 -139
-1 -79 8 -90 60 -80 24 4 46 8 51 9 4 0 7 8 7 18 0 9 7 26 15 36 8 11 15 28
15 38 0 27 41 78 61 78 24 0 32 -15 20 -37 -24 -45 -30 -82 -14 -95 17 -14 35
4 87 87 15 25 33 44 40 42 14 -5 10 -74 -6 -105 -10 -19 -9 -25 2 -32 41 -25
120 28 120 80 0 14 7 35 15 46 8 10 15 29 15 40 0 12 6 27 14 33 21 18 38 -11
31 -52 -8 -42 8 -56 35 -32 40 36 52 -7 20 -67 l-20 -37 24 -28 24 -28 30 30
c28 27 29 33 24 87 -5 64 2 79 51 104 24 13 34 13 58 4 16 -7 29 -18 29 -25 0
-21 -32 -79 -54 -97 -17 -14 -19 -21 -10 -45 6 -17 16 -26 25 -24 37 10 107
12 112 4 3 -5 2 -15 -3 -22 -6 -10 -36 -14 -116 -13 -95 1 -111 -2 -127 -19
-24 -26 -38 -24 -76 10 -30 27 -32 33 -26 69 9 53 -9 64 -41 26 -13 -16 -23
-36 -24 -45 0 -28 -25 -39 -92 -41 -54 -3 -70 1 -88 17 -21 19 -23 19 -35 2
-9 -13 -27 -17 -73 -17 -51 0 -63 -3 -72 -20 -7 -13 -21 -20 -40 -20 -16 0
-32 -4 -35 -10 -12 -20 -42 -9 -79 29 -32 33 -36 42 -27 59 6 11 11 45 11 75
0 36 5 59 15 67 23 19 8 30 -41 30 -37 0 -44 3 -44 20 0 17 7 20 40 20 46 0
100 33 100 62 0 27 61 108 82 108 13 0 18 -8 18 -29z m1512 -11 c5 -25 3 -39
-7 -49 -12 -13 -15 -12 -21 2 -7 20 -34 23 -34 3 0 -8 7 -16 15 -20 9 -3 15
-18 15 -36 0 -23 -4 -30 -20 -30 -11 0 -20 6 -20 14 0 7 -6 19 -14 25 -26 22
-25 71 2 103 35 42 74 36 84 -12z m-2256 10 c15 -6 33 -18 40 -28 12 -16 15
-16 44 1 43 23 55 22 75 -10 17 -25 17 -29 1 -72 -9 -25 -16 -58 -16 -72 0
-15 -7 -29 -15 -33 -8 -3 -15 -15 -15 -26 0 -12 -7 -35 -16 -52 -15 -29 -14
-31 8 -55 19 -21 30 -24 63 -19 91 11 104 18 174 88 67 67 73 70 106 64 53
-10 64 -41 35 -99 -27 -55 -22 -77 20 -77 19 0 30 -5 30 -14 0 -25 -20 -29
-76 -16 -43 11 -56 11 -69 0 -18 -15 -78 -6 -95 15 -16 19 -41 19 -66 0 -31
-24 -94 -18 -139 13 -37 26 -40 32 -43 81 -2 35 2 61 12 77 9 13 16 33 16 45
0 11 9 32 20 46 22 28 27 63 9 63 -22 0 -94 -74 -116 -119 -12 -24 -29 -49
-37 -53 -9 -5 -16 -19 -16 -32 0 -13 -7 -29 -15 -36 -8 -7 -24 -32 -35 -56
-21 -48 -43 -56 -60 -23 -13 24 2 74 25 83 7 2 16 18 20 34 3 17 13 33 21 36
8 3 14 16 14 29 0 14 7 30 15 37 8 7 15 25 15 40 0 15 9 35 20 45 11 10 20 24
20 31 0 22 -20 27 -39 10 -10 -9 -25 -16 -33 -16 -9 0 -21 -7 -28 -15 -14 -17
-36 -20 -45 -5 -8 13 13 50 29 50 7 0 24 8 37 19 21 16 42 25 71 30 4 0 19 -4
34 -9z m4391 -87 c8 -23 -33 -33 -88 -23 -63 12 -89 6 -89 -21 0 -22 -28 -69
-41 -69 -15 0 -10 74 6 97 17 24 52 31 149 29 36 -1 61 -6 63 -13z m-329 -23
c26 -35 27 -43 7 -60 -22 -19 -18 -40 8 -40 30 0 47 -18 47 -49 0 -13 6 -32
14 -40 23 -27 30 -61 12 -61 -22 0 -60 45 -66 78 -8 43 -32 32 -62 -28 -31
-63 -51 -80 -89 -80 -30 0 -51 21 -30 28 8 3 27 17 45 32 25 23 31 36 32 74 1
27 9 54 18 65 9 10 16 35 16 58 0 62 15 69 48 23z m408 -14 c3 -8 -4 -32 -15
-55 -12 -22 -21 -52 -21 -67 0 -15 -10 -38 -21 -50 -23 -24 -20 -54 5 -54 9 0
20 9 26 20 6 12 21 20 36 20 21 0 25 -4 22 -22 -2 -15 -12 -25 -28 -28 -32 -6
-95 -62 -126 -112 -25 -40 -48 -49 -58 -23 -7 20 2 44 31 78 13 16 23 34 23
41 0 17 -63 27 -113 19 -37 -5 -39 -4 -35 18 2 16 11 25 25 27 25 4 29 14 41
102 6 45 11 56 28 58 11 2 27 -4 34 -12 10 -13 10 -20 -3 -39 -9 -13 -19 -40
-22 -60 -6 -29 -4 -38 9 -43 18 -7 55 31 56 58 0 33 71 138 92 138 5 0 11 -6
14 -14z"/>
<path d="M2860 4720 c0 -5 5 -10 11 -10 5 0 7 5 4 10 -3 6 -8 10 -11 10 -2 0
-4 -4 -4 -10z"/>
<path d="M4867 4022 c-10 -10 -17 -30 -17 -45 0 -15 -10 -46 -21 -71 -12 -24
-19 -51 -16 -60 9 -22 44 -20 74 4 14 11 31 20 38 20 15 0 46 36 69 83 16 30
17 42 8 62 -10 22 -18 25 -65 25 -40 0 -58 -5 -70 -18z"/>
<path d="M5788 3824 c-32 -63 -13 -117 31 -85 9 6 24 14 34 17 21 8 21 22 2
48 -8 11 -15 28 -15 38 0 31 -34 20 -52 -18z"/>
<path d="M6010 3809 c-46 -59 -50 -79 -16 -79 19 0 31 12 55 57 35 64 37 73
16 73 -8 0 -33 -23 -55 -51z"/>
<path d="M6477 3819 c-20 -22 -39 -44 -42 -49 -11 -17 8 -40 34 -40 22 0 30 8
49 48 42 88 20 110 -41 41z"/>
<path d="M4290 3826 c0 -13 7 -26 15 -30 11 -4 15 2 15 24 0 20 -5 30 -15 30
-9 0 -15 -9 -15 -24z"/>
<path d="M3333 3798 c-13 -6 -23 -16 -23 -23 0 -7 -9 -22 -20 -35 -11 -13 -20
-26 -20 -30 0 -9 25 -20 44 -20 18 0 52 50 61 88 7 35 -2 39 -42 20z"/>
<path d="M4040 6280 c0 -5 5 -10 11 -10 5 0 7 5 4 10 -3 6 -8 10 -11 10 -2 0
-4 -4 -4 -10z"/>
<path d="M3937 6023 c-4 -3 -7 -11 -7 -17 0 -6 5 -5 12 2 6 6 9 14 7 17 -3 3
-9 2 -12 -2z"/>
<path d="M4666 5913 c-11 -11 -6 -23 9 -23 8 0 15 4 15 9 0 13 -16 22 -24 14z"/>
<path d="M2774 5568 c-17 -18 -64 -73 -105 -122 -41 -48 -88 -105 -106 -125
-18 -20 -32 -40 -33 -45 0 -4 -22 -37 -50 -72 -52 -67 -56 -74 -40 -74 14 0
100 90 100 104 0 6 15 25 33 42 18 16 36 38 40 47 3 9 13 17 22 17 8 0 15 4
15 8 0 12 50 71 105 123 45 43 52 46 65 33 13 -14 11 -19 -20 -47 -34 -31 -35
-35 -34 -97 1 -62 -1 -67 -39 -113 -34 -41 -39 -53 -34 -82 4 -25 0 -41 -15
-60 -11 -14 -17 -32 -14 -40 9 -24 42 -17 84 19 23 19 57 36 79 39 25 4 59 24
100 57 34 27 66 50 70 50 4 0 37 27 73 60 36 33 88 79 117 102 69 58 116 153
49 101 -13 -11 -37 -34 -51 -52 -26 -31 -29 -31 -103 -30 -91 2 -106 11 -193
116 -33 40 -66 73 -73 73 -7 0 -26 -15 -42 -32z"/>
<path d="M2615 5280 c3 -5 8 -10 11 -10 2 0 4 5 4 10 0 6 -5 10 -11 10 -5 0
-7 -4 -4 -10z"/>
<path d="M2407 5113 c-4 -3 -7 -11 -7 -17 0 -6 5 -5 12 2 6 6 9 14 7 17 -3 3
-9 2 -12 -2z"/>
<path d="M1955 4659 c-9 -13 -5 -16 20 -21 12 -2 21 3 23 15 4 19 -32 25 -43
6z"/>
<path d="M4443 3123 c9 -2 23 -2 30 0 6 3 -1 5 -18 5 -16 0 -22 -2 -12 -5z"/>
</g>
</svg>
