<?xml version="1.0" standalone="no"?>
<!DOCTYPE svg PUBLIC "-//W3C//DTD SVG 1.1//EN" "http://www.w3.org/Graphics/SVG/1.1/DTD/svg11.dtd" >
<svg xmlns="http://www.w3.org/2000/svg" xmlns:xlink="http://www.w3.org/1999/xlink" version="1.1">
<metadata>
Created by FontForge 20170812 at Thu Jan 16 09:32:46 2020
 By www-data
Copyright 2019 The Baloo 2 Project Authors (https://github.com/EkType/Baloo2)
</metadata>
<defs>
<font id="Baloo2-SemiBold" horiz-adv-x="273" >
  <font-face 
    font-family="Baloo 2 SemiBold"
    font-weight="600"
    font-stretch="normal"
    units-per-em="1000"
    panose-1="3 8 7 2 4 3 2 2 2 0"
    ascent="800"
    descent="-200"
    x-height="474"
    cap-height="615"
    bbox="-486 -496 2258 1048"
    underline-thickness="50"
    underline-position="-100"
    unicode-range="U+000D-FB04"
  />
<missing-glyph horiz-adv-x="665" 
d="M460 548h-255v-447h255v447zM89 579q0 32 18.5 51t51.5 19h347q33 0 51.5 -19t18.5 -51v-509q0 -32 -18.5 -51t-51.5 -19h-347q-32 0 -51 19t-19 51v509z" />
    <glyph glyph-name="fi" unicode="fi" horiz-adv-x="676" 
d="M186 442h181q5 -8 9 -20.5t4 -27.5q0 -26 -12 -38t-32 -12h-144v-343q-9 -2 -24 -5t-34 -3q-35 0 -52 13t-17 46v442q0 48 15 82t42 56t64 32.5t81 10.5q133 0 133 -70q0 -16 -6.5 -28.5t-15.5 -20.5q-19 8 -42.5 13t-49.5 5q-52 0 -76 -20t-24 -65v-47zM481 470
q8 2 23.5 5t33.5 3q36 0 52.5 -13t16.5 -46v-418q-8 -2 -23.5 -5t-33.5 -3q-36 0 -52.5 13t-16.5 46v418zM471 615q0 29 20.5 49.5t52.5 20.5t52 -20.5t20 -49.5q0 -30 -20 -50.5t-52 -20.5t-52.5 20.5t-20.5 50.5z" />
    <glyph glyph-name="fl" unicode="fl" horiz-adv-x="680" 
d="M186 442h181q5 -8 9 -20.5t4 -27.5q0 -26 -12 -38t-32 -12h-144v-343q-9 -2 -24 -5t-34 -3q-35 0 -52 13t-17 46v442q0 48 15 82t42 56t64 32.5t81 10.5q133 0 133 -70q0 -16 -6.5 -28.5t-15.5 -20.5q-19 8 -42.5 13t-49.5 5q-52 0 -76 -20t-24 -65v-47zM610 1
q-8 -2 -23.5 -5t-33.5 -3q-36 0 -52.5 13t-16.5 46v598q8 3 23.5 5.5t33.5 2.5q36 0 52.5 -13t16.5 -46v-598z" />
    <glyph glyph-name="f_f" unicode="ff" horiz-adv-x="815" 
d="M186 442h181q5 -8 9 -20.5t4 -27.5q0 -26 -12 -38t-32 -12h-144v-343q-9 -2 -24 -5t-34 -3q-35 0 -52 13t-17 46v442q0 48 15 82t42 56t64 32.5t81 10.5q133 0 133 -70q0 -16 -6.5 -28.5t-15.5 -20.5q-19 8 -42.5 13t-49.5 5q-52 0 -76 -20t-24 -65v-47zM586 442h181
q5 -8 9 -20.5t4 -27.5q0 -26 -12 -38t-32 -12h-144v-343q-9 -2 -24 -5t-34 -3q-35 0 -52 13t-17 46v442q0 48 15 82t42 56t64 32.5t81 10.5q133 0 133 -70q0 -16 -6.5 -28.5t-15.5 -20.5q-19 8 -42.5 13t-49.5 5q-52 0 -76 -20t-24 -65v-47z" />
    <glyph glyph-name="f_f_i" unicode="ffi" horiz-adv-x="1053" 
d="M186 442h181q5 -8 9 -20.5t4 -27.5q0 -26 -12 -38t-32 -12h-144v-343q-9 -2 -24 -5t-34 -3q-35 0 -52 13t-17 46v442q0 48 15 82t42 56t64 32.5t81 10.5q133 0 133 -70q0 -16 -6.5 -28.5t-15.5 -20.5q-19 8 -42.5 13t-49.5 5q-52 0 -76 -20t-24 -65v-47zM565 442h181
q5 -8 9 -20.5t4 -27.5q0 -26 -12 -38t-32 -12h-144v-343q-9 -2 -24 -5t-34 -3q-35 0 -52 13t-17 46v442q0 48 15 82t42 56t64 32.5t81 10.5q133 0 133 -70q0 -16 -6.5 -28.5t-15.5 -20.5q-19 8 -42.5 13t-49.5 5q-52 0 -76 -20t-24 -65v-47zM859 470q8 2 23.5 5t33.5 3
q36 0 52.5 -13t16.5 -46v-418q-8 -2 -23.5 -5t-33.5 -3q-36 0 -52.5 13t-16.5 46v418zM849 615q0 29 20.5 49.5t52.5 20.5t52 -20.5t20 -49.5q0 -30 -20 -50.5t-52 -20.5t-52.5 20.5t-20.5 50.5z" />
    <glyph glyph-name="f_f_l" unicode="ffl" horiz-adv-x="1080" 
d="M990 1q-8 -2 -23.5 -5t-33.5 -3q-36 0 -52.5 13t-16.5 46v598q8 3 23.5 5.5t33.5 2.5q36 0 52.5 -13t16.5 -46v-598zM186 442h181q5 -8 9 -20.5t4 -27.5q0 -26 -12 -38t-32 -12h-144v-343q-9 -2 -24 -5t-34 -3q-35 0 -52 13t-17 46v442q0 48 15 82t42 56t64 32.5t81 10.5
q133 0 133 -70q0 -16 -6.5 -28.5t-15.5 -20.5q-19 8 -42.5 13t-49.5 5q-52 0 -76 -20t-24 -65v-47zM565 442h181q5 -8 9 -20.5t4 -27.5q0 -26 -12 -38t-32 -12h-144v-343q-9 -2 -24 -5t-34 -3q-35 0 -52 13t-17 46v442q0 48 15 82t42 56t64 32.5t81 10.5q133 0 133 -70
q0 -16 -6.5 -28.5t-15.5 -20.5q-19 8 -42.5 13t-49.5 5q-52 0 -76 -20t-24 -65v-47z" />
    <glyph glyph-name=".notdef" horiz-adv-x="665" 
d="M460 548h-255v-447h255v447zM89 579q0 32 18.5 51t51.5 19h347q33 0 51.5 -19t18.5 -51v-509q0 -32 -18.5 -51t-51.5 -19h-347q-32 0 -51 19t-19 51v509z" />
    <glyph glyph-name="NULL" horiz-adv-x="0" 
 />
    <glyph glyph-name="uni000D" unicode="&#xd;" horiz-adv-x="223" 
 />
    <glyph glyph-name="space" unicode=" " horiz-adv-x="200" 
 />
    <glyph glyph-name="exclam" unicode="!" horiz-adv-x="275" 
d="M202 570q0 -27 -1 -71.5t-3 -95t-5.5 -102t-8.5 -91.5q-8 -6 -22.5 -9.5t-26.5 -3.5q-21 0 -35.5 7.5t-17.5 27.5q-3 26 -6 73.5t-5 102t-3 109t-1 94.5q32 19 71 19q30 0 47 -15t17 -45zM59 61q0 33 21 54.5t56 21.5t56 -21.5t21 -54.5t-21 -54.5t-56 -21.5t-56 21.5
t-21 54.5z" />
    <glyph glyph-name="quotedbl" unicode="&#x22;" horiz-adv-x="342" 
d="M130 397q-16 -8 -45 -8q-20 0 -33 8.5t-14 28.5l-10 187q23 17 60 17q28 0 42.5 -11.5t14.5 -38.5q0 -13 -1.5 -36.5t-3.5 -49.5t-4.5 -52t-5.5 -45zM298 397q-16 -8 -45 -8q-20 0 -33 8.5t-14 28.5l-11 187q25 17 61 17q28 0 42.5 -11.5t14.5 -38.5q0 -13 -1.5 -36.5
t-3.5 -49.5t-4.5 -52t-5.5 -45z" />
    <glyph glyph-name="numbersign" unicode="#" horiz-adv-x="691" 
d="M530 376l-29 -136h116q5 -8 8.5 -20t3.5 -26q0 -26 -12 -37.5t-33 -11.5h-104l-31 -147q-10 -2 -19.5 -2h-17.5q-27 0 -43 11t-16 40q0 17 4.5 39t7.5 37l4 22h-117l-32 -147q-9 -2 -18.5 -2h-18.5q-27 0 -43 11t-16 40q0 17 4.5 39t8.5 37l4 22h-93q-5 8 -8.5 20
t-3.5 26q0 26 12.5 37.5t33.5 11.5h80l29 136h-114q-5 8 -9 20t-4 26q0 26 12.5 37.5t33.5 11.5h101l31 142q10 2 19.5 2h17.5q27 0 43.5 -10.5t16.5 -39.5q0 -17 -4.5 -38t-8.5 -39l-4 -17h117l31 142q11 2 20.5 2h17.5q26 0 43 -10.5t17 -39.5q0 -17 -5 -38t-9 -39l-4 -17
h96q4 -8 8 -20t4 -26q0 -26 -12.5 -37.5t-33.5 -11.5h-82zM272 240h118l29 136h-117z" />
    <glyph glyph-name="dollar" unicode="$" horiz-adv-x="544" 
d="M256 91q58 0 85 22.5t27 56.5q0 31 -21 49.5t-64 31.5l-64 20q-38 12 -69 27t-53 35.5t-34 48t-12 65.5q0 68 42.5 112t119.5 58v79q8 2 21.5 4.5t29.5 2.5q32 0 47 -12t15 -41v-29q66 -7 106.5 -30t40.5 -59q0 -20 -9.5 -34.5t-23.5 -23.5q-24 17 -63.5 29.5t-86.5 12.5
q-52 0 -79 -18.5t-27 -50.5q0 -26 18.5 -40t58.5 -27l57 -18q87 -26 135 -71t48 -122q0 -69 -45 -117t-130 -62v-77q-8 -2 -21 -4.5t-29 -2.5q-32 0 -47.5 12t-15.5 41v27q-74 7 -119 34.5t-45 65.5q0 23 13.5 39.5t31.5 24.5q25 -22 66 -40.5t96 -18.5z" />
    <glyph glyph-name="percent" unicode="%" horiz-adv-x="786" 
d="M343 466q0 -35 -11.5 -63t-32 -47.5t-48 -30t-59.5 -10.5q-33 0 -60.5 10.5t-47.5 30t-31.5 47.5t-11.5 63q0 34 11.5 62t31.5 47.5t47.5 30t60.5 10.5q32 0 59.5 -10.5t48 -30t32 -47.5t11.5 -62zM137 466q0 -35 15.5 -52.5t39.5 -17.5t39 17.5t15 52.5q0 34 -15 51.5
t-39 17.5t-39.5 -17.5t-15.5 -51.5zM548 617q29 -5 49.5 -15.5t20.5 -29.5q0 -13 -6 -26.5t-17 -28.5l-356 -524q-30 3 -50 15t-20 30q0 12 6 25t16 28zM745 143q0 -35 -11.5 -63t-31.5 -47.5t-47.5 -30t-60.5 -10.5t-60.5 10.5t-47.5 30t-31.5 47.5t-11.5 63q0 34 11.5 62
t31.5 47.5t47.5 30t60.5 10.5t60.5 -10.5t47.5 -30t31.5 -47.5t11.5 -62zM539 143q0 -35 15.5 -52.5t39.5 -17.5t39.5 17.5t15.5 52.5q0 34 -15.5 51.5t-39.5 17.5t-39.5 -17.5t-15.5 -51.5z" />
    <glyph glyph-name="ampersand" unicode="&#x26;" horiz-adv-x="656" 
d="M566 -14q-17 0 -31 7.5t-29 23.5l-34 34q-38 -34 -88 -50.5t-105 -16.5t-99 15t-74.5 42t-46.5 64t-16 81q0 70 37.5 115t92.5 67q-26 32 -35.5 57.5t-9.5 51.5q0 31 11.5 57.5t34 46t54.5 30.5t74 11q58 0 84.5 -19t26.5 -48t-23 -49q-14 7 -31.5 11.5t-37.5 4.5
q-32 0 -51 -15t-19 -43q0 -23 13.5 -41.5t39.5 -44.5l157 -158q10 31 14.5 69t4.5 77q28 12 54 12q34 0 46.5 -19t12.5 -51q0 -42 -11.5 -87.5t-34.5 -86.5l83 -83q-3 -29 -20.5 -47t-43.5 -18zM285 84q23 0 54 8.5t60 33.5l-161 165q-30 -10 -52 -35.5t-22 -64.5
q0 -47 31.5 -77t89.5 -30z" />
    <glyph glyph-name="quotesingle" unicode="'" horiz-adv-x="180" 
d="M136 399q-8 -4 -21 -7t-27 -3q-21 0 -35 9.5t-15 29.5l-10 183q11 8 27 13.5t36 5.5q29 0 44.5 -12t15.5 -40q0 -14 -1 -36t-3.5 -47.5l-5 -51t-5.5 -44.5z" />
    <glyph glyph-name="parenleft" unicode="(" horiz-adv-x="280" 
d="M214 -126q-29 0 -49.5 18t-37.5 46q-36 59 -57.5 141t-21.5 191q0 108 23.5 191t55.5 138q17 28 37.5 46t49.5 18q21 0 36.5 -12t23.5 -26q-51 -72 -78 -157.5t-27 -197.5q0 -56 6.5 -104.5t19.5 -92t32.5 -83t46.5 -78.5q-8 -15 -23.5 -26.5t-36.5 -11.5z" />
    <glyph glyph-name="parenright" unicode=")" horiz-adv-x="280" 
d="M67 -126q-21 0 -36.5 11.5t-23.5 26.5q27 39 46.5 78.5t32.5 83t19.5 92t6.5 104.5q0 112 -27 197.5t-78 157.5q8 14 23.5 26t36.5 12q29 0 49.5 -18t37.5 -46q32 -55 55.5 -138t23.5 -191q0 -109 -21.5 -191t-57.5 -141q-17 -28 -37.5 -46t-49.5 -18z" />
    <glyph glyph-name="asterisk" unicode="*" horiz-adv-x="326" 
d="M63 574q12 0 27 -6l33 -14q-1 18 -1 35v46q7 5 18 9.5t25 4.5q18 0 29.5 -9t11.5 -28q0 -5 -1 -23.5t-3 -37.5l68 33q13 -5 23 -17.5t10 -29.5q0 -18 -9.5 -25.5t-26.5 -14.5l-38 -17l54 -71q-5 -18 -18 -29.5t-31 -11.5q-17 0 -27.5 11t-20.5 25l-21 32l-44 -66
q-5 -2 -9.5 -2h-9.5q-26 0 -39 11t-13 28q0 18 17 38l29 35l-71 22q-5 17 -5 30q0 20 11.5 31t31.5 11z" />
    <glyph glyph-name="plus" unicode="+" horiz-adv-x="546" 
d="M332 344h162q5 -8 8.5 -21t3.5 -28q0 -27 -13 -39.5t-35 -12.5h-126v-182q-8 -3 -23 -5.5t-30 -2.5q-31 0 -46.5 11.5t-15.5 44.5v134h-165q-5 9 -8.5 21.5t-3.5 27.5q0 27 13 39.5t36 12.5h128v179q9 3 24 5.5t30 2.5q30 0 45.5 -11.5t15.5 -44.5v-131z" />
    <glyph glyph-name="comma" unicode="," horiz-adv-x="195" 
d="M110 -83q-13 -18 -27.5 -26.5t-34.5 -8.5q-33 0 -57 21q9 25 18 54t16.5 59t14 58t11.5 52q13 7 30 11.5t34 4.5q25 0 42 -11t17 -40q0 -19 -6.5 -43.5t-16 -49t-20.5 -46.5t-21 -35z" />
    <glyph glyph-name="hyphen" unicode="-" horiz-adv-x="371" 
d="M55 206q-5 9 -9 22t-4 28q0 27 13 40t35 13h226q5 -8 9 -21.5t4 -28.5q0 -27 -13 -40t-35 -13h-226z" />
    <glyph glyph-name="period" unicode="." horiz-adv-x="191" 
d="M19 62q0 33 20.5 55.5t56.5 22.5q35 0 55.5 -22.5t20.5 -55.5q0 -32 -20.5 -54.5t-55.5 -22.5q-36 0 -56.5 22.5t-20.5 54.5z" />
    <glyph glyph-name="slash" unicode="/" horiz-adv-x="325" 
d="M116 -106q-11 -2 -20.5 -2h-18.5q-64 0 -64 57q0 19 6 40.5t10 36.5l180 679q22 3 40 3q29 0 46 -13t17 -42q0 -20 -5.5 -40t-10.5 -39z" />
    <glyph glyph-name="zero" unicode="0" horiz-adv-x="595" 
d="M423 304q0 110 -35.5 162.5t-90.5 52.5t-90 -53t-35 -162q0 -107 32.5 -161.5t92.5 -54.5t93 54.5t33 161.5zM297 -15q-56 0 -102.5 20t-80 59.5t-52 99.5t-18.5 140q0 81 20 141t54 99.5t80 58.5t99 19t99 -19.5t80.5 -58.5t54.5 -99t20 -141q0 -80 -18.5 -139.5
t-52.5 -99.5t-80.5 -60t-102.5 -20z" />
    <glyph glyph-name="one" unicode="1" horiz-adv-x="376" 
d="M50 442q-14 7 -26 21t-12 38q0 44 55 65l126 49h28q32 0 51 -18.5t19 -50.5v-546q-9 -2 -24.5 -5t-33.5 -3q-36 0 -52.5 13t-16.5 46v436z" />
    <glyph glyph-name="two" unicode="2" horiz-adv-x="515" 
d="M59 532q0 20 13 36.5t36 28.5t55.5 18.5t70.5 6.5q54 0 95.5 -13.5t70 -37.5t43 -57t14.5 -73q0 -54 -29.5 -105t-97.5 -109l-146 -127h268q5 -8 9 -21t4 -28q0 -26 -12 -38.5t-33 -12.5h-350q-16 11 -25 28t-9 40q0 25 10.5 43t24.5 31l159 145q56 50 77 83.5t21 65.5
q0 37 -27 60t-79 23q-42 0 -75 -13.5t-55 -29.5q-14 8 -23.5 22t-9.5 34z" />
    <glyph glyph-name="three" unicode="3" horiz-adv-x="512" 
d="M225 622q106 0 165 -45t59 -126q0 -27 -8.5 -49t-21.5 -38.5t-29 -28t-32 -17.5q20 -7 39.5 -19t34.5 -30.5t24.5 -43t9.5 -56.5q0 -44 -17.5 -78t-49 -57.5t-75.5 -35.5t-96 -12q-47 0 -84 7t-63 19.5t-39.5 29.5t-13.5 36q0 21 10.5 36t26.5 23q23 -17 58 -32.5
t92 -15.5q59 0 91.5 23t32.5 66q0 40 -28.5 62.5t-88.5 22.5h-89q-5 8 -9 21t-4 29q0 17 4 30t9 21h86q54 0 78.5 21t24.5 56q0 37 -29 58t-83 21q-45 0 -78 -12.5t-56 -27.5q-13 9 -23 23t-10 33t13.5 35t37.5 27.5t57.5 17.5t73.5 6z" />
    <glyph glyph-name="four" unicode="4" horiz-adv-x="576" 
d="M302 605q14 4 32.5 7t32.5 3q17 0 33 -3.5t28.5 -11.5t20 -22t7.5 -35v-307h89q5 -8 9 -21.5t4 -28.5q0 -27 -12.5 -40t-33.5 -13h-56v-133q-8 -2 -24 -5t-32 -3q-32 0 -50 10t-18 44v87h-262q-17 8 -29 26.5t-12 44.5q0 14 3 29t11 27zM338 486h-2l-172 -250h173z" />
    <glyph glyph-name="five" unicode="5" horiz-adv-x="530" 
d="M85 538q2 32 20 51t50 19h297q5 -8 9.5 -21t4.5 -29q0 -26 -12.5 -40t-33.5 -14h-223l-12 -135q18 7 43 13t57 6q48 0 86.5 -14t65.5 -40t41.5 -62.5t14.5 -80.5q0 -42 -15 -79.5t-44.5 -65.5t-74.5 -44.5t-105 -16.5q-45 0 -81.5 7.5t-62.5 20.5t-40 30.5t-14 38.5
q0 22 13 37.5t29 23.5q25 -20 60.5 -38t89.5 -18q57 0 86.5 29.5t29.5 74.5t-28.5 71t-81.5 26q-31 0 -54.5 -8.5t-46.5 -21.5q-38 2 -61 21.5t-23 57.5q0 5 0.5 11.5t1.5 18.5l14 171v0z" />
    <glyph glyph-name="six" unicode="6" horiz-adv-x="554" 
d="M469 547q0 -17 -8 -31.5t-19 -22.5q-25 11 -53.5 18.5t-56.5 7.5q-69 0 -111.5 -43.5t-49.5 -131.5q20 17 56.5 34t84.5 17q45 0 82 -13t64 -38.5t41.5 -63.5t14.5 -87q0 -45 -15 -83t-44 -65.5t-71 -43.5t-96 -16q-55 0 -100 18.5t-77 56t-49.5 94.5t-17.5 133
q0 88 21.5 151.5t59 104.5t87.5 60t107 19q67 0 108.5 -19t41.5 -56zM289 87q45 0 71.5 28.5t26.5 78.5t-27 75.5t-72 25.5q-36 0 -66.5 -15.5t-48.5 -38.5l2 -10q0 -69 30.5 -106.5t83.5 -37.5z" />
    <glyph glyph-name="seven" unicode="7" horiz-adv-x="470" 
d="M422 608q14 -9 24 -24t10 -36q0 -27 -13 -54l-228 -500q-11 -1 -20 -1h-17q-33 0 -54 14t-21 43q0 16 7.5 34.5t19.5 43.5l185 376h-279q-5 8 -9.5 21.5t-4.5 28.5q0 28 12.5 41t33.5 13h354z" />
    <glyph glyph-name="eight" unicode="8" horiz-adv-x="564" 
d="M45 165q0 59 30.5 96.5t74.5 56.5q-42 20 -66 53t-24 81q0 39 16 71t45.5 54t70.5 34t91 12q105 0 165 -45.5t60 -126.5q0 -51 -27.5 -84t-69.5 -50q22 -9 42.5 -22.5t36 -32t24.5 -43.5t9 -56q0 -42 -17.5 -75t-49 -56t-75.5 -35.5t-98 -12.5t-97.5 12.5t-75 35.5
t-48.5 57t-17 76zM397 171q0 41 -33.5 68t-92.5 36q-49 -12 -74.5 -39.5t-25.5 -65.5q0 -42 30 -64.5t82 -22.5q51 0 82.5 22t31.5 66zM185 447q0 -42 30 -63t77 -27q45 13 68 34.5t23 55.5q0 37 -26.5 57.5t-73.5 20.5q-45 0 -71.5 -21.5t-26.5 -56.5z" />
    <glyph glyph-name="nine" unicode="9" horiz-adv-x="555" 
d="M75 61q0 17 8.5 32t19.5 23q23 -11 53 -19.5t63 -8.5q72 0 118.5 42.5t46.5 132.5q-17 -16 -51.5 -31.5t-82.5 -15.5q-44 0 -82 11.5t-66.5 36t-44.5 61.5t-16 88q0 45 15.5 83.5t45 66t71 43.5t93.5 16q55 0 100 -19t77.5 -57t50 -94t17.5 -131q0 -87 -20 -150.5
t-57 -105t-88 -61t-112 -19.5q-70 0 -114.5 19.5t-44.5 56.5zM276 314q34 0 63 16.5t42 38.5q0 72 -29.5 111.5t-85.5 39.5q-45 0 -71.5 -28t-26.5 -76q0 -52 31 -77t77 -25z" />
    <glyph glyph-name="colon" unicode=":" horiz-adv-x="225" 
d="M39 394q0 32 20.5 54.5t55.5 22.5t56 -22.5t21 -54.5q0 -33 -21 -55.5t-56 -22.5t-55.5 22.5t-20.5 55.5zM36 62q0 33 20.5 55.5t55.5 22.5t56 -22.5t21 -55.5q0 -32 -21 -54.5t-56 -22.5t-55.5 22.5t-20.5 54.5z" />
    <glyph glyph-name="semicolon" unicode=";" horiz-adv-x="235" 
d="M42 394q0 32 20.5 54.5t55.5 22.5t56 -22.5t21 -54.5q0 -33 -21 -55.5t-56 -22.5t-55.5 22.5t-20.5 55.5zM127 -83q-13 -18 -27.5 -26.5t-34.5 -8.5q-33 0 -57 21q9 25 18 54t16.5 59t14 58t11.5 52q13 7 30 11.5t34 4.5q25 0 42 -11t17 -40q0 -19 -6.5 -43.5t-16 -49
t-20.5 -46.5t-21 -35z" />
    <glyph glyph-name="less" unicode="&#x3c;" horiz-adv-x="482" 
d="M449 148q1 -6 1.5 -12t0.5 -12q0 -26 -13.5 -44.5t-44.5 -18.5q-14 0 -29 6.5t-35 17.5l-269 141q-18 24 -18 63q0 29 8.5 45t23.5 25l316 160q33 -9 46 -25.5t13 -35.5q0 -26 -13.5 -41t-39.5 -29l-234 -100z" />
    <glyph glyph-name="equal" unicode="=" horiz-adv-x="513" 
d="M53 348q-5 8 -8.5 20.5t-3.5 27.5q0 26 13 39t36 13h370q5 -8 8.5 -21t3.5 -28q0 -27 -13 -39t-36 -12h-370zM53 142q-5 8 -8.5 20.5t-3.5 27.5q0 27 13 39.5t36 12.5h370q5 -8 8.5 -21t3.5 -28q0 -27 -13 -39t-36 -12h-370z" />
    <glyph glyph-name="greater" unicode="&#x3e;" horiz-adv-x="476" 
d="M33 432q-2 5 -2 11.5v11.5q0 26 13.5 44.5t43.5 18.5q15 0 31 -6.5t33 -15.5l265 -141q18 -24 18 -63q0 -29 -8.5 -45t-23.5 -25l-309 -160q-34 9 -47 25.5t-13 36.5q0 26 14 40.5t39 28.5l228 102z" />
    <glyph glyph-name="question" unicode="?" horiz-adv-x="479" 
d="M126 205q-14 10 -24 27t-10 40t12.5 35t38.5 19l73 18q46 11 69.5 34t23.5 61q0 33 -26 58.5t-85 25.5q-41 0 -79 -11.5t-61 -28.5q-14 11 -23.5 25.5t-9.5 34.5q0 21 14 37t38.5 27.5t58.5 17.5t75 6q54 0 97 -14t73 -39.5t45.5 -60.5t15.5 -77q0 -87 -54 -137.5
t-163 -75.5zM103 61q0 33 21 55t56 22t56 -22t21 -55q0 -32 -21 -53.5t-56 -21.5t-56 21.5t-21 53.5z" />
    <glyph glyph-name="at" unicode="@" horiz-adv-x="1036" 
d="M708 104q8 -5 19 -8t23 -3q55 0 84 50t29 129q0 64 -23.5 117t-66 91t-102 59t-131.5 21q-83 0 -150.5 -26t-115.5 -73.5t-74.5 -113t-26.5 -143.5q0 -75 24 -135.5t67 -103.5t102.5 -66t131.5 -23q41 0 70 4t50 9q6 -9 11 -21t5 -24q0 -16 -7 -28.5t-23.5 -21.5
t-44.5 -13.5t-70 -4.5q-86 0 -165 27t-139.5 80.5t-96.5 133.5t-36 187q0 104 36 188t101 143t154 91t196 32q100 0 182.5 -27.5t140.5 -78t90 -122t32 -159.5q0 -132 -60 -204t-174 -72q-31 0 -64.5 9t-60.5 27q-23 -14 -53 -22.5t-68 -8.5q-44 0 -81 13.5t-63 39t-40.5 62
t-14.5 83.5q0 54 17.5 98t49 75t76.5 48t99 17q47 0 83 -11t62 -27q40 -23 40 -58v-12.5t-1 -12.5zM431 199q0 -52 26 -76.5t67 -24.5q38 0 67 23l20 200q-11 6 -27.5 10t-39.5 4q-49 0 -81 -35t-32 -101z" />
    <glyph glyph-name="A" unicode="A" horiz-adv-x="610" 
d="M416 143h-224q-11 -37 -23.5 -77t-20.5 -66q-10 -4 -21.5 -7t-28.5 -3q-34 0 -53 13.5t-19 38.5q0 12 3.5 23.5t8.5 26.5q8 28 21.5 67.5t29 86t33.5 96t34.5 96t32 87t26.5 69.5q13 7 38.5 14t51.5 7q35 0 64 -10.5t37 -33.5q20 -55 44 -126.5t48.5 -147.5t47.5 -149
t41 -131q-10 -11 -27.5 -18.5t-41.5 -7.5q-35 0 -49.5 12.5t-22.5 39.5zM304 501q-9 -25 -19.5 -56t-22 -64.5t-23.5 -68t-23 -67.5h174l-81 256h-5z" />
    <glyph glyph-name="B" unicode="B" horiz-adv-x="609" 
d="M541 451q0 -45 -23.5 -78t-70.5 -53q58 -19 87 -57t29 -90q0 -95 -69 -141t-200 -46q-19 0 -40.5 1t-43.5 3.5t-44 7t-41 10.5q-48 16 -48 59v489q0 19 10 29t28 16q34 11 79 15.5t94 4.5q121 0 187 -41.5t66 -128.5zM431 178q0 40 -28.5 63t-82.5 23h-117v-167
q19 -5 45.5 -7t52.5 -2q61 0 95.5 21.5t34.5 68.5zM203 359h101q54 0 80.5 22t26.5 61q0 79 -122 79q-25 0 -47.5 -2t-38.5 -5v-155z" />
    <glyph glyph-name="C" unicode="C" horiz-adv-x="579" 
d="M537 529q0 -20 -11 -34.5t-25 -22.5q-26 17 -58 31t-79 14q-85 0 -135.5 -55t-50.5 -159q0 -106 52 -159t140 -53q46 0 79.5 12.5t59.5 29.5q14 -9 23 -24.5t9 -35.5q0 -17 -9 -31t-30 -25q-20 -12 -56.5 -22.5t-90.5 -10.5q-66 0 -122.5 19.5t-98.5 59t-66 99.5t-24 141
q0 78 24 137.5t65.5 100t97 61.5t117.5 21q43 0 78 -7.5t60 -20.5t38 -30t13 -36z" />
    <glyph glyph-name="D" unicode="D" horiz-adv-x="659" 
d="M482 306q0 54 -15 93.5t-41.5 65t-63 38t-79.5 12.5q-23 0 -41.5 -1.5t-35.5 -3.5v-411q17 -4 38.5 -5.5t42.5 -1.5q93 0 144 54t51 160zM615 307q0 -81 -23.5 -141.5t-66.5 -100t-103.5 -59.5t-134.5 -20q-17 0 -37 0.5t-41.5 3t-43 6.5t-40.5 11q-48 18 -48 60v490
q0 18 10 28t28 16q37 13 80.5 16.5t82.5 3.5q75 0 137.5 -19.5t106.5 -58.5t68.5 -98t24.5 -138z" />
    <glyph glyph-name="E" unicode="E" horiz-adv-x="540" 
d="M146 -2q-32 0 -50.5 19t-18.5 51v470q0 32 18.5 50.5t50.5 18.5h331q5 -8 9 -21t4 -29q0 -26 -12 -40t-33 -14h-242v-142h244q5 -8 9.5 -20.5t4.5 -28.5q0 -54 -46 -54h-212v-155h278q5 -8 9.5 -21.5t4.5 -29.5q0 -54 -46 -54h-303v0z" />
    <glyph glyph-name="F" unicode="F" horiz-adv-x="524" 
d="M478 607q5 -8 9.5 -21.5t4.5 -29.5q0 -27 -12.5 -41t-33.5 -14h-241v-159h239q5 -8 9.5 -21t4.5 -29q0 -27 -12.5 -40.5t-33.5 -13.5h-205v-237q-9 -2 -25.5 -5t-34.5 -3q-38 0 -54 14t-16 47v484q0 32 18.5 50.5t50.5 18.5h332z" />
    <glyph glyph-name="G" unicode="G" horiz-adv-x="652" 
d="M593 84q0 -25 -10.5 -38.5t-33.5 -25.5q-13 -8 -32.5 -14.5t-43 -11t-48.5 -7.5t-50 -3q-71 0 -131.5 18.5t-105 57.5t-69.5 99t-25 143q0 79 25.5 139.5t70 100.5t103.5 60.5t127 20.5q45 0 81.5 -7.5t63 -20t40.5 -30t14 -36.5q0 -20 -11 -35t-25 -23q-26 17 -63 31.5
t-91 14.5q-44 0 -81 -14.5t-63.5 -41.5t-41.5 -67t-15 -91q0 -55 15 -95t41.5 -66.5t63 -39t79.5 -12.5q29 0 53 5t37 12v139h-128q-5 8 -9 21t-4 29q0 26 12.5 39t32.5 13h168q25 0 39.5 -14t14.5 -39v-211z" />
    <glyph glyph-name="H" unicode="H" horiz-adv-x="663" 
d="M207 1q-9 -2 -25.5 -5t-35.5 -3q-38 0 -53.5 14t-15.5 47v553q8 2 25.5 5t34.5 3q36 0 53 -13t17 -48v-197h250v250q8 2 25.5 5t34.5 3q36 0 53 -13.5t17 -48.5v-552q-9 -2 -25.5 -5t-35.5 -3q-38 0 -53.5 14t-15.5 47v199h-250v-252v0z" />
    <glyph glyph-name="I" unicode="I" horiz-adv-x="284" 
d="M147 -7q-38 0 -54 14t-16 47v553q9 2 26 5t34 3q36 0 53 -13t17 -48v-553q-9 -2 -25.5 -5t-34.5 -3z" />
    <glyph glyph-name="J" unicode="J" horiz-adv-x="399" 
d="M324 164q0 -90 -50 -133.5t-132 -43.5q-55 0 -87 16.5t-32 53.5q0 17 5.5 29t12.5 20q17 -5 34 -9t37 -4q82 0 82 85v429q9 2 26 5t34 3q36 0 53 -13t17 -48v-390v0z" />
    <glyph glyph-name="K" unicode="K" horiz-adv-x="591" 
d="M207 260v-259q-9 -3 -25.5 -5.5t-35.5 -2.5q-38 0 -53.5 13.5t-15.5 47.5v553q8 2 25.5 5t34.5 3q36 0 53 -13t17 -48v-206l240 264q48 0 69.5 -19t21.5 -45q0 -21 -10.5 -37.5t-31.5 -37.5l-169 -168q78 -80 137 -143t100 -101q-1 -33 -21.5 -51.5t-49.5 -18.5t-49 15.5
t-39 35.5z" />
    <glyph glyph-name="L" unicode="L" horiz-adv-x="507" 
d="M146 -2q-32 0 -50.5 19t-18.5 51v539q8 2 25.5 5t34.5 3q36 0 53 -13t17 -48v-449h257q5 -8 10 -21.5t5 -29.5q0 -27 -12.5 -41.5t-34.5 -14.5h-286v0z" />
    <glyph glyph-name="M" unicode="M" horiz-adv-x="789" 
d="M460 153q-10 -8 -26 -13t-37 -5q-26 0 -43.5 6.5t-24.5 23.5q-41 102 -69 174t-45 123h-5q-3 -67 -5.5 -123t-4.5 -109.5t-4.5 -108.5t-6.5 -119q-10 -3 -25 -6t-32 -3q-67 0 -67 50q0 16 1.5 49.5t4 78t6 97.5t7 107t7.5 106.5t7 97.5q8 10 29.5 20.5t55.5 10.5
q38 0 61.5 -12.5t35.5 -41.5q13 -31 27.5 -68t29.5 -76t29.5 -76.5t27.5 -70.5h4q34 94 67.5 182t58.5 149q12 6 31 10t39 4q37 0 59 -11t27 -33q4 -19 9 -60.5t10 -94.5t10 -113t9 -115.5t7 -101.5t4 -72q-13 -8 -27.5 -12t-35.5 -4q-26 0 -45.5 10.5t-21.5 39.5
q-4 63 -7 123.5t-5 114.5t-4 99.5t-3 78.5h-5q-16 -47 -44 -119.5t-71 -186.5z" />
    <glyph glyph-name="N" unicode="N" horiz-adv-x="670" 
d="M144 -7q-37 0 -52 13.5t-15 45.5v533q11 14 32.5 22t47.5 8q31 0 55.5 -11t43.5 -44l144 -259q20 -36 38.5 -74.5t32.5 -70.5l4 1q-5 59 -6.5 114.5t-1.5 109.5v227q8 2 24.5 4.5t33.5 2.5q37 0 52.5 -13.5t15.5 -45.5v-540q-11 -11 -31.5 -17t-48.5 -6q-30 0 -54.5 10.5
t-43.5 43.5l-144 259q-20 35 -38.5 74.5t-32.5 71.5l-6 -1q5 -55 6.5 -113t1.5 -110v-227q-8 -2 -24 -5t-34 -3z" />
    <glyph glyph-name="O" unicode="O" horiz-adv-x="696" 
d="M652 304q0 -78 -23 -138t-63.5 -100.5t-96.5 -61t-121 -20.5t-121 20.5t-96.5 61t-63.5 100.5t-23 138t23.5 137.5t64.5 100t96.5 61t119.5 20.5t119.5 -20.5t96.5 -61t64.5 -100t23.5 -137.5zM519 304q0 104 -46.5 158.5t-124.5 54.5q-77 0 -123.5 -54t-46.5 -159
t46 -159t124 -54t124.5 54t46.5 159z" />
    <glyph glyph-name="P" unicode="P" horiz-adv-x="574" 
d="M207 202v-201q-9 -2 -25.5 -5t-35.5 -3q-38 0 -53.5 14t-15.5 47v502q0 19 10 29t28 16q16 5 35.5 9t40.5 6.5t42 3.5t40 1q132 0 198.5 -56.5t66.5 -152.5t-65 -153t-188 -57h-78zM277 306q60 0 94.5 26t34.5 80q0 52 -32.5 78t-94.5 26q-43 0 -73 -6v-204h71z" />
    <glyph glyph-name="Q" unicode="Q" horiz-adv-x="698" 
d="M652 305q0 -110 -43.5 -182.5t-116.5 -107.5q57 -29 101.5 -45.5t88.5 -31.5q1 -6 1 -10.5v-8.5q0 -39 -20.5 -58t-55.5 -19q-40 0 -90 26t-108 73l-55 44h-6q-65 0 -121 20.5t-96.5 61t-63.5 100.5t-23 138t23.5 137t64.5 99.5t96.5 61t119.5 20.5t119.5 -20.5t96.5 -61
t64.5 -99.5t23.5 -137zM519 305q0 104 -46.5 158t-124.5 54q-77 0 -123.5 -54t-46.5 -158q0 -106 46 -159.5t124 -53.5t124.5 53.5t46.5 159.5z" />
    <glyph glyph-name="R" unicode="R" horiz-adv-x="599" 
d="M207 1q-9 -2 -25.5 -5t-35.5 -3q-38 0 -53.5 14t-15.5 47v502q0 19 10 29t28 16q32 11 75.5 15.5t89.5 4.5q132 0 198 -54.5t66 -150.5q0 -63 -33 -109.5t-91 -71.5q44 -57 84.5 -108.5t60.5 -80.5q-8 -26 -28 -40.5t-44 -14.5q-31 0 -47.5 14t-32.5 38l-113 169h-93
v-211zM287 314q57 0 91.5 25t34.5 76q0 101 -135 101q-20 0 -38.5 -2t-34.5 -4v-196h82z" />
    <glyph glyph-name="S" unicode="S" horiz-adv-x="537" 
d="M254 91q58 0 85 22.5t27 56.5q0 31 -21 49.5t-64 31.5l-64 20q-38 12 -69 27t-53 35.5t-34 48t-12 65.5q0 81 61 128.5t167 47.5q42 0 77.5 -6.5t61.5 -18t40.5 -28.5t14.5 -38q0 -20 -9.5 -34.5t-23.5 -23.5q-24 17 -63.5 29.5t-86.5 12.5q-52 0 -79 -18.5t-27 -50.5
q0 -26 18.5 -40t58.5 -27l57 -18q87 -26 135 -71t48 -122q0 -41 -16 -75t-46.5 -58.5t-76 -38t-103.5 -13.5q-46 0 -84.5 8t-66.5 21.5t-43.5 32t-15.5 40.5q0 23 13.5 39.5t31.5 24.5q25 -22 66 -40.5t96 -18.5z" />
    <glyph glyph-name="T" unicode="T" horiz-adv-x="540" 
d="M504 607q5 -8 9.5 -21.5t4.5 -29.5q0 -27 -12.5 -41t-34.5 -14h-138v-500q-8 -2 -25 -5t-35 -3q-38 0 -54 14t-16 47v447h-168q-5 9 -9.5 22t-4.5 29q0 28 12.5 41.5t34.5 13.5h436v0z" />
    <glyph glyph-name="U" unicode="U" horiz-adv-x="657" 
d="M328 -16q-60 0 -107 16.5t-79.5 47t-49.5 73t-17 95.5v391q8 2 25.5 5t34.5 3q36 0 52.5 -13t16.5 -48v-333q0 -63 35 -96.5t89 -33.5t89 33.5t35 96.5v386q9 2 26 5t34 3q36 0 53 -13t17 -48v-338q0 -53 -17 -95.5t-50 -73t-80 -47t-107 -16.5z" />
    <glyph glyph-name="V" unicode="V" horiz-adv-x="609" 
d="M389 14q-10 -8 -32 -15t-48 -7q-31 0 -54 9t-31 26q-12 24 -28.5 63t-35 86.5t-37.5 101t-37.5 107t-34.5 104t-27 93.5q10 11 29.5 20t42.5 9q28 0 43.5 -12.5t25.5 -42.5q35 -112 69.5 -218t73.5 -217h5q18 51 36.5 109t36.5 119.5t35.5 124t32.5 123.5q26 14 61 14
q28 0 46.5 -12.5t18.5 -41.5q0 -18 -11 -60t-28 -95.5t-38.5 -113.5t-43 -114.5t-40 -97t-30.5 -62.5z" />
    <glyph glyph-name="W" unicode="W" horiz-adv-x="834" 
d="M352 458q10 5 27.5 9.5t36.5 4.5q32 0 52.5 -9.5t25.5 -28.5q15 -48 27.5 -89t24.5 -79.5t23 -76t22 -77.5h4q12 64 22 124t20 119t18.5 119t17.5 124q26 14 57 14q28 0 47.5 -12.5t19.5 -40.5q0 -20 -5 -60t-13.5 -90t-20 -106.5t-24 -110t-25 -99.5t-24.5 -75
q-12 -10 -36 -17t-51 -7q-35 0 -59.5 10.5t-29.5 27.5q-9 23 -19.5 54.5t-22 68.5t-23.5 77.5t-23 82.5q-11 -41 -22.5 -83.5t-22.5 -82t-22 -74t-20 -58.5q-11 -9 -33.5 -16t-49.5 -7q-34 0 -60 10.5t-34 27.5q-9 20 -20 57t-23 84.5t-24 102.5t-23 109.5t-20.5 106
t-14.5 93.5q11 10 29 18.5t41 8.5q28 0 45.5 -13t22.5 -42q15 -83 26 -146.5t20.5 -115.5t18 -96t17.5 -87h5q11 43 21.5 80t21.5 76t23.5 84.5t28.5 105.5z" />
    <glyph glyph-name="X" unicode="X" horiz-adv-x="596" 
d="M295 219l-155 -225q-6 -1 -12.5 -1.5t-12.5 -0.5q-38 0 -58 16.5t-20 42.5q0 21 9.5 37.5t26.5 38.5l139 180l-176 245q7 23 27 42t52 19q22 0 39 -12t34 -38l112 -166l146 209q13 5 36 5q33 0 51.5 -16t18.5 -40q0 -20 -10 -36t-27 -38q-33 -43 -67 -86t-69 -87
l184 -255q-7 -28 -26 -44.5t-51 -16.5q-23 0 -39 11.5t-33 38.5z" />
    <glyph glyph-name="Y" unicode="Y" horiz-adv-x="562" 
d="M543 557q0 -11 -11 -36.5t-34 -67.5t-59 -102t-87 -139v-211q-8 -2 -24.5 -5t-34.5 -3q-38 0 -53 14t-15 46v158q-27 39 -57 86t-59 95t-54 94.5t-42 84.5q8 15 25 27.5t43 12.5q29 0 46.5 -13t34.5 -45q8 -14 25.5 -46.5t37 -68.5t37 -68t24.5 -44h5q19 37 36 70.5
t33 66t31.5 66t32.5 69.5q12 7 27.5 10t29.5 3q27 0 44.5 -14t17.5 -40z" />
    <glyph glyph-name="Z" unicode="Z" horiz-adv-x="559" 
d="M71 0q-13 11 -21 28t-8 38q0 20 9.5 39t23.5 37l280 359h-291q-5 9 -9.5 22t-4.5 30q0 28 12.5 42t35.5 14h383q32 -27 32 -68q0 -20 -8.5 -38t-22.5 -36l-281 -360h304q5 -9 10 -22t5 -30q0 -28 -12.5 -41.5t-34.5 -13.5h-402v0z" />
    <glyph glyph-name="bracketleft" unicode="[" horiz-adv-x="286" 
d="M267 655q5 -8 8.5 -20t3.5 -26q0 -26 -12.5 -38t-33.5 -12h-59v-584h93q5 -8 8.5 -20t3.5 -26q0 -26 -12.5 -38t-33.5 -12h-117q-30 0 -44.5 17t-14.5 42v658q0 25 14.5 42t44.5 17h151z" />
    <glyph glyph-name="backslash" unicode="\" horiz-adv-x="351" 
d="M324 -33q-11 -11 -29.5 -19t-35.5 -8q-21 0 -35.5 8.5t-20.5 31.5l-182 660q11 11 29.5 19.5t35.5 8.5q20 0 35 -9t21 -32z" />
    <glyph glyph-name="bracketright" unicode="]" horiz-adv-x="294" 
d="M19 -121q-5 8 -8.5 20t-3.5 26q0 26 12.5 38t33.5 12h59v584h-93q-5 8 -8.5 20t-3.5 26q0 26 12.5 38t33.5 12h117q30 0 44.5 -17t14.5 -42v-658q0 -25 -14.5 -42t-44.5 -17h-151z" />
    <glyph glyph-name="asciicircum" unicode="^" horiz-adv-x="476" 
d="M173 644q9 7 26 12t38 5q24 0 41 -6.5t25 -20.5q12 -20 30 -56.5t37 -78t35.5 -83.5t26.5 -73q-9 -10 -24.5 -18t-33.5 -8q-24 0 -37.5 9.5t-24.5 37.5l-76 186h-5q-6 -16 -16.5 -42t-22 -56.5t-22.5 -62.5t-19 -60q-24 -13 -54 -13q-22 0 -37.5 10t-15.5 35
q0 10 7.5 31.5t19 49t26 58t29 58.5t27 51t20.5 35z" />
    <glyph glyph-name="underscore" unicode="_" horiz-adv-x="488" 
d="M12 -156q-5 8 -8.5 20t-3.5 28q0 26 13 39t35 13h428q4 -8 8 -21.5t4 -27.5q0 -27 -13.5 -39t-35.5 -12h-427z" />
    <glyph glyph-name="grave" unicode="`" horiz-adv-x="302" 
d="M38 640q-2 10 -2 18q0 27 16 42.5t40 15.5q32 0 55 -27l89 -112q-2 -26 -17.5 -39.5t-34.5 -13.5q-17 0 -28 5t-22 16z" />
    <glyph glyph-name="a" unicode="a" horiz-adv-x="522" 
d="M250 81q29 0 53 5.5t35 13.5v111l-97 -9q-40 -4 -61 -17.5t-21 -42.5t21.5 -45t69.5 -16zM246 488q98 0 156.5 -42t58.5 -130v-231q0 -24 -12 -38t-30 -25q-28 -17 -71 -27t-98 -10q-100 0 -157.5 38.5t-57.5 115.5q0 67 42.5 102.5t123.5 43.5l137 14v18q0 38 -27.5 56
t-77.5 18q-39 0 -76 -9.5t-66 -23.5q-11 8 -18.5 21.5t-7.5 29.5q0 20 9.5 32.5t30.5 22.5q29 12 66 18t75 6z" />
    <glyph glyph-name="b" unicode="b" horiz-adv-x="570" 
d="M302 488q48 0 89.5 -15.5t72.5 -47t48.5 -78t17.5 -109.5t-18 -110t-51 -79t-79.5 -48t-103.5 -16q-58 0 -101 14t-71 33q-21 14 -31 30.5t-10 39.5v548q8 3 23.5 5.5t34.5 2.5q35 0 52 -13t17 -46v-137q21 11 48.5 18.5t61.5 7.5zM280 388q-27 0 -49.5 -9t-39.5 -20
v-250q13 -8 35 -15.5t51 -7.5q56 0 90 37.5t34 114.5q0 78 -33.5 114t-87.5 36z" />
    <glyph glyph-name="c" unicode="c" horiz-adv-x="484" 
d="M308 387q-30 0 -55.5 -10t-44 -29t-29.5 -47t-11 -65q0 -74 39 -111.5t101 -37.5q35 0 60.5 9.5t45.5 20.5q14 -10 22.5 -23t8.5 -30q0 -34 -40 -56t-108 -22q-57 0 -104.5 15.5t-81.5 47t-52.5 78.5t-18.5 109q0 63 20 110.5t54.5 79t80.5 47t98 15.5q67 0 107 -23.5
t40 -57.5q0 -16 -8.5 -29t-19.5 -21q-20 11 -44.5 20.5t-59.5 9.5z" />
    <glyph glyph-name="d" unicode="d" horiz-adv-x="567" 
d="M502 92q0 -23 -10 -37t-30 -27q-25 -16 -66 -29.5t-95 -13.5q-120 0 -190.5 61.5t-70.5 188.5q0 66 19 113.5t51.5 78.5t76.5 46t95 15q27 0 51 -5.5t43 -13.5v181q8 3 23.5 5.5t33.5 2.5q36 0 52.5 -13t16.5 -46v-507zM376 367q-15 9 -35 15t-43 6q-56 0 -93 -36
t-37 -118q0 -77 35.5 -112.5t96.5 -35.5q26 0 44.5 6t31.5 14v261z" />
    <glyph glyph-name="e" unicode="e" horiz-adv-x="534" 
d="M166 180q14 -51 52 -74t94 -23q42 0 77.5 12.5t57.5 26.5q14 -8 23 -22t9 -30q0 -20 -13.5 -35.5t-37 -26.5t-55.5 -17t-69 -6q-59 0 -107.5 16t-83 48.5t-54 80.5t-19.5 112q0 62 19 108t51.5 77t75.5 46t91 15q49 0 90 -15.5t70 -43t45.5 -66t16.5 -83.5
q0 -28 -14.5 -42t-40.5 -18zM277 393q-49 0 -82 -32.5t-37 -92.5l222 33q-4 37 -29 64.5t-74 27.5z" />
    <glyph glyph-name="f" unicode="f" horiz-adv-x="415" 
d="M186 442h181q5 -8 9 -20.5t4 -27.5q0 -26 -12 -38t-32 -12h-144v-343q-9 -2 -24 -5t-34 -3q-35 0 -52 13t-17 46v442q0 48 15 82t42 56t64 32.5t81 10.5q133 0 133 -70q0 -16 -6.5 -28.5t-15.5 -20.5q-19 8 -42.5 13t-49.5 5q-52 0 -76 -20t-24 -65v-47z" />
    <glyph glyph-name="g" unicode="g" horiz-adv-x="551" 
d="M368 41q-20 -10 -46.5 -17t-61.5 -7q-45 0 -85 12.5t-70 40.5t-47.5 72.5t-17.5 108.5q0 58 17.5 102.5t50 74.5t77.5 45t100 15q52 0 95.5 -13t69.5 -30q18 -12 28.5 -27t10.5 -38v-386q0 -51 -18.5 -88t-50.5 -60.5t-75 -34.5t-93 -11q-52 0 -90.5 9.5t-57.5 21.5
q-33 21 -33 56q0 19 8 33t19 21q26 -16 63 -28t79 -12q60 0 94 23t34 74v43zM281 115q29 0 49.5 8t35.5 19v226q-14 8 -32.5 14t-44.5 6q-55 0 -88.5 -33.5t-33.5 -103.5q0 -38 8.5 -64t24 -42t36.5 -23t45 -7z" />
    <glyph glyph-name="h" unicode="h" horiz-adv-x="569" 
d="M192 1q-9 -2 -24 -5t-34 -3q-35 0 -52 13t-17 46v598q8 3 23.5 5.5t34.5 2.5q35 0 52 -13t17 -46v-138q22 11 50.5 19t63.5 8q91 0 145 -47t54 -142v-298q-8 -2 -23.5 -5t-33.5 -3q-36 0 -53 13t-17 46v241q0 50 -26 72.5t-68 22.5q-27 0 -50 -8.5t-42 -20.5v-358v0z" />
    <glyph glyph-name="i" unicode="i" horiz-adv-x="262" 
d="M68 470q8 2 23.5 5t33.5 3q36 0 52.5 -13t16.5 -46v-418q-8 -2 -23.5 -5t-33.5 -3q-36 0 -52.5 13t-16.5 46v418zM58 615q0 29 20.5 49.5t52.5 20.5t52 -20.5t20 -49.5q0 -30 -20 -50.5t-52 -20.5t-52.5 20.5t-20.5 50.5z" />
    <glyph glyph-name="j" unicode="j" horiz-adv-x="266" 
d="M-1 -123q18 8 31.5 17.5t23 22.5t14 30.5t4.5 41.5v481q8 2 23.5 5t33.5 3q36 0 52.5 -13t16.5 -46v-445q0 -47 -11.5 -79t-30 -52t-41 -29t-44.5 -9q-35 0 -52.5 20.5t-19.5 51.5zM59 615q0 29 20.5 49.5t52.5 20.5t52.5 -20.5t20.5 -49.5q0 -30 -20.5 -50.5
t-52.5 -20.5t-52.5 20.5t-20.5 50.5z" />
    <glyph glyph-name="k" unicode="k" horiz-adv-x="522" 
d="M192 1q-9 -2 -24 -5t-34 -3q-35 0 -52 13t-17 46v598q8 3 23.5 5.5t34.5 2.5q35 0 52 -13t17 -46v-310l194 193q38 0 61 -17t23 -43q0 -23 -14.5 -40t-45.5 -43l-108 -94l191 -179q-4 -35 -21 -54.5t-49 -19.5q-23 0 -40.5 11t-42.5 39l-148 164v-205v0z" />
    <glyph glyph-name="l" unicode="l" horiz-adv-x="266" 
d="M196 1q-8 -2 -23.5 -5t-33.5 -3q-36 0 -52.5 13t-16.5 46v598q8 3 23.5 5.5t33.5 2.5q36 0 52.5 -13t16.5 -46v-598v0z" />
    <glyph glyph-name="m" unicode="m" horiz-adv-x="832" 
d="M768 1q-8 -2 -23.5 -5t-33.5 -3q-36 0 -52.5 13t-16.5 46v260q0 40 -22 58t-58 18q-24 0 -46.5 -9t-39.5 -24q3 -14 3 -28v-326q-8 -2 -23.5 -5t-33.5 -3q-36 0 -52.5 13t-16.5 46v260q0 40 -23 58t-59 18q-25 0 -46 -8t-35 -16v-363q-9 -2 -24 -5t-34 -3q-35 0 -52 13
t-17 46v321q0 23 10 38.5t31 29.5q30 20 76 33.5t95 13.5q91 0 148 -49q29 21 66.5 35t88.5 14q39 0 74 -9.5t60.5 -30.5t40.5 -53.5t15 -77.5v-316z" />
    <glyph glyph-name="n" unicode="n" horiz-adv-x="567" 
d="M377 305q0 43 -24.5 63t-66.5 20q-29 0 -53.5 -7t-42.5 -18v-362q-9 -2 -24 -5t-34 -3q-35 0 -52 13t-17 46v321q0 24 10 39t31 29q29 20 77 33.5t106 13.5q103 0 159.5 -45.5t56.5 -133.5v-308q-8 -2 -23.5 -5t-33.5 -3q-36 0 -52.5 13t-16.5 46v253v0z" />
    <glyph glyph-name="o" unicode="o" horiz-adv-x="570" 
d="M530 237q0 -58 -17.5 -104.5t-49.5 -79.5t-77 -50.5t-101 -17.5t-101 17.5t-77 50t-49.5 79t-17.5 105.5q0 58 17.5 104.5t50 79t77.5 50t100 17.5t100 -17.5t77.5 -50.5t50 -79.5t17.5 -103.5zM285 388q-54 0 -85 -39.5t-31 -111.5q0 -73 30.5 -112t85.5 -39t85.5 39.5
t30.5 111.5t-31 111.5t-85 39.5z" />
    <glyph glyph-name="p" unicode="p" horiz-adv-x="566" 
d="M288 -14q-29 0 -53.5 5.5t-44.5 13.5v-184q-9 -2 -24 -5t-34 -3q-35 0 -52 13t-17 46v507q0 24 9.5 39t30.5 28q29 17 72 29.5t97 12.5q55 0 101.5 -14.5t80.5 -45t53 -77.5t19 -112q0 -63 -18 -110t-49.5 -79t-75 -48t-95.5 -16zM269 87q60 0 94 37t34 115q0 81 -35 115
t-90 34q-27 0 -47.5 -7t-35.5 -15v-257q16 -10 35.5 -16t44.5 -6z" />
    <glyph glyph-name="q" unicode="q" horiz-adv-x="567" 
d="M503 -182q-8 -2 -23.5 -5t-33.5 -3q-36 0 -52.5 13t-16.5 46v136q-19 -8 -43.5 -14t-54.5 -6q-52 0 -96 15.5t-75.5 46.5t-49.5 78t-18 110t19 110.5t53 79t81 47.5t104 16q53 0 97.5 -12.5t70.5 -29.5q17 -11 27.5 -26.5t10.5 -38.5v-563zM297 86q25 0 45 6t35 17v259
q-13 8 -32 14t-45 6q-58 0 -95 -36.5t-37 -116.5q0 -78 34.5 -113.5t94.5 -35.5z" />
    <glyph glyph-name="r" unicode="r" horiz-adv-x="397" 
d="M190 1q-9 -2 -24 -5t-34 -3q-35 0 -52 13t-17 46v317q0 26 12 44t35 32q31 19 76.5 31t98.5 12q95 0 95 -59q0 -14 -4.5 -26.5t-9.5 -20.5q-23 5 -57 5q-35 0 -66 -8t-53 -20v-358z" />
    <glyph glyph-name="s" unicode="s" horiz-adv-x="470" 
d="M432 134q0 -70 -52 -109.5t-152 -39.5q-41 0 -74.5 6t-58 17.5t-38 28t-13.5 36.5q0 19 8.5 33t22.5 23q28 -18 64.5 -32t84.5 -14q41 0 62 13.5t21 37.5q0 41 -60 54l-56 13q-74 17 -109.5 51t-35.5 91q0 65 52 105.5t146 40.5q36 0 66.5 -5.5t53 -16t35 -25t12.5 -33.5
q0 -18 -8 -31.5t-19 -21.5q-9 6 -23.5 12t-32 11t-37 8.5t-38.5 3.5q-39 0 -61 -12.5t-22 -35.5q0 -17 12.5 -28t43.5 -18l49 -12q83 -19 120 -55.5t37 -95.5z" />
    <glyph glyph-name="t" unicode="t" horiz-adv-x="385" 
d="M190 147q0 -32 19.5 -46t54.5 -14q17 0 34.5 4t31.5 10q8 -8 13.5 -19.5t5.5 -26.5q0 -30 -27 -49.5t-87 -19.5q-79 0 -124.5 35.5t-45.5 117.5v459q8 2 23.5 5t33.5 3q35 0 51.5 -13t16.5 -46v-83h147q5 -8 9 -21t4 -28q0 -26 -12 -38t-32 -12h-116v-218v0z" />
    <glyph glyph-name="u" unicode="u" horiz-adv-x="566" 
d="M503 93q0 -23 -8 -38.5t-29 -27.5q-29 -18 -73.5 -30t-101.5 -12q-52 0 -94 11.5t-72 35.5t-46 61t-16 88v291q8 3 23.5 5.5t34.5 2.5q35 0 52 -12.5t17 -46.5v-238q0 -52 26.5 -74.5t75.5 -22.5q31 0 52.5 6t32.5 13v367q8 3 23.5 5.5t33.5 2.5q36 0 52.5 -12.5
t16.5 -46.5v-328v0z" />
    <glyph glyph-name="v" unicode="v" horiz-adv-x="521" 
d="M430 484q26 0 43.5 -12t17.5 -40q0 -13 -7.5 -42t-20 -67t-28.5 -82t-33 -86.5t-34 -80.5t-31 -64q-10 -8 -30 -13t-44 -5q-29 0 -49.5 7.5t-29.5 24.5t-22 47t-28 68t-31 80.5t-30.5 84.5t-27 81t-20.5 70q10 12 28.5 20.5t38.5 8.5q26 0 42.5 -12t25.5 -43l50 -165
q6 -20 13.5 -42.5t14.5 -44t13.5 -41t10.5 -32.5h4q29 88 57 181.5t49 184.5q12 7 27.5 10.5t30.5 3.5z" />
    <glyph glyph-name="w" unicode="w" horiz-adv-x="761" 
d="M384 307q-11 -41 -23.5 -83t-25 -81.5t-24 -73.5t-19.5 -58q-11 -8 -28 -13.5t-43 -5.5q-29 0 -50.5 8.5t-29.5 25.5q-12 24 -27 76.5t-31 115t-29.5 127t-22.5 112.5q10 10 27.5 18.5t38.5 8.5q28 0 44 -13.5t21 -43.5q19 -120 36 -203.5t24 -113.5h4q4 17 13.5 50
t22 76t27 92t29.5 99q14 8 29.5 12.5t36.5 4.5q27 0 45.5 -9t24.5 -27q15 -48 28.5 -94t24.5 -85.5t19.5 -70.5t13.5 -48h5q17 83 35.5 173t31.5 186q12 7 27 11t30 4q26 0 42.5 -12t16.5 -39q0 -14 -6 -45.5t-15.5 -72t-21 -86t-23.5 -88t-23 -77t-19 -53.5
q-10 -8 -30.5 -13.5t-44.5 -5.5q-63 0 -75 31q-8 22 -19 54t-22.5 70t-23 79t-21.5 81z" />
    <glyph glyph-name="x" unicode="x" horiz-adv-x="503" 
d="M70 116q26 32 52.5 63t53.5 63q-38 45 -72.5 87.5t-70.5 87.5q6 29 23.5 46.5t43.5 17.5q25 0 39 -12t31 -34q20 -28 41.5 -58t44.5 -60q32 42 61.5 81t60.5 82q5 1 8 1h7q34 0 54 -15t20 -39q0 -19 -8.5 -34t-30.5 -40l-97 -113q36 -48 72 -93.5t72 -92.5
q-4 -29 -22 -46t-44 -17q-28 1 -45 16t-34 39q-20 28 -41 57t-41 58q-31 -42 -61 -84t-59 -84h-18q-37 0 -56.5 16t-19.5 39q0 16 8 29.5t28 38.5z" />
    <glyph glyph-name="y" unicode="y" horiz-adv-x="521" 
d="M148 114q-24 50 -57 135t-66 206q10 12 28 20.5t39 8.5q26 0 42.5 -12t26.5 -43q47 -151 107 -306h4q13 33 27.5 75t28 88t25.5 93t21 91q12 6 25.5 10t28.5 4q26 0 45 -12t19 -39q0 -30 -13 -84.5t-34.5 -117t-48.5 -126t-54 -111.5q-52 -92 -94.5 -137.5t-83.5 -45.5
q-32 0 -51.5 18.5t-24.5 46.5q16 14 34 32.5t36 39.5t34 43t28 43q-9 3 -17.5 7.5t-17 13.5t-18 23t-19.5 36z" />
    <glyph glyph-name="z" unicode="z" horiz-adv-x="475" 
d="M65 0q-12 11 -19 25t-7 31t7.5 31.5t18.5 28.5l212 258h-220q-5 8 -9 21.5t-4 28.5q0 26 12 38t32 12h318q12 -11 19 -25t7 -32q0 -16 -7.5 -30.5t-18.5 -28.5l-211 -259h233q5 -8 9 -21t4 -28q0 -26 -12 -38t-32 -12h-332z" />
    <glyph glyph-name="braceleft" unicode="{" horiz-adv-x="310" 
d="M162 270q61 -31 61 -124v-120q0 -35 15 -49.5t41 -17.5q2 -7 2 -13.5v-12.5q0 -30 -16.5 -44t-45.5 -14q-49 0 -80 32.5t-31 98.5v113q0 48 -17.5 73.5t-53.5 33.5q-3 9 -5 21t-2 23q0 12 2 24t5 21q36 8 53.5 33.5t17.5 73.5v108q0 66 32 98t81 32q29 0 44.5 -13.5
t15.5 -45.5v-12t-2 -13q-26 -3 -41 -17.5t-15 -49.5v-115q0 -94 -61 -124z" />
    <glyph glyph-name="bar" unicode="|" horiz-adv-x="266" 
d="M190 -174q-9 -3 -23 -5t-29 -2q-30 0 -45.5 11t-15.5 44v801q19 7 51 7q30 0 46 -11t16 -45v-800z" />
    <glyph glyph-name="braceright" unicode="}" horiz-adv-x="310" 
d="M148 270q-61 30 -61 124v115q0 35 -15 49.5t-41 17.5q-2 7 -2 13v12q0 32 15.5 45.5t44.5 13.5q49 0 81 -32t32 -98v-108q0 -48 17.5 -73.5t53.5 -33.5q3 -9 5 -21t2 -24q0 -11 -2 -23t-5 -21q-36 -8 -53.5 -33.5t-17.5 -73.5v-113q0 -66 -31 -98.5t-80 -32.5
q-29 0 -45.5 14t-16.5 44v12.5t2 13.5q26 3 41 17.5t15 49.5v120q0 93 61 124z" />
    <glyph glyph-name="asciitilde" unicode="~" horiz-adv-x="476" 
d="M319 298q26 0 38 13.5t21 29.5q32 0 55 -19t23 -51q0 -42 -31 -64t-77 -22q-27 0 -52 6t-48 12.5t-45.5 12.5t-44.5 6q-26 0 -38.5 -14.5t-20.5 -28.5q-32 0 -55 19t-23 51q0 21 9 37.5t24 27t34.5 16t40.5 5.5q28 0 53 -6t48.5 -12.5t45.5 -12.5t43 -6z" />
    <glyph glyph-name="uni00A0" unicode="&#xa0;" horiz-adv-x="200" 
 />
    <glyph glyph-name="exclamdown" unicode="&#xa1;" horiz-adv-x="275" 
d="M73 -107q0 27 1 71.5t3 95t5.5 102t8.5 91.5q8 6 22.5 9.5t26.5 3.5q21 0 35.5 -7.5t17.5 -27.5q3 -26 6 -73.5t5 -102t3 -109t1 -94.5q-32 -19 -71 -19q-30 0 -47 15t-17 45zM216 402q0 -33 -21 -54.5t-56 -21.5t-56 21.5t-21 54.5t21 54.5t56 21.5t56 -21.5t21 -54.5z
" />
    <glyph glyph-name="cent" unicode="&#xa2;" horiz-adv-x="484" 
d="M307 387q-30 0 -55.5 -10t-44 -29t-29.5 -47t-11 -65q0 -74 39 -111.5t101 -37.5q35 0 60.5 9.5t45.5 20.5q14 -10 22.5 -23t8.5 -30q0 -31 -33 -51.5t-90 -25.5v-84q-7 -2 -20.5 -4t-29.5 -2q-32 0 -47 11.5t-15 40.5v47q-79 20 -124.5 80t-45.5 160q0 50 13 90t35.5 70
t53.5 50t68 31v96q7 2 20.5 4t29.5 2q32 0 47 -11.5t15 -40.5v-41q54 -5 86 -27t32 -52q0 -16 -8.5 -29t-19.5 -21q-20 11 -44.5 20.5t-59.5 9.5z" />
    <glyph glyph-name="sterling" unicode="&#xa3;" horiz-adv-x="504" 
d="M130 224q0 6 -0.5 12.5t-0.5 14.5h-39q-19 0 -31 11.5t-12 39.5q0 14 4.5 27t8.5 21h59q-2 17 -3 33.5t-1 30.5q0 55 17 94.5t46.5 65t69 37.5t84.5 12q66 0 99.5 -21.5t33.5 -54.5q0 -14 -7 -29.5t-19 -22.5q-20 12 -40.5 18.5t-49.5 6.5q-54 0 -81.5 -27t-27.5 -87
q0 -12 0.5 -26t1.5 -30h161q4 -8 8.5 -21t4.5 -27q0 -28 -12 -39.5t-32 -11.5h-120q1 -8 1 -15.5v-13.5q0 -79 -42 -122h256q5 -9 8.5 -21.5t3.5 -27.5q0 -26 -12 -38.5t-32 -12.5h-335q-23 0 -39.5 16.5t-16.5 46.5v7.5t1 7.5q43 19 64 51t21 95z" />
    <glyph glyph-name="currency" unicode="&#xa4;" horiz-adv-x="546" 
d="M471 294q0 -38 -10.5 -69.5t-30.5 -54.5l56 -66q-10 -23 -24.5 -33.5t-30.5 -10.5q-15 0 -28.5 13t-24.5 27l-16 19q-43 -17 -91 -17q-49 0 -91 17l-50 -65q-23 5 -41 17t-18 32q0 13 7.5 26.5t19.5 28.5l11 14q-18 23 -28 53.5t-10 68.5q0 74 39 122l-53 64
q10 23 24.5 33.5t31.5 10.5q14 0 27.5 -13t25.5 -27l12 -15q42 18 92 18q52 0 97 -20l49 63q23 -5 41 -17t18 -32q0 -14 -7.5 -27t-19.5 -28l-12 -16q17 -23 26 -52t9 -64zM362 294q0 51 -25 78t-66 27q-42 0 -67 -27t-25 -78t25 -78t67 -27q41 0 66 27t25 78z" />
    <glyph glyph-name="yen" unicode="&#xa5;" horiz-adv-x="572" 
d="M67 267q-12 15 -12 41q0 23 10 33t25 10h73q-38 60 -73 120t-55 106q10 14 26.5 25t39.5 11q29 0 45 -12.5t34 -44.5l110 -195h6q18 34 32.5 61.5t27.5 55t27 56.5t32 66q26 13 58 13q26 0 42 -14t16 -38q0 -17 -28 -68.5t-83 -141.5h94q4 -9 7.5 -19.5t3.5 -23.5
q0 -21 -10.5 -31t-26.5 -10h-421zM354 124v-123q-8 -2 -24.5 -5t-34.5 -3q-37 0 -53 14t-16 46v71h-159q-12 15 -12 42q0 24 10 33t25 9h423q4 -8 7.5 -19t3.5 -23q0 -22 -10.5 -32t-25.5 -10h-134z" />
    <glyph glyph-name="brokenbar" unicode="&#xa6;" horiz-adv-x="293" 
d="M190 312q-9 -3 -23 -5t-29 -2q-30 0 -45.5 11t-15.5 44v316q8 2 22 4.5t29 2.5q30 0 46 -11.5t16 -44.5v-315zM190 -174q-9 -3 -23 -5t-29 -2q-30 0 -45.5 11t-15.5 44v316q8 2 22 4.5t29 2.5q30 0 46 -11.5t16 -44.5v-315z" />
    <glyph glyph-name="section" unicode="&#xa7;" horiz-adv-x="526" 
d="M471 280q0 -31 -13.5 -56t-33.5 -42q47 -32 47 -94q0 -68 -56 -106.5t-165 -38.5q-42 0 -77.5 6t-61.5 17.5t-40.5 28t-14.5 37.5q0 19 8.5 32t21.5 22q31 -18 70 -31.5t90 -13.5q100 0 100 48q0 20 -15.5 30t-51.5 17l-75 14q-71 13 -109.5 46t-38.5 95q0 31 13 54
t36 40q-22 17 -33.5 40.5t-11.5 57.5q0 67 54 103.5t145 36.5q37 0 69.5 -5t57 -15t38.5 -25t14 -34q0 -18 -7 -31.5t-18 -21.5q-11 6 -27.5 12t-36 11.5t-40.5 8.5t-41 3q-40 0 -62 -11.5t-22 -34.5q0 -20 14 -29t43 -14l72 -13q77 -14 117.5 -48.5t40.5 -95.5zM236 240
q32 -7 50 -10.5t26 -5.5l10 -2.5l2 -0.5q13 11 20 24t7 30q0 43 -72 57l-78 14q-25 -19 -25 -52q0 -20 14.5 -34t45.5 -20z" />
    <glyph glyph-name="dieresis" unicode="&#xa8;" horiz-adv-x="374" 
d="M159 618q0 -27 -19.5 -46t-48.5 -19q-30 0 -48.5 19t-18.5 46q0 28 18.5 47t48.5 19q29 0 48.5 -19t19.5 -47zM353 618q0 -27 -19 -46t-48 -19t-48.5 19t-19.5 46q0 28 19.5 47t48.5 19t48 -19t19 -47z" />
    <glyph glyph-name="copyright" unicode="&#xa9;" horiz-adv-x="713" 
d="M44 303q0 65 22.5 122t63.5 99t98 66t127 24q69 0 127 -24t99.5 -66t64.5 -99t23 -122t-23 -120.5t-64.5 -96.5t-99.5 -64.5t-127 -23.5q-70 0 -127 23.5t-98 64.5t-63.5 96.5t-22.5 120.5zM355 542q-53 0 -94.5 -18t-71 -49.5t-45 -75.5t-15.5 -96q0 -51 15.5 -93.5
t45 -73t71 -47.5t94.5 -17t95 17t71 47.5t44.5 73t15.5 93.5q0 52 -15.5 96t-44.5 75.5t-71 49.5t-95 18zM386 396q-35 0 -60.5 -21.5t-25.5 -66.5q0 -44 24.5 -67t62.5 -23q23 0 38 5.5t26 12.5q21 -15 21 -41q0 -20 -26 -36.5t-73 -16.5q-35 0 -65 10.5t-52.5 31.5
t-35.5 52t-13 72q0 42 15 73.5t38.5 51.5t52.5 30t58 10q43 0 70 -16t27 -41q0 -11 -6 -21t-15 -17q-11 6 -26 12t-35 6z" />
    <glyph glyph-name="ordfeminine" unicode="&#xaa;" horiz-adv-x="354" 
d="M169 363q17 0 32 3t23 8v66l-57 -6q-55 -5 -55 -34q0 -37 57 -37zM165 622q64 0 103.5 -26.5t39.5 -88.5v-150q0 -14 -8 -22.5t-20 -15.5q-41 -23 -111 -23q-66 0 -103.5 24.5t-37.5 75.5q0 45 27.5 68.5t84.5 28.5l84 9v5q0 26 -17 36.5t-52 10.5q-25 0 -50 -6.5
t-42 -16.5q-8 5 -13.5 15t-5.5 21q0 14 6.5 22.5t20.5 15.5q17 8 43 12.5t51 4.5z" />
    <glyph glyph-name="guillemotleft" unicode="&#xab;" horiz-adv-x="523" 
d="M267 88q0 -22 -14.5 -40t-44.5 -18q-17 0 -31.5 10t-28.5 24l-104 110q-5 9 -8.5 21.5t-3.5 25.5q0 25 6 39t16 23l146 146q29 -8 43.5 -23t14.5 -34q0 -17 -7.5 -30t-29.5 -35l-85 -84zM487 88q0 -22 -14.5 -40t-43.5 -18q-18 0 -32 10t-28 24l-104 110q-5 9 -9 21.5
t-4 25.5q0 25 6 39t16 23l146 146q29 -8 44 -23t15 -34q0 -17 -7.5 -30.5t-29.5 -34.5l-85 -84z" />
    <glyph glyph-name="logicalnot" unicode="&#xac;" horiz-adv-x="535" 
d="M437 416q26 0 41.5 -15t15.5 -41v-178q-8 -3 -23.5 -5.5t-31.5 -2.5q-32 0 -47.5 12t-15.5 47v85h-324q-5 8 -8.5 21t-3.5 27q0 26 12.5 38t34.5 12h350z" />
    <glyph glyph-name="uni00AD" unicode="&#xad;" horiz-adv-x="371" 
d="M55 206q-5 9 -9 22t-4 28q0 27 13 40t35 13h226q5 -8 9 -21.5t4 -28.5q0 -27 -13 -40t-35 -13h-226z" />
    <glyph glyph-name="registered" unicode="&#xae;" horiz-adv-x="619" 
d="M47 374q0 53 19 100t53.5 81.5t82.5 54.5t107 20q58 0 106 -20t83 -54.5t54.5 -81.5t19.5 -100t-19.5 -99.5t-54.5 -81t-83 -54.5t-106 -20q-59 0 -107 20t-82.5 54.5t-53.5 81t-19 99.5zM120 374q0 -41 13.5 -76t38 -60.5t59.5 -40t78 -14.5t78 14.5t59.5 40t37.5 60.5
t13 76q0 42 -13 77t-37.5 61t-59.5 40.5t-78 14.5t-78 -14.5t-59.5 -40.5t-38 -61t-13.5 -77zM285 343v-78q-5 -1 -13.5 -2t-19.5 -1q-14 0 -22.5 5t-8.5 23v186q0 13 19 19q27 7 62 7q51 0 78.5 -21.5t27.5 -59.5q0 -26 -13.5 -42.5t-33.5 -24.5l54 -69q-3 -11 -13 -17.5
t-22 -6.5q-14 0 -23 6.5t-17 18.5l-38 57h-17zM308 390q35 0 35 32q0 30 -39 30q-5 0 -10 -0.5t-9 -0.5v-61h23z" />
    <glyph glyph-name="macron" unicode="&#xaf;" horiz-adv-x="347" 
d="M35 567q-5 8 -9.5 20.5t-4.5 26.5q0 28 12 39t32 11h247q13 -18 13 -47q0 -27 -11.5 -38.5t-31.5 -11.5h-247z" />
    <glyph glyph-name="degree" unicode="&#xb0;" horiz-adv-x="361" 
d="M333 482q0 -33 -12 -59t-32.5 -44t-48 -27.5t-59.5 -9.5q-67 0 -110.5 37.5t-43.5 102.5q0 33 12 59t33 44t49 27.5t60 9.5t59.5 -9.5t48 -27.5t32.5 -44t12 -59zM181 543q-23 0 -41 -14.5t-18 -46.5t17.5 -47.5t41.5 -15.5q23 0 40.5 15.5t17.5 47.5t-17.5 46.5
t-40.5 14.5z" />
    <glyph glyph-name="plusminus" unicode="&#xb1;" horiz-adv-x="546" 
d="M332 416h144q5 -8 8.5 -21t3.5 -28q0 -27 -13 -39t-35 -12h-108v-145q-9 -2 -23.5 -4.5t-29.5 -2.5q-31 0 -46.5 11t-15.5 45v96h-148q-5 8 -8 20.5t-3 27.5q0 27 13 39.5t35 12.5h111v141q9 3 24 5.5t30 2.5q29 0 45 -11.5t16 -44.5v-93zM69 0q-5 8 -8 20.5t-3 27.5
q0 27 13 40t35 13h370q5 -9 8.5 -22t3.5 -28q0 -27 -13 -39t-35 -12h-371z" />
    <glyph glyph-name="twosuperior" unicode="&#xb2;" horiz-adv-x="278" 
d="M124 699q57 0 89 -27t32 -75q0 -31 -18 -59t-55 -58l-54 -43h125q3 -6 5.5 -14t2.5 -18q0 -33 -30 -33h-180q-8 7 -13.5 17t-5.5 23q0 30 15 43l80 70q27 24 38 39.5t11 30.5q0 19 -13.5 29.5t-34.5 10.5t-37 -7t-29 -16q-8 5 -13.5 14t-5.5 23q0 24 26 37t65 13z" />
    <glyph glyph-name="threesuperior" unicode="&#xb3;" horiz-adv-x="279" 
d="M128 567q18 0 28.5 8.5t10.5 22.5q0 17 -14 26.5t-40 9.5q-20 0 -37.5 -5.5t-30.5 -13.5q-20 12 -20 36q0 23 28.5 36t71.5 13q58 0 89.5 -26t31.5 -68q0 -22 -12.5 -40.5t-32.5 -26.5q22 -9 36.5 -29t14.5 -49q0 -48 -36.5 -72.5t-91.5 -24.5q-50 0 -79.5 15.5
t-29.5 38.5q0 13 6.5 22.5t17.5 14.5q14 -9 32.5 -17.5t45.5 -8.5q26 0 41 10t15 29q0 17 -11.5 26.5t-32.5 9.5h-52q-9 14 -9 31q0 21 9 32h51z" />
    <glyph glyph-name="acute" unicode="&#xb4;" horiz-adv-x="298" 
d="M182 720q37 0 57 -17t20 -38q0 -19 -8 -30.5t-27 -28.5l-93 -84q-32 0 -49.5 16t-17.5 35q0 11 4.5 19t14.5 19z" />
    <glyph glyph-name="mu" unicode="&#xb5;" horiz-adv-x="567" 
d="M134 -183q-36 0 -53 13.5t-17 45.5v596q8 3 23.5 5.5t33.5 2.5q36 0 52.5 -12.5t16.5 -46.5v-238q0 -52 27.5 -74.5t75.5 -22.5q31 0 52.5 6t32.5 13v367q8 3 23.5 5.5t33.5 2.5q36 0 52.5 -12.5t16.5 -46.5v-328q0 -23 -8 -38t-29 -28q-25 -16 -63 -29t-94 -13
q-87 0 -130 43q5 -35 7.5 -72t2.5 -77v-51q-9 -4 -23.5 -7.5t-32.5 -3.5z" />
    <glyph glyph-name="paragraph" unicode="&#xb6;" horiz-adv-x="497" 
d="M366 613q32 0 50.5 -11t18.5 -49v-622q-8 -2 -24 -5t-33 -3q-33 0 -51 12t-18 48v523h-68v-255q0 -13 -14 -21t-45 -8q-30 0 -60 11t-53.5 34.5t-38 59t-14.5 84.5q0 51 17.5 89t47.5 63t69.5 37.5t83.5 12.5h132z" />
    <glyph glyph-name="periodcentered" unicode="&#xb7;" horiz-adv-x="191" 
d="M19 262q0 33 20.5 55.5t56.5 22.5q35 0 55.5 -22.5t20.5 -55.5q0 -32 -20.5 -54.5t-55.5 -22.5q-36 0 -56.5 22.5t-20.5 54.5z" />
    <glyph glyph-name="cedilla" unicode="&#xb8;" horiz-adv-x="195" 
d="M119 28q32 -20 46 -49t14 -63q0 -51 -31 -81.5t-84 -30.5q-34 0 -53.5 15t-19.5 43q0 13 5 28h13q33 0 48 15t15 39q0 13 -5.5 29.5t-18.5 30.5z" />
    <glyph glyph-name="onesuperior" unicode="&#xb9;" horiz-adv-x="217" 
d="M91 608l-51 -20q-11 5 -20 15.5t-9 26.5q0 14 7.5 23t20.5 14l73 30h15q20 0 31 -12t11 -32v-279q-6 -2 -16 -4t-20 -2q-20 0 -31 7t-11 30v203z" />
    <glyph glyph-name="ordmasculine" unicode="&#xba;" horiz-adv-x="387" 
d="M349 459q0 -79 -43 -121t-114 -42t-114.5 42.5t-43.5 120.5t44 120.5t114 42.5q71 0 114 -43.5t43 -119.5zM192 551q-32 0 -50.5 -23.5t-18.5 -68.5t18.5 -68.5t50.5 -23.5t50.5 23.5t18.5 68.5q0 44 -18.5 68t-50.5 24z" />
    <glyph glyph-name="guillemotright" unicode="&#xbb;" horiz-adv-x="523" 
d="M256 371q0 22 14.5 40t43.5 18q18 0 32.5 -10t27.5 -24l105 -110q5 -9 8.5 -21.5t3.5 -25.5q0 -25 -6 -39t-16 -22l-146 -147q-29 8 -43.5 23t-14.5 34q0 17 7.5 30t29.5 35l85 84zM36 371q0 22 14.5 40t43.5 18q18 0 32 -10t28 -24l104 -110q5 -9 9 -21.5t4 -25.5
q0 -25 -6 -39t-16 -22l-146 -147q-29 8 -44 23t-15 34q0 17 7.5 30.5t29.5 34.5l85 84z" />
    <glyph glyph-name="questiondown" unicode="&#xbf;" horiz-adv-x="479" 
d="M347 259q14 -10 24 -27t10 -40t-12.5 -35t-38.5 -19l-73 -18q-46 -11 -69.5 -34t-23.5 -61q0 -33 26 -58.5t85 -25.5q41 0 79 11.5t61 28.5q14 -11 23.5 -25.5t9.5 -34.5q0 -21 -14 -37t-38.5 -27.5t-59 -17.5t-74.5 -6q-54 0 -97 14t-73 39.5t-45.5 60.5t-15.5 77
q0 87 54 137.5t163 75.5zM370 403q0 -33 -21 -55t-56 -22t-56 22t-21 55q0 32 21 53.5t56 21.5t56 -21.5t21 -53.5z" />
    <glyph glyph-name="Agrave" unicode="&#xc0;" horiz-adv-x="610" 
d="M416 143h-224q-11 -37 -23.5 -77t-20.5 -66q-10 -4 -21.5 -7t-28.5 -3q-34 0 -53 13.5t-19 38.5q0 12 3.5 23.5t8.5 26.5q8 28 21.5 67.5t29 86t33.5 96t34.5 96t32 87t26.5 69.5q13 7 38.5 14t51.5 7q35 0 64 -10.5t37 -33.5q20 -55 44 -126.5t48.5 -147.5t47.5 -149
t41 -131q-10 -11 -27.5 -18.5t-41.5 -7.5q-35 0 -49.5 12.5t-22.5 39.5zM304 501q-9 -25 -19.5 -56t-22 -64.5t-23.5 -68t-23 -67.5h174l-81 256h-5zM162 753q-2 10 -2 18q0 26 15.5 42t38.5 16q29 0 56 -28l85 -93q-2 -26 -17.5 -39t-34.5 -13q-16 0 -27.5 6t-23.5 15z" />
    <glyph glyph-name="Aacute" unicode="&#xc1;" horiz-adv-x="610" 
d="M416 143h-224q-11 -37 -23.5 -77t-20.5 -66q-10 -4 -21.5 -7t-28.5 -3q-34 0 -53 13.5t-19 38.5q0 12 3.5 23.5t8.5 26.5q8 28 21.5 67.5t29 86t33.5 96t34.5 96t32 87t26.5 69.5q13 7 38.5 14t51.5 7q35 0 64 -10.5t37 -33.5q20 -55 44 -126.5t48.5 -147.5t47.5 -149
t41 -131q-10 -11 -27.5 -18.5t-41.5 -7.5q-35 0 -49.5 12.5t-22.5 39.5zM304 501q-9 -25 -19.5 -56t-22 -64.5t-23.5 -68t-23 -67.5h174l-81 256h-5zM381 833q32 0 50 -15.5t18 -38.5q0 -17 -7.5 -29.5t-28.5 -27.5l-93 -66q-29 1 -45 14t-16 31q0 11 4 20t15 19z" />
    <glyph glyph-name="Acircumflex" unicode="&#xc2;" horiz-adv-x="610" 
d="M311 742q-20 -20 -43.5 -43t-49.5 -45q-24 1 -40 14.5t-16 33.5q0 17 9 28.5t28 28.5l41 38q20 18 37 26t36 8q21 0 37.5 -8t33.5 -26l82 -87q0 -26 -14.5 -40t-38.5 -14q-16 0 -29 10t-33 31zM416 143h-224q-11 -37 -23.5 -77t-20.5 -66q-10 -4 -21.5 -7t-28.5 -3
q-34 0 -53 13.5t-19 38.5q0 12 3.5 23.5t8.5 26.5q8 28 21.5 67.5t29 86t33.5 96t34.5 96t32 87t26.5 69.5q13 7 38.5 14t51.5 7q35 0 64 -10.5t37 -33.5q20 -55 44 -126.5t48.5 -147.5t47.5 -149t41 -131q-10 -11 -27.5 -18.5t-41.5 -7.5q-35 0 -49.5 12.5t-22.5 39.5z
M304 501q-9 -25 -19.5 -56t-22 -64.5t-23.5 -68t-23 -67.5h174l-81 256h-5z" />
    <glyph glyph-name="Atilde" unicode="&#xc3;" horiz-adv-x="610" 
d="M416 143h-224q-11 -37 -23.5 -77t-20.5 -66q-10 -4 -21.5 -7t-28.5 -3q-34 0 -53 13.5t-19 38.5q0 12 3.5 23.5t8.5 26.5q8 28 21.5 67.5t29 86t33.5 96t34.5 96t32 87t26.5 69.5q13 7 38.5 14t51.5 7q35 0 64 -10.5t37 -33.5q20 -55 44 -126.5t48.5 -147.5t47.5 -149
t41 -131q-10 -11 -27.5 -18.5t-41.5 -7.5q-35 0 -49.5 12.5t-22.5 39.5zM304 501q-9 -25 -19.5 -56t-22 -64.5t-23.5 -68t-23 -67.5h174l-81 256h-5zM231 815q21 0 40 -5t36 -10.5t32 -10.5t27 -5q20 0 30 11.5t15 24.5h5q25 0 44 -15.5t19 -44.5q0 -36 -24 -55.5t-62 -19.5
q-23 0 -42.5 5t-36.5 11t-31.5 11t-26.5 5q-20 0 -30 -11.5t-15 -25.5h-4q-26 0 -44.5 15.5t-18.5 44.5q0 19 7.5 33t20 23.5t28 14t31.5 4.5z" />
    <glyph glyph-name="Adieresis" unicode="&#xc4;" horiz-adv-x="610" 
d="M416 143h-224q-11 -37 -23.5 -77t-20.5 -66q-10 -4 -21.5 -7t-28.5 -3q-34 0 -53 13.5t-19 38.5q0 12 3.5 23.5t8.5 26.5q8 28 21.5 67.5t29 86t33.5 96t34.5 96t32 87t26.5 69.5q13 7 38.5 14t51.5 7q35 0 64 -10.5t37 -33.5q20 -55 44 -126.5t48.5 -147.5t47.5 -149
t41 -131q-10 -11 -27.5 -18.5t-41.5 -7.5q-35 0 -49.5 12.5t-22.5 39.5zM304 501q-9 -25 -19.5 -56t-22 -64.5t-23.5 -68t-23 -67.5h174l-81 256h-5zM277 743q0 -27 -19.5 -46t-48.5 -19q-30 0 -48.5 19t-18.5 46q0 28 18.5 47t48.5 19q29 0 48.5 -19t19.5 -47zM471 743
q0 -27 -19 -46t-48 -19t-48.5 19t-19.5 46q0 28 19.5 47t48.5 19t48 -19t19 -47z" />
    <glyph glyph-name="Aring" unicode="&#xc5;" horiz-adv-x="610" 
d="M416 143h-224q-11 -37 -23.5 -77t-20.5 -66q-10 -4 -21.5 -7t-28.5 -3q-34 0 -53 13.5t-19 38.5q0 12 3.5 23.5t8.5 26.5q8 28 21.5 67.5t29 86t33.5 96t34.5 96t32 87t26.5 69.5q13 7 38.5 14t51.5 7q35 0 64 -10.5t37 -33.5q20 -55 44 -126.5t48.5 -147.5t47.5 -149
t41 -131q-10 -11 -27.5 -18.5t-41.5 -7.5q-35 0 -49.5 12.5t-22.5 39.5zM304 501q-9 -25 -19.5 -56t-22 -64.5t-23.5 -68t-23 -67.5h174l-81 256h-5zM190 749q0 43 32 71.5t88 28.5q57 0 89.5 -28.5t32.5 -71.5q0 -42 -32.5 -70.5t-89.5 -28.5q-56 0 -88 28.5t-32 70.5z
M271 749q0 -17 11 -26.5t28 -9.5t28.5 9.5t11.5 26.5t-11.5 26.5t-28.5 9.5t-28 -9.5t-11 -26.5z" />
    <glyph glyph-name="AE" unicode="&#xc6;" horiz-adv-x="860" 
d="M466 -2q-31 0 -49.5 19t-18.5 51v75h-183l-69 -143q-11 -4 -20.5 -6.5t-26.5 -2.5q-33 0 -49.5 13t-16.5 36q0 12 3.5 24.5t11.5 28.5l29.5 59t41.5 82t49 94.5t51 97t48 90.5t41 75q11 8 32 14.5t47 6.5q18 0 38.5 -4t36.5 -13q8 5 18.5 8.5t23.5 3.5h293q5 -8 9.5 -21
t4.5 -29q0 -54 -46 -54h-241v-142h244q5 -8 9.5 -20.5t4.5 -28.5q0 -27 -12.5 -40.5t-33.5 -13.5h-212v-155h278q5 -8 9.5 -21.5t4.5 -29.5q0 -27 -12.5 -40.5t-33.5 -13.5h-304zM266 245h132v254h-6z" />
    <glyph glyph-name="Ccedilla" unicode="&#xc7;" horiz-adv-x="579" 
d="M537 529q0 -20 -11 -34.5t-25 -22.5q-26 17 -58 31t-79 14q-85 0 -135.5 -55t-50.5 -159q0 -106 52 -159t140 -53q46 0 79.5 12.5t59.5 29.5q14 -9 23 -24.5t9 -35.5q0 -17 -9 -31t-30 -25q-15 -9 -39 -17t-56 -12q19 -31 19 -72q0 -51 -31 -81.5t-84 -30.5
q-34 0 -53.5 15t-19.5 43q0 13 5 28h13q33 0 48 15t15 39q0 20 -12 43q-57 6 -105 28.5t-83 62t-55 95.5t-20 130q0 78 24 137.5t65.5 100t97 61.5t117.5 21q43 0 78 -7.5t60 -20.5t38 -30t13 -36z" />
    <glyph glyph-name="Egrave" unicode="&#xc8;" horiz-adv-x="545" 
d="M152 -2q-32 0 -50.5 19t-18.5 51v470q0 32 18.5 50.5t50.5 18.5h331q5 -8 9 -21t4 -29q0 -26 -12 -40t-33 -14h-242v-142h244q5 -8 9.5 -20.5t4.5 -28.5q0 -54 -46 -54h-212v-155h278q5 -8 9.5 -21.5t4.5 -29.5q0 -54 -46 -54h-303zM168 753q-2 10 -2 18q0 26 15.5 42
t38.5 16q29 0 56 -28l85 -93q-2 -26 -17.5 -39t-34.5 -13q-16 0 -27.5 6t-23.5 15z" />
    <glyph glyph-name="Eacute" unicode="&#xc9;" horiz-adv-x="545" 
d="M152 -2q-32 0 -50.5 19t-18.5 51v470q0 32 18.5 50.5t50.5 18.5h331q5 -8 9 -21t4 -29q0 -26 -12 -40t-33 -14h-242v-142h244q5 -8 9.5 -20.5t4.5 -28.5q0 -54 -46 -54h-212v-155h278q5 -8 9.5 -21.5t4.5 -29.5q0 -54 -46 -54h-303zM372 833q32 0 50 -15.5t18 -38.5
q0 -17 -7.5 -29.5t-28.5 -27.5l-93 -66q-29 1 -45 14t-16 31q0 11 4 20t15 19z" />
    <glyph glyph-name="Ecircumflex" unicode="&#xca;" horiz-adv-x="545" 
d="M152 -2q-32 0 -50.5 19t-18.5 51v470q0 32 18.5 50.5t50.5 18.5h331q5 -8 9 -21t4 -29q0 -26 -12 -40t-33 -14h-242v-142h244q5 -8 9.5 -20.5t4.5 -28.5q0 -54 -46 -54h-212v-155h278q5 -8 9.5 -21.5t4.5 -29.5q0 -54 -46 -54h-303zM294 742q-20 -20 -44 -43t-49 -45
q-24 1 -40 14.5t-16 33.5q0 17 9 28.5t27 28.5l44 40q39 32 71 32q21 0 37 -8.5t34 -25.5l81 -87q0 -26 -14.5 -40t-37.5 -14q-16 0 -29 10t-33 31z" />
    <glyph glyph-name="Edieresis" unicode="&#xcb;" horiz-adv-x="545" 
d="M152 -2q-32 0 -50.5 19t-18.5 51v470q0 32 18.5 50.5t50.5 18.5h331q5 -8 9 -21t4 -29q0 -26 -12 -40t-33 -14h-242v-142h244q5 -8 9.5 -20.5t4.5 -28.5q0 -54 -46 -54h-212v-155h278q5 -8 9.5 -21.5t4.5 -29.5q0 -54 -46 -54h-303zM265 738q0 -27 -19.5 -46t-48.5 -19
q-30 0 -48.5 19t-18.5 46q0 28 18.5 47t48.5 19q29 0 48.5 -19t19.5 -47zM459 738q0 -27 -19 -46t-48 -19t-48.5 19t-19.5 46q0 28 19.5 47t48.5 19t48 -19t19 -47z" />
    <glyph glyph-name="Igrave" unicode="&#xcc;" horiz-adv-x="284" 
d="M147 -7q-38 0 -54 14t-16 47v553q9 2 26 5t34 3q36 0 53 -13t17 -48v-553q-9 -2 -25.5 -5t-34.5 -3zM-8 753q-2 10 -2 18q0 26 15.5 42t38.5 16q29 0 56 -28l85 -93q-2 -26 -17.5 -39t-34.5 -13q-16 0 -27.5 6t-23.5 15z" />
    <glyph glyph-name="Iacute" unicode="&#xcd;" horiz-adv-x="284" 
d="M147 -7q-38 0 -54 14t-16 47v553q9 2 26 5t34 3q36 0 53 -13t17 -48v-553q-9 -2 -25.5 -5t-34.5 -3zM210 833q32 0 50 -15.5t18 -38.5q0 -17 -7.5 -29.5t-28.5 -27.5l-93 -66q-29 1 -45 14t-16 31q0 11 4 20t15 19z" />
    <glyph glyph-name="Icircumflex" unicode="&#xce;" horiz-adv-x="284" 
d="M147 -7q-38 0 -54 14t-16 47v553q9 2 26 5t34 3q36 0 53 -13t17 -48v-553q-9 -2 -25.5 -5t-34.5 -3zM142 742q-20 -20 -44 -43t-49 -45q-24 1 -40 14.5t-16 33.5q0 17 9 28.5t27 28.5l44 40q39 32 71 32q21 0 37 -8.5t34 -25.5l81 -87q0 -26 -14.5 -40t-37.5 -14
q-16 0 -29 10t-33 31z" />
    <glyph glyph-name="Idieresis" unicode="&#xcf;" horiz-adv-x="284" 
d="M147 -7q-38 0 -54 14t-16 47v553q9 2 26 5t34 3q36 0 53 -13t17 -48v-553q-9 -2 -25.5 -5t-34.5 -3zM110 738q0 -27 -19.5 -46t-48.5 -19q-30 0 -48.5 19t-18.5 46q0 28 18.5 47t48.5 19q29 0 48.5 -19t19.5 -47zM304 738q0 -27 -19 -46t-48 -19t-48.5 19t-19.5 46
q0 28 19.5 47t48.5 19t48 -19t19 -47z" />
    <glyph glyph-name="Eth" unicode="&#xd0;" horiz-adv-x="691" 
d="M647 307q0 -81 -23.5 -141.5t-66.5 -100t-103.5 -59.5t-134.5 -20q-17 0 -37 0.5t-41.5 3t-43 6.5t-40.5 11q-48 18 -48 60v187h-80q-5 8 -9.5 20.5t-4.5 28.5q0 27 12.5 40.5t33.5 13.5h48v200q0 18 10 28t28 16q37 13 80.5 16.5t82.5 3.5q75 0 137.5 -19.5t106.5 -58.5
t68.5 -98t24.5 -138zM514 306q0 54 -15 93.5t-41.5 65t-63 38t-79.5 12.5q-23 0 -41.5 -1.5t-35.5 -3.5v-153h123q5 -8 9 -21t4 -29q0 -53 -46 -53h-90v-155q17 -4 38.5 -5.5t42.5 -1.5q93 0 144 54t51 160z" />
    <glyph glyph-name="Ntilde" unicode="&#xd1;" horiz-adv-x="670" 
d="M144 -7q-37 0 -52 13.5t-15 45.5v533q11 14 32.5 22t47.5 8q31 0 55.5 -11t43.5 -44l144 -259q20 -36 38.5 -74.5t32.5 -70.5l4 1q-5 59 -6.5 114.5t-1.5 109.5v227q8 2 24.5 4.5t33.5 2.5q37 0 52.5 -13.5t15.5 -45.5v-540q-11 -11 -31.5 -17t-48.5 -6q-30 0 -54.5 10.5
t-43.5 43.5l-144 259q-20 35 -38.5 74.5t-32.5 71.5l-6 -1q5 -55 6.5 -113t1.5 -110v-227q-8 -2 -24 -5t-34 -3zM249 815q21 0 40 -5t36 -10.5t32 -10.5t27 -5q20 0 30 11.5t15 24.5h5q25 0 44 -15.5t19 -44.5q0 -36 -24 -55.5t-62 -19.5q-23 0 -42.5 5t-36.5 11t-31.5 11
t-26.5 5q-20 0 -30 -11.5t-15 -25.5h-4q-26 0 -44.5 15.5t-18.5 44.5q0 19 7.5 33t20 23.5t28 14t31.5 4.5z" />
    <glyph glyph-name="Ograve" unicode="&#xd2;" horiz-adv-x="696" 
d="M652 304q0 -78 -23 -138t-63.5 -100.5t-96.5 -61t-121 -20.5t-121 20.5t-96.5 61t-63.5 100.5t-23 138t23.5 137.5t64.5 100t96.5 61t119.5 20.5t119.5 -20.5t96.5 -61t64.5 -100t23.5 -137.5zM519 304q0 104 -46.5 158.5t-124.5 54.5q-77 0 -123.5 -54t-46.5 -159
t46 -159t124 -54t124.5 54t46.5 159zM208 753q-2 10 -2 18q0 26 15.5 42t38.5 16q29 0 56 -28l85 -93q-2 -26 -17.5 -39t-34.5 -13q-16 0 -27.5 6t-23.5 15z" />
    <glyph glyph-name="Oacute" unicode="&#xd3;" horiz-adv-x="696" 
d="M652 304q0 -78 -23 -138t-63.5 -100.5t-96.5 -61t-121 -20.5t-121 20.5t-96.5 61t-63.5 100.5t-23 138t23.5 137.5t64.5 100t96.5 61t119.5 20.5t119.5 -20.5t96.5 -61t64.5 -100t23.5 -137.5zM519 304q0 104 -46.5 158.5t-124.5 54.5q-77 0 -123.5 -54t-46.5 -159
t46 -159t124 -54t124.5 54t46.5 159zM427 833q32 0 50 -15.5t18 -38.5q0 -17 -7.5 -29.5t-28.5 -27.5l-93 -66q-29 1 -45 14t-16 31q0 11 4 20t15 19z" />
    <glyph glyph-name="Ocircumflex" unicode="&#xd4;" horiz-adv-x="696" 
d="M652 304q0 -78 -23 -138t-63.5 -100.5t-96.5 -61t-121 -20.5t-121 20.5t-96.5 61t-63.5 100.5t-23 138t23.5 137.5t64.5 100t96.5 61t119.5 20.5t119.5 -20.5t96.5 -61t64.5 -100t23.5 -137.5zM519 304q0 104 -46.5 158.5t-124.5 54.5q-77 0 -123.5 -54t-46.5 -159
t46 -159t124 -54t124.5 54t46.5 159zM349 742q-20 -20 -44 -43t-49 -45q-24 1 -40 14.5t-16 33.5q0 17 9 28.5t27 28.5l44 40q39 32 71 32q21 0 37 -8.5t34 -25.5l81 -87q0 -26 -14.5 -40t-37.5 -14q-16 0 -29 10t-33 31z" />
    <glyph glyph-name="Otilde" unicode="&#xd5;" horiz-adv-x="696" 
d="M652 304q0 -78 -23 -138t-63.5 -100.5t-96.5 -61t-121 -20.5t-121 20.5t-96.5 61t-63.5 100.5t-23 138t23.5 137.5t64.5 100t96.5 61t119.5 20.5t119.5 -20.5t96.5 -61t64.5 -100t23.5 -137.5zM519 304q0 104 -46.5 158.5t-124.5 54.5q-77 0 -123.5 -54t-46.5 -159
t46 -159t124 -54t124.5 54t46.5 159zM269 815q21 0 40 -5t36 -10.5t32 -10.5t27 -5q20 0 30 11.5t15 24.5h5q25 0 44 -15.5t19 -44.5q0 -36 -24 -55.5t-62 -19.5q-23 0 -42.5 5t-36.5 11t-31.5 11t-26.5 5q-20 0 -30 -11.5t-15 -25.5h-4q-26 0 -44.5 15.5t-18.5 44.5
q0 19 7.5 33t20 23.5t28 14t31.5 4.5z" />
    <glyph glyph-name="Odieresis" unicode="&#xd6;" horiz-adv-x="696" 
d="M652 304q0 -78 -23 -138t-63.5 -100.5t-96.5 -61t-121 -20.5t-121 20.5t-96.5 61t-63.5 100.5t-23 138t23.5 137.5t64.5 100t96.5 61t119.5 20.5t119.5 -20.5t96.5 -61t64.5 -100t23.5 -137.5zM519 304q0 104 -46.5 158.5t-124.5 54.5q-77 0 -123.5 -54t-46.5 -159
t46 -159t124 -54t124.5 54t46.5 159zM317 738q0 -27 -19.5 -46t-48.5 -19q-30 0 -48.5 19t-18.5 46q0 28 18.5 47t48.5 19q29 0 48.5 -19t19.5 -47zM511 738q0 -27 -19 -46t-48 -19t-48.5 19t-19.5 46q0 28 19.5 47t48.5 19t48 -19t19 -47z" />
    <glyph glyph-name="multiply" unicode="&#xd7;" horiz-adv-x="500" 
d="M326 287l131 -145q-8 -24 -25 -40t-42 -16q-22 0 -41 21l-99 115l-136 -142q-27 6 -47.5 23.5t-20.5 38.5q0 10 6.5 20.5t17.5 21.5l106 109l-132 138q6 22 24 41t41 19q20 0 38 -20l107 -116l131 137q22 -7 40 -24t18 -40q0 -19 -22 -41z" />
    <glyph glyph-name="Oslash" unicode="&#xd8;" horiz-adv-x="696" 
d="M652 304q0 -78 -23 -138t-63.5 -100.5t-96.5 -61t-121 -20.5q-54 0 -102 15t-86 44l-57 -60q-29 7 -45 21.5t-16 34.5q0 14 8 27t26 30l18 18q-24 38 -37 85.5t-13 104.5q0 78 23.5 137.5t64.5 100t96.5 61t119.5 20.5q51 0 97.5 -14.5t84.5 -42.5l56 59q27 -7 44 -21.5
t17 -32.5q0 -14 -9.5 -28t-25.5 -30l-15 -16q26 -38 40.5 -86.5t14.5 -106.5zM522 304q0 57 -17 102l-262 -280q43 -35 105 -35q39 0 71 13.5t55 40.5t35.5 67t12.5 92zM175 304q0 -57 15 -99l259 279q-42 33 -101 33q-77 0 -125 -54t-48 -159z" />
    <glyph glyph-name="Ugrave" unicode="&#xd9;" horiz-adv-x="657" 
d="M328 -16q-60 0 -107 16.5t-79.5 47t-49.5 73t-17 95.5v391q8 2 25.5 5t34.5 3q36 0 52.5 -13t16.5 -48v-333q0 -63 35 -96.5t89 -33.5t89 33.5t35 96.5v386q9 2 26 5t34 3q36 0 53 -13t17 -48v-338q0 -53 -17 -95.5t-50 -73t-80 -47t-107 -16.5zM176 753q-2 10 -2 18
q0 26 15.5 42t38.5 16q29 0 56 -28l85 -93q-2 -26 -17.5 -39t-34.5 -13q-16 0 -27.5 6t-23.5 15z" />
    <glyph glyph-name="Uacute" unicode="&#xda;" horiz-adv-x="657" 
d="M328 -16q-60 0 -107 16.5t-79.5 47t-49.5 73t-17 95.5v391q8 2 25.5 5t34.5 3q36 0 52.5 -13t16.5 -48v-333q0 -63 35 -96.5t89 -33.5t89 33.5t35 96.5v386q9 2 26 5t34 3q36 0 53 -13t17 -48v-338q0 -53 -17 -95.5t-50 -73t-80 -47t-107 -16.5zM403 833q32 0 50 -15.5
t18 -38.5q0 -17 -7.5 -29.5t-28.5 -27.5l-93 -66q-29 1 -45 14t-16 31q0 11 4 20t15 19z" />
    <glyph glyph-name="Ucircumflex" unicode="&#xdb;" horiz-adv-x="657" 
d="M328 -16q-60 0 -107 16.5t-79.5 47t-49.5 73t-17 95.5v391q8 2 25.5 5t34.5 3q36 0 52.5 -13t16.5 -48v-333q0 -63 35 -96.5t89 -33.5t89 33.5t35 96.5v386q9 2 26 5t34 3q36 0 53 -13t17 -48v-338q0 -53 -17 -95.5t-50 -73t-80 -47t-107 -16.5zM333 742q-20 -20 -44 -43
t-49 -45q-24 1 -40 14.5t-16 33.5q0 17 9 28.5t27 28.5l44 40q39 32 71 32q21 0 37 -8.5t34 -25.5l81 -87q0 -26 -14.5 -40t-37.5 -14q-16 0 -29 10t-33 31z" />
    <glyph glyph-name="Udieresis" unicode="&#xdc;" horiz-adv-x="657" 
d="M328 -16q-60 0 -107 16.5t-79.5 47t-49.5 73t-17 95.5v391q8 2 25.5 5t34.5 3q36 0 52.5 -13t16.5 -48v-333q0 -63 35 -96.5t89 -33.5t89 33.5t35 96.5v386q9 2 26 5t34 3q36 0 53 -13t17 -48v-338q0 -53 -17 -95.5t-50 -73t-80 -47t-107 -16.5zM297 738q0 -27 -19.5 -46
t-48.5 -19q-30 0 -48.5 19t-18.5 46q0 28 18.5 47t48.5 19q29 0 48.5 -19t19.5 -47zM491 738q0 -27 -19 -46t-48 -19t-48.5 19t-19.5 46q0 28 19.5 47t48.5 19t48 -19t19 -47z" />
    <glyph glyph-name="Yacute" unicode="&#xdd;" horiz-adv-x="562" 
d="M543 557q0 -11 -11 -36.5t-34 -67.5t-59 -102t-87 -139v-211q-8 -2 -24.5 -5t-34.5 -3q-38 0 -53 14t-15 46v158q-27 39 -57 86t-59 95t-54 94.5t-42 84.5q8 15 25 27.5t43 12.5q29 0 46.5 -13t34.5 -45q8 -14 25.5 -46.5t37 -68.5t37 -68t24.5 -44h5q19 37 36 70.5
t33 66t31.5 66t32.5 69.5q12 7 27.5 10t29.5 3q27 0 44.5 -14t17.5 -40zM348 833q32 0 50 -15.5t18 -38.5q0 -17 -7.5 -29.5t-28.5 -27.5l-93 -66q-29 1 -45 14t-16 31q0 11 4 20t15 19z" />
    <glyph glyph-name="Thorn" unicode="&#xde;" horiz-adv-x="576" 
d="M74 608q8 2 25.5 4.5t34.5 2.5q36 0 52.5 -13t16.5 -47v-45h99q118 0 176.5 -55t58.5 -149q0 -92 -58.5 -148t-176.5 -56h-99v-101q-8 -2 -24.5 -5t-34.5 -3q-38 0 -54 14t-16 47v554zM203 206h80q58 0 90.5 24.5t32.5 75.5t-32.5 75.5t-90.5 24.5h-80v-200z" />
    <glyph glyph-name="germandbls" unicode="&#xdf;" horiz-adv-x="601" 
d="M193 0q-8 -2 -23.5 -5t-32.5 -3q-36 0 -53 13.5t-17 45.5v413q0 53 17 92.5t47 66t70.5 39.5t87.5 13q49 0 90 -14.5t71 -42t46.5 -67.5t16.5 -91q0 -40 -35 -57l-39 -17q-38 -17 -38 -46q0 -15 9.5 -26t32.5 -23q61 -33 91.5 -67t30.5 -91q0 -37 -13 -65t-36.5 -47
t-56 -28.5t-70.5 -9.5q-59 0 -94 18.5t-35 50.5q0 37 30 54q16 -11 36 -19t46 -8q29 0 46.5 15t17.5 38t-13 38t-48 34q-51 27 -77 58t-26 80q0 40 23.5 69t66.5 46l25 10q0 45 -27 74.5t-71 29.5q-40 0 -68 -26t-28 -81v-464v0z" />
    <glyph glyph-name="agrave" unicode="&#xe0;" horiz-adv-x="522" 
d="M250 81q29 0 53 5.5t35 13.5v111l-97 -9q-40 -4 -61 -17.5t-21 -42.5t21.5 -45t69.5 -16zM246 488q98 0 156.5 -42t58.5 -130v-231q0 -24 -12 -38t-30 -25q-28 -17 -71 -27t-98 -10q-100 0 -157.5 38.5t-57.5 115.5q0 67 42.5 102.5t123.5 43.5l137 14v18q0 38 -27.5 56
t-77.5 18q-39 0 -76 -9.5t-66 -23.5q-11 8 -18.5 21.5t-7.5 29.5q0 20 9.5 32.5t30.5 22.5q29 12 66 18t75 6zM116 640q-2 10 -2 18q0 27 16 42.5t40 15.5q32 0 55 -27l89 -112q-2 -26 -17.5 -39.5t-34.5 -13.5q-17 0 -28 5t-22 16z" />
    <glyph glyph-name="aacute" unicode="&#xe1;" horiz-adv-x="522" 
d="M250 81q29 0 53 5.5t35 13.5v111l-97 -9q-40 -4 -61 -17.5t-21 -42.5t21.5 -45t69.5 -16zM246 488q98 0 156.5 -42t58.5 -130v-231q0 -24 -12 -38t-30 -25q-28 -17 -71 -27t-98 -10q-100 0 -157.5 38.5t-57.5 115.5q0 67 42.5 102.5t123.5 43.5l137 14v18q0 38 -27.5 56
t-77.5 18q-39 0 -76 -9.5t-66 -23.5q-11 8 -18.5 21.5t-7.5 29.5q0 20 9.5 32.5t30.5 22.5q29 12 66 18t75 6zM318 720q37 0 57 -17t20 -38q0 -19 -8 -30.5t-27 -28.5l-93 -84q-32 0 -49.5 16t-17.5 35q0 11 4.5 19t14.5 19z" />
    <glyph glyph-name="acircumflex" unicode="&#xe2;" horiz-adv-x="522" 
d="M250 81q29 0 53 5.5t35 13.5v111l-97 -9q-40 -4 -61 -17.5t-21 -42.5t21.5 -45t69.5 -16zM246 488q98 0 156.5 -42t58.5 -130v-231q0 -24 -12 -38t-30 -25q-28 -17 -71 -27t-98 -10q-100 0 -157.5 38.5t-57.5 115.5q0 67 42.5 102.5t123.5 43.5l137 14v18q0 38 -27.5 56
t-77.5 18q-39 0 -76 -9.5t-66 -23.5q-11 8 -18.5 21.5t-7.5 29.5q0 20 9.5 32.5t30.5 22.5q29 12 66 18t75 6zM256 622q-25 -29 -44 -49.5t-40 -45.5q-29 1 -46.5 14.5t-17.5 34.5q0 16 8.5 27t24.5 28l47 50q16 15 32 23.5t38 8.5q21 0 37.5 -7.5t36.5 -31.5l77 -94
q0 -21 -12 -36t-37 -15q-17 0 -28.5 8.5t-22.5 22.5z" />
    <glyph glyph-name="atilde" unicode="&#xe3;" horiz-adv-x="522" 
d="M250 81q29 0 53 5.5t35 13.5v111l-97 -9q-40 -4 -61 -17.5t-21 -42.5t21.5 -45t69.5 -16zM246 488q98 0 156.5 -42t58.5 -130v-231q0 -24 -12 -38t-30 -25q-28 -17 -71 -27t-98 -10q-100 0 -157.5 38.5t-57.5 115.5q0 67 42.5 102.5t123.5 43.5l137 14v18q0 38 -27.5 56
t-77.5 18q-39 0 -76 -9.5t-66 -23.5q-11 8 -18.5 21.5t-7.5 29.5q0 20 9.5 32.5t30.5 22.5q29 12 66 18t75 6zM175 684q21 0 40 -5t36 -10.5t32 -10.5t27 -5q20 0 30 11.5t15 24.5h5q25 0 44 -15.5t19 -44.5q0 -36 -24 -55.5t-62 -19.5q-23 0 -42.5 5t-36.5 11t-31.5 11
t-26.5 5q-20 0 -30 -11.5t-15 -25.5h-4q-26 0 -44.5 15.5t-18.5 44.5q0 19 7.5 33t20 23.5t28 14t31.5 4.5z" />
    <glyph glyph-name="adieresis" unicode="&#xe4;" horiz-adv-x="522" 
d="M250 81q29 0 53 5.5t35 13.5v111l-97 -9q-40 -4 -61 -17.5t-21 -42.5t21.5 -45t69.5 -16zM246 488q98 0 156.5 -42t58.5 -130v-231q0 -24 -12 -38t-30 -25q-28 -17 -71 -27t-98 -10q-100 0 -157.5 38.5t-57.5 115.5q0 67 42.5 102.5t123.5 43.5l137 14v18q0 38 -27.5 56
t-77.5 18q-39 0 -76 -9.5t-66 -23.5q-11 8 -18.5 21.5t-7.5 29.5q0 20 9.5 32.5t30.5 22.5q29 12 66 18t75 6zM232 616q0 -27 -19.5 -46t-48.5 -19q-30 0 -48.5 19t-18.5 46q0 28 18.5 47t48.5 19q29 0 48.5 -19t19.5 -47zM426 616q0 -27 -19 -46t-48 -19t-48.5 19t-19.5 46
q0 28 19.5 47t48.5 19t48 -19t19 -47z" />
    <glyph glyph-name="aring" unicode="&#xe5;" horiz-adv-x="522" 
d="M250 81q29 0 53 5.5t35 13.5v111l-97 -9q-40 -4 -61 -17.5t-21 -42.5t21.5 -45t69.5 -16zM246 488q98 0 156.5 -42t58.5 -130v-231q0 -24 -12 -38t-30 -25q-28 -17 -71 -27t-98 -10q-100 0 -157.5 38.5t-57.5 115.5q0 67 42.5 102.5t123.5 43.5l137 14v18q0 38 -27.5 56
t-77.5 18q-39 0 -76 -9.5t-66 -23.5q-11 8 -18.5 21.5t-7.5 29.5q0 20 9.5 32.5t30.5 22.5q29 12 66 18t75 6zM142 627q0 43 31 73t87 30q57 0 89 -30t32 -73t-32 -72.5t-89 -29.5q-56 0 -87 29.5t-31 72.5zM222 627q0 -19 11 -29.5t28 -10.5t28.5 10.5t11.5 29.5
t-11.5 29.5t-28.5 10.5t-28 -10.5t-11 -29.5z" />
    <glyph glyph-name="ae" unicode="&#xe6;" horiz-adv-x="821" 
d="M246 488q113 0 160 -64q30 32 70.5 48t87.5 16q49 0 90 -15.5t70 -43t45.5 -66t16.5 -83.5q0 -28 -15 -42t-41 -18l-278 -40q14 -51 52.5 -74t93.5 -23q42 0 78 12.5t58 26.5q14 -8 22.5 -22t8.5 -30q0 -20 -13.5 -35.5t-36.5 -26.5t-55.5 -17t-69.5 -6q-53 0 -94.5 14.5
t-71.5 40.5q-11 -14 -25 -21q-27 -15 -61.5 -24.5t-88.5 -9.5q-100 0 -157 38.5t-57 115.5q0 67 42.5 102.5t123.5 43.5l137 14v18q0 38 -27.5 56t-77.5 18q-39 0 -76 -9.5t-66 -23.5q-11 8 -18.5 21.5t-7.5 29.5q0 20 9.5 32.5t30.5 22.5q29 12 66 18t75 6zM250 81
q29 0 53 5.5t35 13.5v111l-97 -9q-40 -4 -61 -17.5t-21 -42.5t21.5 -45t69.5 -16zM564 393q-50 0 -82.5 -32.5t-36.5 -92.5l222 33q-4 37 -29 64.5t-74 27.5z" />
    <glyph glyph-name="ccedilla" unicode="&#xe7;" horiz-adv-x="484" 
d="M308 387q-30 0 -55.5 -10t-44 -29t-29.5 -47t-11 -65q0 -74 39 -111.5t101 -37.5q35 0 60.5 9.5t45.5 20.5q14 -10 22.5 -23t8.5 -30q0 -27 -26.5 -46.5t-72.5 -27.5q11 -16 16 -35t5 -39q0 -51 -31 -81.5t-84 -30.5q-34 0 -53.5 15t-19.5 43q0 13 5 28h13q33 0 48 15
t15 39q0 10 -3 22t-10 24q-94 12 -150.5 73.5t-56.5 172.5q0 63 20 110.5t54.5 79t80.5 47t98 15.5q67 0 107 -23.5t40 -57.5q0 -16 -8.5 -29t-19.5 -21q-20 11 -44.5 20.5t-59.5 9.5z" />
    <glyph glyph-name="egrave" unicode="&#xe8;" horiz-adv-x="534" 
d="M166 180q14 -51 52 -74t94 -23q42 0 77.5 12.5t57.5 26.5q14 -8 23 -22t9 -30q0 -20 -13.5 -35.5t-37 -26.5t-55.5 -17t-69 -6q-59 0 -107.5 16t-83 48.5t-54 80.5t-19.5 112q0 62 19 108t51.5 77t75.5 46t91 15q49 0 90 -15.5t70 -43t45.5 -66t16.5 -83.5
q0 -28 -14.5 -42t-40.5 -18zM277 393q-49 0 -82 -32.5t-37 -92.5l222 33q-4 37 -29 64.5t-74 27.5zM128 640q-2 10 -2 18q0 27 16 42.5t40 15.5q32 0 55 -27l89 -112q-2 -26 -17.5 -39.5t-34.5 -13.5q-17 0 -28 5t-22 16z" />
    <glyph glyph-name="eacute" unicode="&#xe9;" horiz-adv-x="534" 
d="M166 180q14 -51 52 -74t94 -23q42 0 77.5 12.5t57.5 26.5q14 -8 23 -22t9 -30q0 -20 -13.5 -35.5t-37 -26.5t-55.5 -17t-69 -6q-59 0 -107.5 16t-83 48.5t-54 80.5t-19.5 112q0 62 19 108t51.5 77t75.5 46t91 15q49 0 90 -15.5t70 -43t45.5 -66t16.5 -83.5
q0 -28 -14.5 -42t-40.5 -18zM277 393q-49 0 -82 -32.5t-37 -92.5l222 33q-4 37 -29 64.5t-74 27.5zM343 720q37 0 57 -17t20 -38q0 -19 -8 -30.5t-27 -28.5l-93 -84q-32 0 -49.5 16t-17.5 35q0 11 4.5 19t14.5 19z" />
    <glyph glyph-name="ecircumflex" unicode="&#xea;" horiz-adv-x="534" 
d="M166 180q14 -51 52 -74t94 -23q42 0 77.5 12.5t57.5 26.5q14 -8 23 -22t9 -30q0 -20 -13.5 -35.5t-37 -26.5t-55.5 -17t-69 -6q-59 0 -107.5 16t-83 48.5t-54 80.5t-19.5 112q0 62 19 108t51.5 77t75.5 46t91 15q49 0 90 -15.5t70 -43t45.5 -66t16.5 -83.5
q0 -28 -14.5 -42t-40.5 -18zM277 393q-49 0 -82 -32.5t-37 -92.5l222 33q-4 37 -29 64.5t-74 27.5zM277 622q-25 -29 -44 -49.5t-40 -45.5q-29 1 -46.5 14.5t-17.5 34.5q0 16 8.5 27t24.5 28l47 50q16 15 32 23.5t38 8.5q21 0 37.5 -7.5t36.5 -31.5l77 -94q0 -21 -12 -36
t-37 -15q-17 0 -28.5 8.5t-22.5 22.5z" />
    <glyph glyph-name="edieresis" unicode="&#xeb;" horiz-adv-x="534" 
d="M166 180q14 -51 52 -74t94 -23q42 0 77.5 12.5t57.5 26.5q14 -8 23 -22t9 -30q0 -20 -13.5 -35.5t-37 -26.5t-55.5 -17t-69 -6q-59 0 -107.5 16t-83 48.5t-54 80.5t-19.5 112q0 62 19 108t51.5 77t75.5 46t91 15q49 0 90 -15.5t70 -43t45.5 -66t16.5 -83.5
q0 -28 -14.5 -42t-40.5 -18zM277 393q-49 0 -82 -32.5t-37 -92.5l222 33q-4 37 -29 64.5t-74 27.5zM241 616q0 -27 -19.5 -46t-48.5 -19q-30 0 -48.5 19t-18.5 46q0 28 18.5 47t48.5 19q29 0 48.5 -19t19.5 -47zM435 616q0 -27 -19 -46t-48 -19t-48.5 19t-19.5 46
q0 28 19.5 47t48.5 19t48 -19t19 -47z" />
    <glyph glyph-name="igrave" unicode="&#xec;" horiz-adv-x="262" 
d="M138 -8q-36 0 -53 13.5t-17 45.5v418q8 2 23 5t33 3q36 0 53 -13.5t17 -45.5v-418q-8 -2 -23 -5t-33 -3zM-16 640q-2 10 -2 18q0 27 16 42.5t40 15.5q32 0 55 -27l89 -112q-2 -26 -17.5 -39.5t-34.5 -13.5q-17 0 -28 5t-22 16z" />
    <glyph glyph-name="iacute" unicode="&#xed;" horiz-adv-x="262" 
d="M138 -8q-36 0 -53 13.5t-17 45.5v418q8 2 23 5t33 3q36 0 53 -13.5t17 -45.5v-418q-8 -2 -23 -5t-33 -3zM198 720q37 0 57 -17t20 -38q0 -19 -8 -30.5t-27 -28.5l-93 -84q-32 0 -49.5 16t-17.5 35q0 11 4.5 19t14.5 19z" />
    <glyph glyph-name="icircumflex" unicode="&#xee;" horiz-adv-x="262" 
d="M138 -8q-36 0 -53 13.5t-17 45.5v418q8 2 23 5t33 3q36 0 53 -13.5t17 -45.5v-418q-8 -2 -23 -5t-33 -3zM131 622q-25 -29 -44 -49.5t-40 -45.5q-29 1 -46.5 14.5t-17.5 34.5q0 16 8.5 27t24.5 28l47 50q16 15 32 23.5t38 8.5q21 0 37.5 -7.5t36.5 -31.5l77 -94
q0 -21 -12 -36t-37 -15q-17 0 -28.5 8.5t-22.5 22.5z" />
    <glyph glyph-name="idieresis" unicode="&#xef;" horiz-adv-x="262" 
d="M138 -8q-36 0 -53 13.5t-17 45.5v418q8 2 23 5t33 3q36 0 53 -13.5t17 -45.5v-418q-8 -2 -23 -5t-33 -3zM101 616q0 -27 -19.5 -46t-48.5 -19q-30 0 -48.5 19t-18.5 46q0 28 18.5 47t48.5 19q29 0 48.5 -19t19.5 -47zM295 616q0 -27 -19 -46t-48 -19t-48.5 19t-19.5 46
q0 28 19.5 47t48.5 19t48 -19t19 -47z" />
    <glyph glyph-name="eth" unicode="&#xf0;" horiz-adv-x="562" 
d="M403 561q50 -60 84 -140t34 -171q0 -61 -15 -110t-44.5 -83.5t-74.5 -53t-105 -18.5q-56 0 -100.5 16.5t-76 47t-48.5 74t-17 97.5q0 58 19 100.5t50 70.5t71 42t82 14q29 0 53 -6t44 -17q-14 26 -30 49.5t-38 44.5l-133 -49q-13 8 -22 22.5t-9 31.5q0 27 29 38l53 21
q-20 11 -42 18.5t-45 15.5q2 33 19 51.5t44 18.5q34 0 71 -15.5t74 -41.5l105 43q12 -8 22 -23t10 -32q0 -18 -8.5 -27.5t-22.5 -14.5zM392 224q0 44 -7 78q-18 23 -44 35t-55 12q-58 0 -87.5 -35t-29.5 -94q0 -62 30 -98t84 -36q55 0 82 37.5t27 100.5z" />
    <glyph glyph-name="ntilde" unicode="&#xf1;" horiz-adv-x="572" 
d="M382 305q0 43 -24.5 63t-66.5 20q-29 0 -53.5 -7t-42.5 -18v-362q-9 -2 -24 -5t-34 -3q-35 0 -52 13t-17 46v321q0 24 10 39t31 29q29 20 77 33.5t106 13.5q103 0 159.5 -45.5t56.5 -133.5v-308q-8 -2 -23.5 -5t-33.5 -3q-36 0 -52.5 13t-16.5 46v253zM204 684
q21 0 40 -5t36 -10.5t32 -10.5t27 -5q20 0 30 11.5t15 24.5h5q25 0 44 -15.5t19 -44.5q0 -36 -24 -55.5t-62 -19.5q-23 0 -42.5 5t-36.5 11t-31.5 11t-26.5 5q-20 0 -30 -11.5t-15 -25.5h-4q-26 0 -44.5 15.5t-18.5 44.5q0 19 7.5 33t20 23.5t28 14t31.5 4.5z" />
    <glyph glyph-name="ograve" unicode="&#xf2;" horiz-adv-x="570" 
d="M530 237q0 -58 -17.5 -104.5t-49.5 -79.5t-77 -50.5t-101 -17.5t-101 17.5t-77 50t-49.5 79t-17.5 105.5q0 58 17.5 104.5t50 79t77.5 50t100 17.5t100 -17.5t77.5 -50.5t50 -79.5t17.5 -103.5zM285 388q-54 0 -85 -39.5t-31 -111.5q0 -73 30.5 -112t85.5 -39t85.5 39.5
t30.5 111.5t-31 111.5t-85 39.5zM155 640q-2 10 -2 18q0 27 16 42.5t40 15.5q32 0 55 -27l89 -112q-2 -26 -17.5 -39.5t-34.5 -13.5q-17 0 -28 5t-22 16z" />
    <glyph glyph-name="oacute" unicode="&#xf3;" horiz-adv-x="570" 
d="M530 237q0 -58 -17.5 -104.5t-49.5 -79.5t-77 -50.5t-101 -17.5t-101 17.5t-77 50t-49.5 79t-17.5 105.5q0 58 17.5 104.5t50 79t77.5 50t100 17.5t100 -17.5t77.5 -50.5t50 -79.5t17.5 -103.5zM285 388q-54 0 -85 -39.5t-31 -111.5q0 -73 30.5 -112t85.5 -39t85.5 39.5
t30.5 111.5t-31 111.5t-85 39.5zM343 720q37 0 57 -17t20 -38q0 -19 -8 -30.5t-27 -28.5l-93 -84q-32 0 -49.5 16t-17.5 35q0 11 4.5 19t14.5 19z" />
    <glyph glyph-name="ocircumflex" unicode="&#xf4;" horiz-adv-x="570" 
d="M530 237q0 -58 -17.5 -104.5t-49.5 -79.5t-77 -50.5t-101 -17.5t-101 17.5t-77 50t-49.5 79t-17.5 105.5q0 58 17.5 104.5t50 79t77.5 50t100 17.5t100 -17.5t77.5 -50.5t50 -79.5t17.5 -103.5zM285 388q-54 0 -85 -39.5t-31 -111.5q0 -73 30.5 -112t85.5 -39t85.5 39.5
t30.5 111.5t-31 111.5t-85 39.5zM283 622q-25 -29 -44 -49.5t-40 -45.5q-29 1 -46.5 14.5t-17.5 34.5q0 16 8.5 27t24.5 28l47 50q16 15 32 23.5t38 8.5q21 0 37.5 -7.5t36.5 -31.5l77 -94q0 -21 -12 -36t-37 -15q-17 0 -28.5 8.5t-22.5 22.5z" />
    <glyph glyph-name="otilde" unicode="&#xf5;" horiz-adv-x="570" 
d="M530 237q0 -58 -17.5 -104.5t-49.5 -79.5t-77 -50.5t-101 -17.5t-101 17.5t-77 50t-49.5 79t-17.5 105.5q0 58 17.5 104.5t50 79t77.5 50t100 17.5t100 -17.5t77.5 -50.5t50 -79.5t17.5 -103.5zM285 388q-54 0 -85 -39.5t-31 -111.5q0 -73 30.5 -112t85.5 -39t85.5 39.5
t30.5 111.5t-31 111.5t-85 39.5zM207 684q21 0 40 -5t36 -10.5t32 -10.5t27 -5q20 0 30 11.5t15 24.5h5q25 0 44 -15.5t19 -44.5q0 -36 -24 -55.5t-62 -19.5q-23 0 -42.5 5t-36.5 11t-31.5 11t-26.5 5q-20 0 -30 -11.5t-15 -25.5h-4q-26 0 -44.5 15.5t-18.5 44.5
q0 19 7.5 33t20 23.5t28 14t31.5 4.5z" />
    <glyph glyph-name="odieresis" unicode="&#xf6;" horiz-adv-x="570" 
d="M530 237q0 -58 -17.5 -104.5t-49.5 -79.5t-77 -50.5t-101 -17.5t-101 17.5t-77 50t-49.5 79t-17.5 105.5q0 58 17.5 104.5t50 79t77.5 50t100 17.5t100 -17.5t77.5 -50.5t50 -79.5t17.5 -103.5zM285 388q-54 0 -85 -39.5t-31 -111.5q0 -73 30.5 -112t85.5 -39t85.5 39.5
t30.5 111.5t-31 111.5t-85 39.5zM255 616q0 -27 -19.5 -46t-48.5 -19q-30 0 -48.5 19t-18.5 46q0 28 18.5 47t48.5 19q29 0 48.5 -19t19.5 -47zM449 616q0 -27 -19 -46t-48 -19t-48.5 19t-19.5 46q0 28 19.5 47t48.5 19t48 -19t19 -47z" />
    <glyph glyph-name="divide" unicode="&#xf7;" horiz-adv-x="524" 
d="M52 243q-5 9 -8.5 21.5t-3.5 27.5q0 27 13 39.5t36 12.5h382q5 -8 8.5 -21t3.5 -28q0 -27 -13 -39.5t-35 -12.5h-383zM198 127q0 29 18 48t48 19t48 -19t18 -48q0 -28 -18 -47t-48 -19t-48 19t-18 47zM198 458q0 29 18 48t48 19t48 -19t18 -48t-18 -47.5t-48 -18.5
t-48 18.5t-18 47.5z" />
    <glyph glyph-name="oslash" unicode="&#xf8;" horiz-adv-x="570" 
d="M530 237q0 -58 -17.5 -104.5t-49.5 -79.5t-77 -50.5t-101 -17.5q-60 0 -109 20l-45 -66q-22 0 -40 12.5t-18 29.5q0 10 7 20l31 46q-34 33 -52.5 81t-18.5 109q0 58 17.5 104.5t50 79t77.5 50t100 17.5q58 0 108 -22l46 69q20 0 39 -11.5t19 -30.5q0 -8 -7 -18l-34 -49
q35 -33 54.5 -81t19.5 -108zM408 237q0 54 -20 91l-153 -233q21 -10 50 -10q55 0 89 38.5t34 113.5zM285 389q-54 0 -88.5 -39t-34.5 -113q0 -53 19 -91l153 233q-11 5 -23 7.5t-26 2.5z" />
    <glyph glyph-name="ugrave" unicode="&#xf9;" horiz-adv-x="566" 
d="M503 93q0 -23 -8 -38.5t-29 -27.5q-29 -18 -73.5 -30t-101.5 -12q-52 0 -94 11.5t-72 35.5t-46 61t-16 88v291q8 3 23.5 5.5t34.5 2.5q35 0 52 -12.5t17 -46.5v-238q0 -52 26.5 -74.5t75.5 -22.5q31 0 52.5 6t32.5 13v367q8 3 23.5 5.5t33.5 2.5q36 0 52.5 -12.5
t16.5 -46.5v-328zM130 640q-2 10 -2 18q0 27 16 42.5t40 15.5q32 0 55 -27l89 -112q-2 -26 -17.5 -39.5t-34.5 -13.5q-17 0 -28 5t-22 16z" />
    <glyph glyph-name="uacute" unicode="&#xfa;" horiz-adv-x="566" 
d="M503 93q0 -23 -8 -38.5t-29 -27.5q-29 -18 -73.5 -30t-101.5 -12q-52 0 -94 11.5t-72 35.5t-46 61t-16 88v291q8 3 23.5 5.5t34.5 2.5q35 0 52 -12.5t17 -46.5v-238q0 -52 26.5 -74.5t75.5 -22.5q31 0 52.5 6t32.5 13v367q8 3 23.5 5.5t33.5 2.5q36 0 52.5 -12.5
t16.5 -46.5v-328zM356 720q37 0 57 -17t20 -38q0 -19 -8 -30.5t-27 -28.5l-93 -84q-32 0 -49.5 16t-17.5 35q0 11 4.5 19t14.5 19z" />
    <glyph glyph-name="ucircumflex" unicode="&#xfb;" horiz-adv-x="566" 
d="M503 93q0 -23 -8 -38.5t-29 -27.5q-29 -18 -73.5 -30t-101.5 -12q-52 0 -94 11.5t-72 35.5t-46 61t-16 88v291q8 3 23.5 5.5t34.5 2.5q35 0 52 -12.5t17 -46.5v-238q0 -52 26.5 -74.5t75.5 -22.5q31 0 52.5 6t32.5 13v367q8 3 23.5 5.5t33.5 2.5q36 0 52.5 -12.5
t16.5 -46.5v-328zM283 622q-25 -29 -44 -49.5t-40 -45.5q-29 1 -46.5 14.5t-17.5 34.5q0 16 8.5 27t24.5 28l47 50q16 15 32 23.5t38 8.5q21 0 37.5 -7.5t36.5 -31.5l77 -94q0 -21 -12 -36t-37 -15q-17 0 -28.5 8.5t-22.5 22.5z" />
    <glyph glyph-name="udieresis" unicode="&#xfc;" horiz-adv-x="566" 
d="M503 93q0 -23 -8 -38.5t-29 -27.5q-29 -18 -73.5 -30t-101.5 -12q-52 0 -94 11.5t-72 35.5t-46 61t-16 88v291q8 3 23.5 5.5t34.5 2.5q35 0 52 -12.5t17 -46.5v-238q0 -52 26.5 -74.5t75.5 -22.5q31 0 52.5 6t32.5 13v367q8 3 23.5 5.5t33.5 2.5q36 0 52.5 -12.5
t16.5 -46.5v-328zM251 616q0 -27 -19.5 -46t-48.5 -19q-30 0 -48.5 19t-18.5 46q0 28 18.5 47t48.5 19q29 0 48.5 -19t19.5 -47zM445 616q0 -27 -19 -46t-48 -19t-48.5 19t-19.5 46q0 28 19.5 47t48.5 19t48 -19t19 -47z" />
    <glyph glyph-name="yacute" unicode="&#xfd;" horiz-adv-x="521" 
d="M148 114q-24 50 -57 135t-66 206q10 12 28 20.5t39 8.5q26 0 42.5 -12t26.5 -43q47 -151 107 -306h4q13 33 27.5 75t28 88t25.5 93t21 91q12 6 25.5 10t28.5 4q26 0 45 -12t19 -39q0 -30 -13 -84.5t-34.5 -117t-48.5 -126t-54 -111.5q-52 -92 -94.5 -137.5t-83.5 -45.5
q-32 0 -51.5 18.5t-24.5 46.5q16 14 34 32.5t36 39.5t34 43t28 43q-9 3 -17.5 7.5t-17 13.5t-18 23t-19.5 36zM317 720q37 0 57 -17t20 -38q0 -19 -8 -30.5t-27 -28.5l-93 -84q-32 0 -49.5 16t-17.5 35q0 11 4.5 19t14.5 19z" />
    <glyph glyph-name="thorn" unicode="&#xfe;" horiz-adv-x="571" 
d="M290 -14q-29 0 -53.5 5.5t-44.5 13.5v-178q-9 -3 -24 -5.5t-34 -2.5q-35 0 -52 13t-17 46v773q8 2 23.5 4.5t33.5 2.5q36 0 53 -13t17 -46v-130q20 8 45 13.5t54 5.5q49 0 92 -14.5t75 -45t51 -77.5t19 -112q0 -63 -18 -110t-49.5 -79t-75 -48t-95.5 -16zM271 87
q60 0 94 37t34 115q0 40 -9.5 68.5t-26.5 46.5t-39.5 26t-49.5 8q-43 0 -82 -21v-259q16 -9 35.5 -15t43.5 -6z" />
    <glyph glyph-name="ydieresis" unicode="&#xff;" horiz-adv-x="521" 
d="M148 114q-24 50 -57 135t-66 206q10 12 28 20.5t39 8.5q26 0 42.5 -12t26.5 -43q47 -151 107 -306h4q13 33 27.5 75t28 88t25.5 93t21 91q12 6 25.5 10t28.5 4q26 0 45 -12t19 -39q0 -30 -13 -84.5t-34.5 -117t-48.5 -126t-54 -111.5q-52 -92 -94.5 -137.5t-83.5 -45.5
q-32 0 -51.5 18.5t-24.5 46.5q16 14 34 32.5t36 39.5t34 43t28 43q-9 3 -17.5 7.5t-17 13.5t-18 23t-19.5 36zM229 616q0 -27 -19.5 -46t-48.5 -19q-30 0 -48.5 19t-18.5 46q0 28 18.5 47t48.5 19q29 0 48.5 -19t19.5 -47zM423 616q0 -27 -19 -46t-48 -19t-48.5 19t-19.5 46
q0 28 19.5 47t48.5 19t48 -19t19 -47z" />
    <glyph glyph-name="Amacron" unicode="&#x100;" horiz-adv-x="610" 
d="M162 692q-5 8 -9.5 20.5t-4.5 26.5q0 27 12 38.5t32 11.5h247q13 -18 13 -47q0 -28 -11.5 -39t-31.5 -11h-247zM416 143h-224q-11 -37 -23.5 -77t-20.5 -66q-10 -4 -21.5 -7t-28.5 -3q-34 0 -53 13.5t-19 38.5q0 12 3.5 23.5t8.5 26.5q8 28 21.5 67.5t29 86t33.5 96
t34.5 96t32 87t26.5 69.5q13 7 38.5 14t51.5 7q35 0 64 -10.5t37 -33.5q20 -55 44 -126.5t48.5 -147.5t47.5 -149t41 -131q-10 -11 -27.5 -18.5t-41.5 -7.5q-35 0 -49.5 12.5t-22.5 39.5zM304 501q-9 -25 -19.5 -56t-22 -64.5t-23.5 -68t-23 -67.5h174l-81 256h-5z" />
    <glyph glyph-name="amacron" unicode="&#x101;" horiz-adv-x="522" 
d="M250 81q29 0 53 5.5t35 13.5v111l-97 -9q-40 -4 -61 -17.5t-21 -42.5t21.5 -45t69.5 -16zM246 488q98 0 156.5 -42t58.5 -130v-231q0 -24 -12 -38t-30 -25q-28 -17 -71 -27t-98 -10q-100 0 -157.5 38.5t-57.5 115.5q0 67 42.5 102.5t123.5 43.5l137 14v18q0 38 -27.5 56
t-77.5 18q-39 0 -76 -9.5t-66 -23.5q-11 8 -18.5 21.5t-7.5 29.5q0 20 9.5 32.5t30.5 22.5q29 12 66 18t75 6zM127 567q-5 8 -9.5 20.5t-4.5 26.5q0 28 12 39t32 11h247q13 -18 13 -47q0 -27 -11.5 -38.5t-31.5 -11.5h-247z" />
    <glyph glyph-name="Abreve" unicode="&#x102;" horiz-adv-x="610" 
d="M416 143h-224q-11 -37 -23.5 -77t-20.5 -66q-10 -4 -21.5 -7t-28.5 -3q-34 0 -53 13.5t-19 38.5q0 12 3.5 23.5t8.5 26.5q8 28 21.5 67.5t29 86t33.5 96t34.5 96t32 87t26.5 69.5q13 7 38.5 14t51.5 7q35 0 64 -10.5t37 -33.5q20 -55 44 -126.5t48.5 -147.5t47.5 -149
t41 -131q-10 -11 -27.5 -18.5t-41.5 -7.5q-35 0 -49.5 12.5t-22.5 39.5zM304 501q-9 -25 -19.5 -56t-22 -64.5t-23.5 -68t-23 -67.5h174l-81 256h-5zM307 757q31 0 50.5 16t25.5 42q5 1 8.5 1.5t8.5 0.5q29 0 43.5 -16.5t14.5 -39.5q0 -19 -10 -36.5t-29 -31t-47 -21.5
t-65 -8q-38 0 -66 8t-47.5 21.5t-29 31t-9.5 36.5q0 23 14.5 39.5t43.5 16.5q5 0 9 -0.5t9 -1.5q5 -26 24.5 -42t51.5 -16z" />
    <glyph glyph-name="abreve" unicode="&#x103;" horiz-adv-x="522" 
d="M250 81q29 0 53 5.5t35 13.5v111l-97 -9q-40 -4 -61 -17.5t-21 -42.5t21.5 -45t69.5 -16zM246 488q98 0 156.5 -42t58.5 -130v-231q0 -24 -12 -38t-30 -25q-28 -17 -71 -27t-98 -10q-100 0 -157.5 38.5t-57.5 115.5q0 67 42.5 102.5t123.5 43.5l137 14v18q0 38 -27.5 56
t-77.5 18q-39 0 -76 -9.5t-66 -23.5q-11 8 -18.5 21.5t-7.5 29.5q0 20 9.5 32.5t30.5 22.5q29 12 66 18t75 6zM263 640q31 0 50.5 16t25.5 42q5 1 8.5 1.5t8.5 0.5q29 0 43.5 -16.5t14.5 -39.5q0 -19 -10 -36.5t-29 -31t-47 -21.5t-65 -8q-38 0 -66 8t-47.5 21.5t-29 31
t-9.5 36.5q0 23 14.5 39.5t43.5 16.5q5 0 9 -0.5t9 -1.5q5 -26 24.5 -42t51.5 -16z" />
    <glyph glyph-name="Aogonek" unicode="&#x104;" horiz-adv-x="610" 
d="M416 143h-224q-11 -37 -23.5 -77t-20.5 -66q-10 -4 -21.5 -7t-28.5 -3q-34 0 -53 13.5t-19 38.5q0 12 3.5 23.5t8.5 26.5q8 28 21.5 67.5t29 86t33.5 96t34.5 96t32 87t26.5 69.5q13 7 38.5 14t51.5 7q35 0 64 -10.5t37 -33.5q20 -55 44 -126.5t48.5 -147.5t47.5 -149
t41 -131q-11 -13 -27 -18q-13 -11 -21.5 -24t-8.5 -32q0 -23 15.5 -35.5t43.5 -12.5h9q3 -8 5 -16t2 -17q0 -23 -15.5 -39.5t-56.5 -16.5q-50 0 -83.5 26.5t-33.5 74.5q0 35 16.5 60.5t34.5 37.5q-13 10 -21 38zM304 501q-9 -25 -19.5 -56t-22 -64.5t-23.5 -68t-23 -67.5
h174l-81 256h-5z" />
    <glyph glyph-name="aogonek" unicode="&#x105;" horiz-adv-x="522" 
d="M246 488q98 0 156.5 -42t58.5 -130v-231q0 -20 -8 -32t-21 -22q-25 -20 -40.5 -39t-15.5 -49q0 -23 15.5 -35.5t42.5 -12.5h10q3 -8 5 -16t2 -17q0 -23 -15.5 -39.5t-57.5 -16.5q-50 0 -83.5 26.5t-33.5 74.5q0 27 10 46.5t24 33.5q-11 -1 -22 -1.5t-23 -0.5
q-100 0 -157.5 38.5t-57.5 115.5q0 67 42.5 102.5t123.5 43.5l137 14v18q0 38 -27.5 56t-77.5 18q-39 0 -76 -9.5t-66 -23.5q-11 8 -18.5 21.5t-7.5 29.5q0 20 9.5 32.5t30.5 22.5q29 12 66 18t75 6zM250 81q29 0 53 5.5t35 13.5v111l-97 -9q-40 -4 -61 -17.5t-21 -42.5
t21.5 -45t69.5 -16z" />
    <glyph glyph-name="Cacute" unicode="&#x106;" horiz-adv-x="579" 
d="M537 529q0 -20 -11 -34.5t-25 -22.5q-26 17 -58 31t-79 14q-85 0 -135.5 -55t-50.5 -159q0 -106 52 -159t140 -53q46 0 79.5 12.5t59.5 29.5q14 -9 23 -24.5t9 -35.5q0 -17 -9 -31t-30 -25q-20 -12 -56.5 -22.5t-90.5 -10.5q-66 0 -122.5 19.5t-98.5 59t-66 99.5t-24 141
q0 78 24 137.5t65.5 100t97 61.5t117.5 21q43 0 78 -7.5t60 -20.5t38 -30t13 -36zM399 833q32 0 50 -15.5t18 -38.5q0 -17 -7.5 -29.5t-28.5 -27.5l-93 -66q-29 1 -45 14t-16 31q0 11 4 20t15 19z" />
    <glyph glyph-name="cacute" unicode="&#x107;" horiz-adv-x="484" 
d="M308 387q-30 0 -55.5 -10t-44 -29t-29.5 -47t-11 -65q0 -74 39 -111.5t101 -37.5q35 0 60.5 9.5t45.5 20.5q14 -10 22.5 -23t8.5 -30q0 -34 -40 -56t-108 -22q-57 0 -104.5 15.5t-81.5 47t-52.5 78.5t-18.5 109q0 63 20 110.5t54.5 79t80.5 47t98 15.5q67 0 107 -23.5
t40 -57.5q0 -16 -8.5 -29t-19.5 -21q-20 11 -44.5 20.5t-59.5 9.5zM341 720q37 0 57 -17t20 -38q0 -19 -8 -30.5t-27 -28.5l-93 -84q-32 0 -49.5 16t-17.5 35q0 11 4.5 19t14.5 19z" />
    <glyph glyph-name="Ccircumflex" unicode="&#x108;" horiz-adv-x="579" 
d="M537 529q0 -20 -11 -34.5t-25 -22.5q-26 17 -58 31t-79 14q-85 0 -135.5 -55t-50.5 -159q0 -106 52 -159t140 -53q46 0 79.5 12.5t59.5 29.5q14 -9 23 -24.5t9 -35.5q0 -17 -9 -31t-30 -25q-20 -12 -56.5 -22.5t-90.5 -10.5q-66 0 -122.5 19.5t-98.5 59t-66 99.5t-24 141
q0 78 24 137.5t65.5 100t97 61.5t117.5 21q43 0 78 -7.5t60 -20.5t38 -30t13 -36zM338 742q-20 -20 -44 -43t-49 -45q-24 1 -40 14.5t-16 33.5q0 17 9 28.5t27 28.5l44 40q39 32 71 32q21 0 37 -8.5t34 -25.5l81 -87q0 -26 -14.5 -40t-37.5 -14q-16 0 -29 10t-33 31z" />
    <glyph glyph-name="ccircumflex" unicode="&#x109;" horiz-adv-x="484" 
d="M308 387q-30 0 -55.5 -10t-44 -29t-29.5 -47t-11 -65q0 -74 39 -111.5t101 -37.5q35 0 60.5 9.5t45.5 20.5q14 -10 22.5 -23t8.5 -30q0 -34 -40 -56t-108 -22q-57 0 -104.5 15.5t-81.5 47t-52.5 78.5t-18.5 109q0 63 20 110.5t54.5 79t80.5 47t98 15.5q67 0 107 -23.5
t40 -57.5q0 -16 -8.5 -29t-19.5 -21q-20 11 -44.5 20.5t-59.5 9.5zM275 622q-25 -29 -44 -49.5t-40 -45.5q-29 1 -46.5 14.5t-17.5 34.5q0 16 8.5 27t24.5 28l47 50q16 15 32 23.5t38 8.5q21 0 37.5 -7.5t36.5 -31.5l77 -94q0 -21 -12 -36t-37 -15q-17 0 -28.5 8.5
t-22.5 22.5z" />
    <glyph glyph-name="Cdotaccent" unicode="&#x10a;" horiz-adv-x="579" 
d="M537 529q0 -20 -11 -34.5t-25 -22.5q-26 17 -58 31t-79 14q-85 0 -135.5 -55t-50.5 -159q0 -106 52 -159t140 -53q46 0 79.5 12.5t59.5 29.5q14 -9 23 -24.5t9 -35.5q0 -17 -9 -31t-30 -25q-20 -12 -56.5 -22.5t-90.5 -10.5q-66 0 -122.5 19.5t-98.5 59t-66 99.5t-24 141
q0 78 24 137.5t65.5 100t97 61.5t117.5 21q43 0 78 -7.5t60 -20.5t38 -30t13 -36zM409 746q0 -29 -19.5 -49t-51.5 -20t-51.5 20t-19.5 49q0 30 19.5 49.5t51.5 19.5t51.5 -19.5t19.5 -49.5z" />
    <glyph glyph-name="cdotaccent" unicode="&#x10b;" horiz-adv-x="484" 
d="M308 387q-30 0 -55.5 -10t-44 -29t-29.5 -47t-11 -65q0 -74 39 -111.5t101 -37.5q35 0 60.5 9.5t45.5 20.5q14 -10 22.5 -23t8.5 -30q0 -34 -40 -56t-108 -22q-57 0 -104.5 15.5t-81.5 47t-52.5 78.5t-18.5 109q0 63 20 110.5t54.5 79t80.5 47t98 15.5q67 0 107 -23.5
t40 -57.5q0 -16 -8.5 -29t-19.5 -21q-20 11 -44.5 20.5t-59.5 9.5zM345 620q0 -29 -19.5 -49t-51.5 -20t-51.5 20t-19.5 49q0 30 19.5 49.5t51.5 19.5t51.5 -19.5t19.5 -49.5z" />
    <glyph glyph-name="Ccaron" unicode="&#x10c;" horiz-adv-x="579" 
d="M537 529q0 -20 -11 -34.5t-25 -22.5q-26 17 -58 31t-79 14q-85 0 -135.5 -55t-50.5 -159q0 -106 52 -159t140 -53q46 0 79.5 12.5t59.5 29.5q14 -9 23 -24.5t9 -35.5q0 -17 -9 -31t-30 -25q-20 -12 -56.5 -22.5t-90.5 -10.5q-66 0 -122.5 19.5t-98.5 59t-66 99.5t-24 141
q0 78 24 137.5t65.5 100t97 61.5t117.5 21q43 0 78 -7.5t60 -20.5t38 -30t13 -36zM435 831q26 -1 43 -14.5t17 -34.5q0 -17 -9.5 -28.5t-28.5 -28.5l-43 -40q-20 -17 -35.5 -23.5t-34.5 -6.5q-23 0 -40 8.5t-33 24.5l-83 81q0 29 13.5 44t37.5 15q16 0 30 -8.5t35 -31.5
l40 -46z" />
    <glyph glyph-name="ccaron" unicode="&#x10d;" horiz-adv-x="484" 
d="M308 387q-30 0 -55.5 -10t-44 -29t-29.5 -47t-11 -65q0 -74 39 -111.5t101 -37.5q35 0 60.5 9.5t45.5 20.5q14 -10 22.5 -23t8.5 -30q0 -34 -40 -56t-108 -22q-57 0 -104.5 15.5t-81.5 47t-52.5 78.5t-18.5 109q0 63 20 110.5t54.5 79t80.5 47t98 15.5q67 0 107 -23.5
t40 -57.5q0 -16 -8.5 -29t-19.5 -21q-20 11 -44.5 20.5t-59.5 9.5zM273 621l90 90q29 -1 46.5 -15t17.5 -36q0 -16 -9.5 -27.5t-27.5 -28.5l-53 -50q-29 -26 -62 -26q-21 0 -37.5 7.5t-41.5 31.5l-79 78q-1 4 -1 9q0 20 12 37.5t37 17.5q16 0 28.5 -7t32.5 -29z" />
    <glyph glyph-name="Dcaron" unicode="&#x10e;" horiz-adv-x="659" 
d="M482 306q0 54 -15 93.5t-41.5 65t-63 38t-79.5 12.5q-23 0 -41.5 -1.5t-35.5 -3.5v-411q17 -4 38.5 -5.5t42.5 -1.5q93 0 144 54t51 160zM615 307q0 -81 -23.5 -141.5t-66.5 -100t-103.5 -59.5t-134.5 -20q-17 0 -37 0.5t-41.5 3t-43 6.5t-40.5 11q-48 18 -48 60v490
q0 18 10 28t28 16q37 13 80.5 16.5t82.5 3.5q75 0 137.5 -19.5t106.5 -58.5t68.5 -98t24.5 -138zM419 831q26 -1 43 -14.5t17 -34.5q0 -17 -9.5 -28.5t-28.5 -28.5l-43 -40q-20 -17 -35.5 -23.5t-34.5 -6.5q-23 0 -40 8.5t-33 24.5l-83 81q0 29 13.5 44t37.5 15
q16 0 30 -8.5t35 -31.5l40 -46z" />
    <glyph glyph-name="dcaron" unicode="&#x10f;" horiz-adv-x="700" 
d="M502 92q0 -23 -10 -37t-30 -27q-25 -16 -66 -29.5t-95 -13.5q-120 0 -190.5 61.5t-70.5 188.5q0 66 19 113.5t51.5 78.5t76.5 46t95 15q27 0 51 -5.5t43 -13.5v181q8 3 23.5 5.5t33.5 2.5q36 0 52.5 -13t16.5 -46v-507zM376 367q-15 9 -35 15t-43 6q-56 0 -93 -36
t-37 -118q0 -77 35.5 -112.5t96.5 -35.5q26 0 44.5 6t31.5 14v261zM654 504q-13 -14 -27.5 -20t-31.5 -6q-31 0 -48 19q17 38 28 76t16 72q12 7 27.5 11t31.5 4q24 0 39.5 -10t15.5 -32q0 -12 -4.5 -28t-12 -31.5t-16.5 -30t-18 -24.5z" />
    <glyph glyph-name="Dcroat" unicode="&#x110;" horiz-adv-x="696" 
d="M651 307q0 -81 -23.5 -141.5t-66.5 -100t-103.5 -59.5t-134.5 -20q-17 0 -37 0.5t-41.5 3t-43 6.5t-40.5 11q-48 18 -48 60v187h-89q-5 8 -9.5 20.5t-4.5 28.5q0 27 12.5 40.5t33.5 13.5h57v200q0 18 10 28t28 16q37 13 80.5 16.5t82.5 3.5q75 0 137.5 -19.5t106.5 -58.5
t68.5 -98t24.5 -138zM518 306q0 54 -15 93.5t-41.5 65t-63 38t-79.5 12.5q-23 0 -41.5 -1.5t-35.5 -3.5v-153h116q5 -8 9.5 -21t4.5 -29q0 -53 -46 -53h-84v-155q17 -4 38.5 -5.5t42.5 -1.5q93 0 144 54t51 160z" />
    <glyph glyph-name="dcroat" unicode="&#x111;" horiz-adv-x="572" 
d="M502 529v-437q0 -23 -10 -37t-30 -27q-25 -16 -66 -29.5t-95 -13.5q-120 0 -190.5 61.5t-70.5 188.5q0 66 19 113.5t51.5 78.5t76.5 46t95 15q27 0 51 -5.5t43 -13.5v60h-87q-4 6 -7.5 16t-3.5 22q0 20 9.5 29.5t25.5 9.5h63v60q8 3 23.5 5.5t33.5 2.5q36 0 52.5 -13
t16.5 -46v-9h58q3 -6 6.5 -16t3.5 -21q0 -40 -35 -40h-33zM376 367q-15 9 -35 15t-43 6q-56 0 -93 -36t-37 -118q0 -77 35.5 -112.5t96.5 -35.5q26 0 44.5 6t31.5 14v261z" />
    <glyph glyph-name="Emacron" unicode="&#x112;" horiz-adv-x="545" 
d="M152 -2q-32 0 -50.5 19t-18.5 51v470q0 32 18.5 50.5t50.5 18.5h331q5 -8 9 -21t4 -29q0 -26 -12 -40t-33 -14h-242v-142h244q5 -8 9.5 -20.5t4.5 -28.5q0 -54 -46 -54h-212v-155h278q5 -8 9.5 -21.5t4.5 -29.5q0 -54 -46 -54h-303zM155 692q-5 8 -9.5 20.5t-4.5 26.5
q0 28 12 39t32 11h247q13 -18 13 -47q0 -27 -11.5 -38.5t-31.5 -11.5h-247z" />
    <glyph glyph-name="emacron" unicode="&#x113;" horiz-adv-x="534" 
d="M166 180q14 -51 52 -74t94 -23q42 0 77.5 12.5t57.5 26.5q14 -8 23 -22t9 -30q0 -20 -13.5 -35.5t-37 -26.5t-55.5 -17t-69 -6q-59 0 -107.5 16t-83 48.5t-54 80.5t-19.5 112q0 62 19 108t51.5 77t75.5 46t91 15q49 0 90 -15.5t70 -43t45.5 -66t16.5 -83.5
q0 -28 -14.5 -42t-40.5 -18zM277 393q-49 0 -82 -32.5t-37 -92.5l222 33q-4 37 -29 64.5t-74 27.5zM138 567q-5 8 -9.5 20.5t-4.5 26.5q0 28 12 39t32 11h247q13 -18 13 -47q0 -27 -11.5 -38.5t-31.5 -11.5h-247z" />
    <glyph glyph-name="Ebreve" unicode="&#x114;" horiz-adv-x="545" 
d="M152 -2q-32 0 -50.5 19t-18.5 51v470q0 32 18.5 50.5t50.5 18.5h331q5 -8 9 -21t4 -29q0 -26 -12 -40t-33 -14h-242v-142h244q5 -8 9.5 -20.5t4.5 -28.5q0 -54 -46 -54h-212v-155h278q5 -8 9.5 -21.5t4.5 -29.5q0 -54 -46 -54h-303zM300 762q31 0 50.5 16t25.5 42
q5 1 8.5 1.5t8.5 0.5q29 0 43.5 -16.5t14.5 -39.5q0 -19 -10 -36.5t-29 -31t-47 -21.5t-65 -8q-38 0 -66 8t-47.5 21.5t-29 31t-9.5 36.5q0 23 14.5 39.5t43.5 16.5q5 0 9 -0.5t9 -1.5q5 -26 24.5 -42t51.5 -16z" />
    <glyph glyph-name="ebreve" unicode="&#x115;" horiz-adv-x="534" 
d="M166 180q14 -51 52 -74t94 -23q42 0 77.5 12.5t57.5 26.5q14 -8 23 -22t9 -30q0 -20 -13.5 -35.5t-37 -26.5t-55.5 -17t-69 -6q-59 0 -107.5 16t-83 48.5t-54 80.5t-19.5 112q0 62 19 108t51.5 77t75.5 46t91 15q49 0 90 -15.5t70 -43t45.5 -66t16.5 -83.5
q0 -28 -14.5 -42t-40.5 -18zM277 393q-49 0 -82 -32.5t-37 -92.5l222 33q-4 37 -29 64.5t-74 27.5zM281 640q31 0 50.5 16t25.5 42q5 1 8.5 1.5t8.5 0.5q29 0 43.5 -16.5t14.5 -39.5q0 -19 -10 -36.5t-29 -31t-47 -21.5t-65 -8q-38 0 -66 8t-47.5 21.5t-29 31t-9.5 36.5
q0 23 14.5 39.5t43.5 16.5q5 0 9 -0.5t9 -1.5q5 -26 24.5 -42t51.5 -16z" />
    <glyph glyph-name="Edotaccent" unicode="&#x116;" horiz-adv-x="545" 
d="M152 -2q-32 0 -50.5 19t-18.5 51v470q0 32 18.5 50.5t50.5 18.5h331q5 -8 9 -21t4 -29q0 -26 -12 -40t-33 -14h-242v-142h244q5 -8 9.5 -20.5t4.5 -28.5q0 -54 -46 -54h-212v-155h278q5 -8 9.5 -21.5t4.5 -29.5q0 -54 -46 -54h-303zM375 746q0 -29 -19.5 -49t-51.5 -20
t-51.5 20t-19.5 49q0 30 19.5 49.5t51.5 19.5t51.5 -19.5t19.5 -49.5z" />
    <glyph glyph-name="edotaccent" unicode="&#x117;" horiz-adv-x="534" 
d="M166 180q14 -51 52 -74t94 -23q42 0 77.5 12.5t57.5 26.5q14 -8 23 -22t9 -30q0 -20 -13.5 -35.5t-37 -26.5t-55.5 -17t-69 -6q-59 0 -107.5 16t-83 48.5t-54 80.5t-19.5 112q0 62 19 108t51.5 77t75.5 46t91 15q49 0 90 -15.5t70 -43t45.5 -66t16.5 -83.5
q0 -28 -14.5 -42t-40.5 -18zM277 393q-49 0 -82 -32.5t-37 -92.5l222 33q-4 37 -29 64.5t-74 27.5zM349 620q0 -29 -19.5 -49t-51.5 -20t-51.5 20t-19.5 49q0 30 19.5 49.5t51.5 19.5t51.5 -19.5t19.5 -49.5z" />
    <glyph glyph-name="Eogonek" unicode="&#x118;" horiz-adv-x="545" 
d="M152 -2q-32 0 -50.5 19t-18.5 51v470q0 32 18.5 50.5t50.5 18.5h331q5 -8 9 -21t4 -29q0 -26 -12 -40t-33 -14h-242v-142h244q5 -8 9.5 -20.5t4.5 -28.5q0 -54 -46 -54h-212v-155h278q5 -8 9.5 -21.5t4.5 -29.5q0 -27 -12 -40t-33 -14q-13 -10 -21 -23t-8 -32
q0 -23 15.5 -35.5t43.5 -12.5h9q3 -8 5 -16t2 -17q0 -23 -15.5 -39.5t-57.5 -16.5q-50 0 -83.5 26.5t-33.5 74.5q0 32 13.5 54.5t30.5 36.5h-204v0z" />
    <glyph glyph-name="eogonek" unicode="&#x119;" horiz-adv-x="534" 
d="M166 180q14 -51 52 -74t94 -23q42 0 77.5 12.5t57.5 26.5q14 -8 23 -22t9 -30q0 -25 -20 -43t-54 -28q-14 -11 -22 -24t-8 -32q0 -23 15.5 -35.5t43.5 -12.5h9q3 -8 5 -16t2 -17q0 -23 -15.5 -39.5t-57.5 -16.5q-50 0 -83.5 26.5t-33.5 74.5q0 26 8.5 45t21.5 33
q-56 2 -102 19t-79 49.5t-51 79.5t-18 109t19 108t51.5 77t75.5 46t91 15q49 0 90 -15.5t70 -43t45.5 -66t16.5 -83.5q0 -28 -14.5 -42t-40.5 -18zM277 393q-49 0 -82 -32.5t-37 -92.5l222 33q-4 37 -29 64.5t-74 27.5z" />
    <glyph glyph-name="Ecaron" unicode="&#x11a;" horiz-adv-x="545" 
d="M152 -2q-32 0 -50.5 19t-18.5 51v470q0 32 18.5 50.5t50.5 18.5h331q5 -8 9 -21t4 -29q0 -26 -12 -40t-33 -14h-242v-142h244q5 -8 9.5 -20.5t4.5 -28.5q0 -54 -46 -54h-212v-155h278q5 -8 9.5 -21.5t4.5 -29.5q0 -54 -46 -54h-303zM392 831q26 -1 43 -14.5t17 -34.5
q0 -17 -9.5 -28.5t-28.5 -28.5l-43 -40q-20 -17 -35.5 -23.5t-34.5 -6.5q-23 0 -40 8.5t-33 24.5l-83 81q0 29 13.5 44t37.5 15q16 0 30 -8.5t35 -31.5l40 -46z" />
    <glyph glyph-name="ecaron" unicode="&#x11b;" horiz-adv-x="534" 
d="M166 180q14 -51 52 -74t94 -23q42 0 77.5 12.5t57.5 26.5q14 -8 23 -22t9 -30q0 -20 -13.5 -35.5t-37 -26.5t-55.5 -17t-69 -6q-59 0 -107.5 16t-83 48.5t-54 80.5t-19.5 112q0 62 19 108t51.5 77t75.5 46t91 15q49 0 90 -15.5t70 -43t45.5 -66t16.5 -83.5
q0 -28 -14.5 -42t-40.5 -18zM277 393q-49 0 -82 -32.5t-37 -92.5l222 33q-4 37 -29 64.5t-74 27.5zM281 621l90 90q29 -1 46.5 -15t17.5 -36q0 -16 -9.5 -27.5t-27.5 -28.5l-53 -50q-29 -26 -62 -26q-21 0 -37.5 7.5t-41.5 31.5l-79 78q-1 4 -1 9q0 20 12 37.5t37 17.5
q16 0 28.5 -7t32.5 -29z" />
    <glyph glyph-name="Gcircumflex" unicode="&#x11c;" horiz-adv-x="652" 
d="M593 84q0 -25 -10.5 -38.5t-33.5 -25.5q-13 -8 -32.5 -14.5t-43 -11t-48.5 -7.5t-50 -3q-71 0 -131.5 18.5t-105 57.5t-69.5 99t-25 143q0 79 25.5 139.5t70 100.5t103.5 60.5t127 20.5q45 0 81.5 -7.5t63 -20t40.5 -30t14 -36.5q0 -20 -11 -35t-25 -23q-26 17 -63 31.5
t-91 14.5q-44 0 -81 -14.5t-63.5 -41.5t-41.5 -67t-15 -91q0 -55 15 -95t41.5 -66.5t63 -39t79.5 -12.5q29 0 53 5t37 12v139h-128q-5 8 -9 21t-4 29q0 26 12.5 39t32.5 13h168q25 0 39.5 -14t14.5 -39v-211zM350 742q-20 -20 -44 -43t-49 -45q-24 1 -40 14.5t-16 33.5
q0 17 9 28.5t27 28.5l44 40q39 32 71 32q21 0 37 -8.5t34 -25.5l81 -87q0 -26 -14.5 -40t-37.5 -14q-16 0 -29 10t-33 31z" />
    <glyph glyph-name="gcircumflex" unicode="&#x11d;" horiz-adv-x="552" 
d="M369 41q-20 -10 -46.5 -17t-61.5 -7q-45 0 -85 12.5t-70 40.5t-47.5 72.5t-17.5 108.5q0 58 17.5 102.5t50 74.5t77.5 45t100 15q52 0 95.5 -13t69.5 -30q18 -12 28.5 -27t10.5 -38v-386q0 -51 -18.5 -88t-50.5 -60.5t-75 -34.5t-93 -11q-52 0 -90.5 9.5t-57.5 21.5
q-33 21 -33 56q0 19 8 33t19 21q26 -16 63 -28t79 -12q60 0 94 23t34 74v43zM282 115q29 0 49.5 8t35.5 19v226q-14 8 -32.5 14t-44.5 6q-55 0 -88.5 -33.5t-33.5 -103.5q0 -38 8.5 -64t24 -42t36.5 -23t45 -7zM283 622q-25 -29 -44 -49.5t-40 -45.5q-29 1 -46.5 14.5
t-17.5 34.5q0 16 8.5 27t24.5 28l47 50q16 15 32 23.5t38 8.5q21 0 37.5 -7.5t36.5 -31.5l77 -94q0 -21 -12 -36t-37 -15q-17 0 -28.5 8.5t-22.5 22.5z" />
    <glyph glyph-name="Gbreve" unicode="&#x11e;" horiz-adv-x="652" 
d="M593 84q0 -25 -10.5 -38.5t-33.5 -25.5q-13 -8 -32.5 -14.5t-43 -11t-48.5 -7.5t-50 -3q-71 0 -131.5 18.5t-105 57.5t-69.5 99t-25 143q0 79 25.5 139.5t70 100.5t103.5 60.5t127 20.5q45 0 81.5 -7.5t63 -20t40.5 -30t14 -36.5q0 -20 -11 -35t-25 -23q-26 17 -63 31.5
t-91 14.5q-44 0 -81 -14.5t-63.5 -41.5t-41.5 -67t-15 -91q0 -55 15 -95t41.5 -66.5t63 -39t79.5 -12.5q29 0 53 5t37 12v139h-128q-5 8 -9 21t-4 29q0 26 12.5 39t32.5 13h168q25 0 39.5 -14t14.5 -39v-211zM345 762q31 0 50.5 16t25.5 42q5 1 8.5 1.5t8.5 0.5
q29 0 43.5 -16.5t14.5 -39.5q0 -19 -10 -36.5t-29 -31t-47 -21.5t-65 -8q-38 0 -66 8t-47.5 21.5t-29 31t-9.5 36.5q0 23 14.5 39.5t43.5 16.5q5 0 9 -0.5t9 -1.5q5 -26 24.5 -42t51.5 -16z" />
    <glyph glyph-name="gbreve" unicode="&#x11f;" horiz-adv-x="552" 
d="M369 41q-20 -10 -46.5 -17t-61.5 -7q-45 0 -85 12.5t-70 40.5t-47.5 72.5t-17.5 108.5q0 58 17.5 102.5t50 74.5t77.5 45t100 15q52 0 95.5 -13t69.5 -30q18 -12 28.5 -27t10.5 -38v-386q0 -51 -18.5 -88t-50.5 -60.5t-75 -34.5t-93 -11q-52 0 -90.5 9.5t-57.5 21.5
q-33 21 -33 56q0 19 8 33t19 21q26 -16 63 -28t79 -12q60 0 94 23t34 74v43zM282 115q29 0 49.5 8t35.5 19v226q-14 8 -32.5 14t-44.5 6q-55 0 -88.5 -33.5t-33.5 -103.5q0 -38 8.5 -64t24 -42t36.5 -23t45 -7zM280 640q31 0 50.5 16t25.5 42q5 1 8.5 1.5t8.5 0.5
q29 0 43.5 -16.5t14.5 -39.5q0 -19 -10 -36.5t-29 -31t-47 -21.5t-65 -8q-38 0 -66 8t-47.5 21.5t-29 31t-9.5 36.5q0 23 14.5 39.5t43.5 16.5q5 0 9 -0.5t9 -1.5q5 -26 24.5 -42t51.5 -16z" />
    <glyph glyph-name="Gdotaccent" unicode="&#x120;" horiz-adv-x="652" 
d="M593 84q0 -25 -10.5 -38.5t-33.5 -25.5q-13 -8 -32.5 -14.5t-43 -11t-48.5 -7.5t-50 -3q-71 0 -131.5 18.5t-105 57.5t-69.5 99t-25 143q0 79 25.5 139.5t70 100.5t103.5 60.5t127 20.5q45 0 81.5 -7.5t63 -20t40.5 -30t14 -36.5q0 -20 -11 -35t-25 -23q-26 17 -63 31.5
t-91 14.5q-44 0 -81 -14.5t-63.5 -41.5t-41.5 -67t-15 -91q0 -55 15 -95t41.5 -66.5t63 -39t79.5 -12.5q29 0 53 5t37 12v139h-128q-5 8 -9 21t-4 29q0 26 12.5 39t32.5 13h168q25 0 39.5 -14t14.5 -39v-211zM434 746q0 -29 -19.5 -49t-51.5 -20t-51.5 20t-19.5 49
q0 30 19.5 49.5t51.5 19.5t51.5 -19.5t19.5 -49.5z" />
    <glyph glyph-name="gdotaccent" unicode="&#x121;" horiz-adv-x="552" 
d="M369 41q-20 -10 -46.5 -17t-61.5 -7q-45 0 -85 12.5t-70 40.5t-47.5 72.5t-17.5 108.5q0 58 17.5 102.5t50 74.5t77.5 45t100 15q52 0 95.5 -13t69.5 -30q18 -12 28.5 -27t10.5 -38v-386q0 -51 -18.5 -88t-50.5 -60.5t-75 -34.5t-93 -11q-52 0 -90.5 9.5t-57.5 21.5
q-33 21 -33 56q0 19 8 33t19 21q26 -16 63 -28t79 -12q60 0 94 23t34 74v43zM282 115q29 0 49.5 8t35.5 19v226q-14 8 -32.5 14t-44.5 6q-55 0 -88.5 -33.5t-33.5 -103.5q0 -38 8.5 -64t24 -42t36.5 -23t45 -7zM353 620q0 -29 -19.5 -49t-51.5 -20t-51.5 20t-19.5 49
q0 30 19.5 49.5t51.5 19.5t51.5 -19.5t19.5 -49.5z" />
    <glyph glyph-name="Gcommaaccent" unicode="&#x122;" horiz-adv-x="652" 
d="M593 84q0 -25 -10.5 -38.5t-33.5 -25.5q-13 -8 -32.5 -14.5t-43 -11t-48.5 -7.5t-50 -3q-71 0 -131.5 18.5t-105 57.5t-69.5 99t-25 143q0 79 25.5 139.5t70 100.5t103.5 60.5t127 20.5q45 0 81.5 -7.5t63 -20t40.5 -30t14 -36.5q0 -20 -11 -35t-25 -23q-26 17 -63 31.5
t-91 14.5q-44 0 -81 -14.5t-63.5 -41.5t-41.5 -67t-15 -91q0 -55 15 -95t41.5 -66.5t63 -39t79.5 -12.5q29 0 53 5t37 12v139h-128q-5 8 -9 21t-4 29q0 26 12.5 39t32.5 13h168q25 0 39.5 -14t14.5 -39v-211zM365 -212q-13 -14 -27.5 -20t-31.5 -6q-30 0 -48 18
q18 38 28.5 76.5t15.5 72.5q13 6 28 10t31 4q24 0 39.5 -9.5t15.5 -31.5q0 -12 -4.5 -28t-12 -32t-16.5 -30.5t-18 -23.5z" />
    <glyph glyph-name="gcommaaccent" unicode="&#x123;" horiz-adv-x="552" 
d="M274 691q13 14 26 19.5t29 5.5q14 0 28 -5t24 -13q-36 -76 -45 -149q-11 -6 -25.5 -10.5t-30.5 -4.5q-26 0 -41.5 9t-15.5 28q0 13 4.5 30t11.5 34t16.5 32t18.5 24zM369 41q-20 -10 -46.5 -17t-61.5 -7q-45 0 -85 12.5t-70 40.5t-47.5 72.5t-17.5 108.5q0 58 17.5 102.5
t50 74.5t77.5 45t100 15q52 0 95.5 -13t69.5 -30q18 -12 28.5 -27t10.5 -38v-386q0 -51 -18.5 -88t-50.5 -60.5t-75 -34.5t-93 -11q-52 0 -90.5 9.5t-57.5 21.5q-33 21 -33 56q0 19 8 33t19 21q26 -16 63 -28t79 -12q60 0 94 23t34 74v43zM282 115q29 0 49.5 8t35.5 19v226
q-14 8 -32.5 14t-44.5 6q-55 0 -88.5 -33.5t-33.5 -103.5q0 -38 8.5 -64t24 -42t36.5 -23t45 -7z" />
    <glyph glyph-name="Hcircumflex" unicode="&#x124;" horiz-adv-x="659" 
d="M216 1q-9 -2 -25.5 -5t-35.5 -3q-38 0 -53.5 14t-15.5 47v553q8 2 25.5 5t34.5 3q36 0 53 -13t17 -48v-197h250v250q8 2 25.5 5t34.5 3q36 0 53 -13.5t17 -48.5v-552q-9 -2 -25.5 -5t-35.5 -3q-38 0 -53.5 14t-15.5 47v199h-250v-252zM333 742q-20 -20 -44 -43t-49 -45
q-24 1 -40 14.5t-16 33.5q0 17 9 28.5t27 28.5l44 40q39 32 71 32q21 0 37 -8.5t34 -25.5l81 -87q0 -26 -14.5 -40t-37.5 -14q-16 0 -29 10t-33 31z" />
    <glyph glyph-name="hcircumflex" unicode="&#x125;" horiz-adv-x="571" 
d="M193 1q-9 -2 -24 -5t-34 -3q-35 0 -52 13t-17 46v598q8 3 23.5 5.5t34.5 2.5q35 0 52 -13t17 -46v-138q22 11 50.5 19t63.5 8q91 0 145 -47t54 -142v-298q-8 -2 -23.5 -5t-33.5 -3q-36 0 -53 13t-17 46v241q0 50 -26 72.5t-68 22.5q-27 0 -50 -8.5t-42 -20.5v-358z
M122 750q-20 -20 -44 -43t-49 -45q-24 1 -40 14.5t-16 33.5q0 17 9 28.5t27 28.5l44 40q39 32 71 32q21 0 37 -8.5t34 -25.5l81 -87q0 -26 -14.5 -40t-37.5 -14q-16 0 -29 10t-33 31z" />
    <glyph glyph-name="Hbar" unicode="&#x126;" horiz-adv-x="678" 
d="M217 1q-9 -2 -25.5 -5t-35.5 -3q-38 0 -53.5 14t-15.5 47v379h-54q-4 7 -7.5 17t-3.5 22q0 21 9.5 30t26.5 9h29v96q8 2 25.5 5t34.5 3q36 0 53 -13t17 -48v-43h250v96q8 2 25.5 5t34.5 3q36 0 53 -13.5t17 -48.5v-42h49q3 -5 6.5 -15t3.5 -22q0 -41 -35 -41h-24v-432
q-9 -2 -25.5 -5t-35.5 -3q-38 0 -53.5 14t-15.5 47v199h-250v-252zM467 357v76h-250v-76h250z" />
    <glyph glyph-name="hbar" unicode="&#x127;" horiz-adv-x="575" 
d="M192 1q-9 -2 -24 -5t-34 -3q-35 0 -52 13t-17 46v477h-52q-3 5 -7 15t-4 22q0 20 9.5 30t25.5 10h28v60q8 3 23.5 5.5t34.5 2.5q35 0 52 -13t17 -46v-9h91q5 -7 8 -17t3 -21q0 -21 -9 -30t-26 -9h-67v-68q22 11 50.5 19t63.5 8q91 0 145 -47t54 -142v-298q-8 -2 -23.5 -5
t-33.5 -3q-36 0 -53 13t-17 46v241q0 50 -26 72.5t-68 22.5q-27 0 -50 -8.5t-42 -20.5v-358v0z" />
    <glyph glyph-name="Itilde" unicode="&#x128;" horiz-adv-x="284" 
d="M147 -7q-38 0 -54 14t-16 47v553q9 2 26 5t34 3q36 0 53 -13t17 -48v-553q-9 -2 -25.5 -5t-34.5 -3zM57 815q21 0 40 -5t36 -10.5t32 -10.5t27 -5q20 0 30 11.5t15 24.5h5q25 0 44 -15.5t19 -44.5q0 -36 -24 -55.5t-62 -19.5q-23 0 -42.5 5t-36.5 11t-31.5 11t-26.5 5
q-20 0 -30 -11.5t-15 -25.5h-4q-26 0 -44.5 15.5t-18.5 44.5q0 19 7.5 33t20 23.5t28 14t31.5 4.5z" />
    <glyph glyph-name="itilde" unicode="&#x129;" horiz-adv-x="262" 
d="M138 -8q-36 0 -53 13.5t-17 45.5v418q8 2 23 5t33 3q36 0 53 -13.5t17 -45.5v-418q-8 -2 -23 -5t-33 -3zM49 684q21 0 40 -5t36 -10.5t32 -10.5t27 -5q20 0 30 11.5t15 24.5h5q25 0 44 -15.5t19 -44.5q0 -36 -24 -55.5t-62 -19.5q-23 0 -42.5 5t-36.5 11t-31.5 11
t-26.5 5q-20 0 -30 -11.5t-15 -25.5h-4q-26 0 -44.5 15.5t-18.5 44.5q0 19 7.5 33t20 23.5t28 14t31.5 4.5z" />
    <glyph glyph-name="Imacron" unicode="&#x12a;" horiz-adv-x="284" 
d="M147 -7q-38 0 -54 14t-16 47v553q9 2 26 5t34 3q36 0 53 -13t17 -48v-553q-9 -2 -25.5 -5t-34.5 -3zM0 692q-5 8 -9.5 20.5t-4.5 26.5q0 28 12 39t32 11h247q13 -18 13 -47q0 -27 -11.5 -38.5t-31.5 -11.5h-247z" />
    <glyph glyph-name="imacron" unicode="&#x12b;" horiz-adv-x="262" 
d="M138 -8q-36 0 -53 13.5t-17 45.5v418q8 2 23 5t33 3q36 0 53 -13.5t17 -45.5v-418q-8 -2 -23 -5t-33 -3zM-9 567q-5 8 -9.5 20.5t-4.5 26.5q0 28 12 39t32 11h247q13 -18 13 -47q0 -27 -11.5 -38.5t-31.5 -11.5h-247z" />
    <glyph glyph-name="Iogonek" unicode="&#x12e;" horiz-adv-x="284" 
d="M63 -87q0 29 11 50.5t31 36.5q-28 11 -28 54v553q9 2 26 5t34 3q36 0 53 -13t17 -48v-553q-29 -23 -29 -57q0 -24 15 -37.5t38 -13.5h20q7 -17 7 -34q0 -28 -19.5 -43.5t-54.5 -15.5q-54 0 -87.5 32t-33.5 81z" />
    <glyph glyph-name="iogonek" unicode="&#x12f;" horiz-adv-x="262" 
d="M68 470q8 2 23.5 5t33.5 3q36 0 52.5 -13t16.5 -46v-418q-14 -9 -24.5 -22.5t-10.5 -35.5q0 -23 15.5 -35.5t43.5 -12.5h10q6 -15 6 -33q0 -23 -15.5 -39.5t-57.5 -16.5q-49 0 -82.5 26.5t-33.5 74.5q0 34 15 57.5t32 36.5q-24 12 -24 51v418zM58 615q0 29 20.5 49.5
t52.5 20.5t52 -20.5t20 -49.5q0 -30 -20 -50.5t-52 -20.5t-52.5 20.5t-20.5 50.5z" />
    <glyph glyph-name="Idotaccent" unicode="&#x130;" horiz-adv-x="284" 
d="M147 -7q-38 0 -54 14t-16 47v553q9 2 26 5t34 3q36 0 53 -13t17 -48v-553q-9 -2 -25.5 -5t-34.5 -3zM209 746q0 -29 -19.5 -49t-51.5 -20t-51.5 20t-19.5 49q0 30 19.5 49.5t51.5 19.5t51.5 -19.5t19.5 -49.5z" />
    <glyph glyph-name="dotlessi" unicode="&#x131;" horiz-adv-x="262" 
d="M194 1q-8 -2 -23 -5t-33 -3q-36 0 -53 13.5t-17 45.5v421q8 2 23 4.5t33 2.5q36 0 53 -13t17 -46v-420v0z" />
    <glyph glyph-name="Jcircumflex" unicode="&#x134;" horiz-adv-x="393" 
d="M320 164q0 -90 -50 -133.5t-132 -43.5q-55 0 -87 16.5t-32 53.5q0 17 5.5 29t12.5 20q17 -5 34 -9t37 -4q82 0 82 85v429q9 2 26 5t34 3q36 0 53 -13t17 -48v-390zM250 742q-20 -20 -44 -43t-49 -45q-24 1 -40 14.5t-16 33.5q0 17 9 28.5t27 28.5l44 40q39 32 71 32
q21 0 37 -8.5t34 -25.5l81 -87q0 -26 -14.5 -40t-37.5 -14q-16 0 -29 10t-33 31z" />
    <glyph glyph-name="jcircumflex" unicode="&#x135;" horiz-adv-x="263" 
d="M26 -99q24 13 34 35t10 56v477q8 2 23.5 5t32.5 3q36 0 53.5 -13.5t17.5 -45.5v-439q0 -69 -27 -109q-35 -54 -95 -54q-33 0 -52.5 19.5t-19.5 52.5zM124 622q-25 -29 -44 -49.5t-40 -45.5q-29 1 -46.5 14.5t-17.5 34.5q0 16 8.5 27t24.5 28l47 50q16 15 32 23.5t38 8.5
q21 0 37.5 -7.5t36.5 -31.5l77 -94q0 -21 -12 -36t-37 -15q-17 0 -28.5 8.5t-22.5 22.5z" />
    <glyph glyph-name="Kcommaaccent" unicode="&#x136;" horiz-adv-x="587" 
d="M203 260v-259q-9 -3 -25.5 -5.5t-35.5 -2.5q-38 0 -53.5 13.5t-15.5 47.5v553q8 2 25.5 5t34.5 3q36 0 53 -13t17 -48v-206l240 264q48 0 69.5 -19t21.5 -45q0 -21 -10.5 -37.5t-31.5 -37.5l-169 -168q78 -80 137 -143t100 -101q-1 -33 -21.5 -51.5t-49.5 -18.5t-49 15.5
t-39 35.5zM312 -212q-13 -14 -27.5 -20t-31.5 -6q-30 0 -48 18q18 38 28.5 76.5t15.5 72.5q13 6 28 10t31 4q24 0 39.5 -9.5t15.5 -31.5q0 -12 -4.5 -28t-12 -32t-16.5 -30.5t-18 -23.5z" />
    <glyph glyph-name="kcommaaccent" unicode="&#x137;" horiz-adv-x="522" 
d="M192 1q-9 -2 -24 -5t-34 -3q-35 0 -52 13t-17 46v598q8 3 23.5 5.5t34.5 2.5q35 0 52 -13t17 -46v-310l194 193q38 0 61 -17t23 -43q0 -23 -14.5 -40t-45.5 -43l-108 -94l191 -179q-4 -35 -21 -54.5t-49 -19.5q-23 0 -40.5 11t-42.5 39l-148 164v-205zM293 -212
q-13 -14 -27.5 -20t-31.5 -6q-30 0 -48 18q18 38 28.5 76.5t15.5 72.5q13 6 28 10t31 4q24 0 39.5 -9.5t15.5 -31.5q0 -12 -4.5 -28t-12 -32t-16.5 -30.5t-18 -23.5z" />
    <glyph glyph-name="kgreenlandic" unicode="&#x138;" horiz-adv-x="522" 
d="M192 287l200 195q38 0 61 -17.5t23 -43.5q0 -22 -15.5 -39t-45.5 -43l-113 -96l191 -177q-4 -35 -21 -54.5t-49 -19.5q-23 0 -41.5 12.5t-41.5 37.5l-148 163v-204q-9 -2 -24 -5t-34 -3q-35 0 -52 13t-17 46v421q8 2 23.5 4.5t33.5 2.5q36 0 53 -13t17 -46v-134z" />
    <glyph glyph-name="Lacute" unicode="&#x139;" horiz-adv-x="507" 
d="M146 -2q-32 0 -50.5 19t-18.5 51v539q8 2 25.5 5t34.5 3q36 0 53 -13t17 -48v-449h257q5 -8 10 -21.5t5 -29.5q0 -27 -12.5 -41.5t-34.5 -14.5h-286zM215 833q32 0 50 -15.5t18 -38.5q0 -17 -7.5 -29.5t-28.5 -27.5l-93 -66q-29 1 -45 14t-16 31q0 11 4 20t15 19z" />
    <glyph glyph-name="lacute" unicode="&#x13a;" horiz-adv-x="265" 
d="M209 874q32 0 50 -15.5t18 -38.5q0 -17 -7.5 -29.5t-28.5 -27.5l-93 -66q-29 1 -45 14t-16 31q0 11 4 20t15 19zM195 1q-8 -2 -23.5 -5t-33.5 -3q-36 0 -52.5 13t-16.5 46v598q8 3 23.5 5.5t33.5 2.5q36 0 52.5 -13t16.5 -46v-598z" />
    <glyph glyph-name="Lcommaaccent" unicode="&#x13b;" horiz-adv-x="507" 
d="M146 -2q-32 0 -50.5 19t-18.5 51v539q8 2 25.5 5t34.5 3q36 0 53 -13t17 -48v-449h257q5 -8 10 -21.5t5 -29.5q0 -27 -12.5 -41.5t-34.5 -14.5h-286zM285 -212q-13 -14 -27.5 -20t-31.5 -6q-30 0 -48 18q18 38 28.5 76.5t15.5 72.5q13 6 28 10t31 4q24 0 39.5 -9.5
t15.5 -31.5q0 -12 -4.5 -28t-12 -32t-16.5 -30.5t-18 -23.5z" />
    <glyph glyph-name="lcommaaccent" unicode="&#x13c;" horiz-adv-x="266" 
d="M196 1q-8 -2 -23.5 -5t-33.5 -3q-36 0 -52.5 13t-16.5 46v598q8 3 23.5 5.5t33.5 2.5q36 0 52.5 -13t16.5 -46v-598zM143 -212q-13 -14 -27.5 -20t-31.5 -6q-30 0 -48 18q18 38 28.5 76.5t15.5 72.5q13 6 28 10t31 4q24 0 39.5 -9.5t15.5 -31.5q0 -12 -4.5 -28t-12 -32
t-16.5 -30.5t-18 -23.5z" />
    <glyph glyph-name="Lcaron" unicode="&#x13d;" horiz-adv-x="507" 
d="M146 -2q-32 0 -50.5 19t-18.5 51v539q8 2 25.5 5t34.5 3q36 0 53 -13t17 -48v-449h257q5 -8 10 -21.5t5 -29.5q0 -27 -12.5 -41.5t-34.5 -14.5h-286zM388 459q-13 -14 -27.5 -20t-31.5 -6q-31 0 -48 19q17 38 28 76t16 72q12 7 27.5 11t31.5 4q24 0 39.5 -10t15.5 -32
q0 -12 -4.5 -28t-12 -31.5t-16.5 -30t-18 -24.5z" />
    <glyph glyph-name="lcaron" unicode="&#x13e;" horiz-adv-x="394" 
d="M196 1q-8 -2 -23.5 -5t-33.5 -3q-36 0 -52.5 13t-16.5 46v598q8 3 23.5 5.5t33.5 2.5q36 0 52.5 -13t16.5 -46v-598zM348 504q-13 -14 -27.5 -20t-31.5 -6q-31 0 -48 19q17 38 28 76t16 72q12 7 27.5 11t31.5 4q24 0 39.5 -10t15.5 -32q0 -12 -4.5 -28t-12 -31.5
t-16.5 -30t-18 -24.5z" />
    <glyph glyph-name="Ldot" unicode="&#x13f;" horiz-adv-x="507" 
d="M146 -2q-32 0 -50.5 19t-18.5 51v539q8 2 25.5 5t34.5 3q36 0 53 -13t17 -48v-449h257q5 -8 10 -21.5t5 -29.5q0 -27 -12.5 -41.5t-34.5 -14.5h-286zM315 336q0 33 20.5 55.5t56.5 22.5q35 0 55.5 -22.5t20.5 -55.5q0 -32 -20.5 -54.5t-55.5 -22.5q-36 0 -56.5 22.5
t-20.5 54.5z" />
    <glyph glyph-name="ldot" unicode="&#x140;" horiz-adv-x="389" 
d="M196 1q-8 -2 -23.5 -5t-33.5 -3q-36 0 -52.5 13t-16.5 46v598q8 3 23.5 5.5t33.5 2.5q36 0 52.5 -13t16.5 -46v-598zM251 301q0 33 20.5 55.5t56.5 22.5q35 0 55.5 -22.5t20.5 -55.5q0 -32 -20.5 -54.5t-55.5 -22.5q-36 0 -56.5 22.5t-20.5 54.5z" />
    <glyph glyph-name="Lslash" unicode="&#x141;" horiz-adv-x="537" 
d="M181 -2q-32 0 -50.5 19t-18.5 51v173l-65 -27q-11 9 -24 26.5t-13 38.5q0 28 28 40l74 30v258q8 2 25.5 5t34.5 3q36 0 53 -13t17 -48v-151l119 49q11 -8 24.5 -26t13.5 -39q0 -28 -29 -39l-128 -53v-190h257q5 -8 10 -21.5t5 -29.5q0 -27 -12.5 -41.5t-34.5 -14.5h-286
v0z" />
    <glyph glyph-name="lslash" unicode="&#x142;" horiz-adv-x="358" 
d="M243 1q-8 -2 -23.5 -5t-33.5 -3q-36 0 -52.5 13t-16.5 46v204l-70 -29q-11 9 -24 26.5t-13 38.5q0 28 28 39l79 32v287q8 3 23.5 5.5t33.5 2.5q36 0 52.5 -13t16.5 -46v-183l68 28q11 -9 24 -27t13 -39q0 -27 -28 -38l-77 -32v-307v0z" />
    <glyph glyph-name="Nacute" unicode="&#x143;" horiz-adv-x="665" 
d="M143 -7q-37 0 -52 13.5t-15 45.5v533q11 14 32.5 22t47.5 8q31 0 55.5 -11t43.5 -44l144 -259q20 -36 38.5 -74.5t32.5 -70.5l4 1q-5 59 -6.5 114.5t-1.5 109.5v227q8 2 24.5 4.5t33.5 2.5q37 0 52.5 -13.5t15.5 -45.5v-540q-11 -11 -31.5 -17t-48.5 -6q-30 0 -54.5 10.5
t-43.5 43.5l-144 259q-20 35 -38.5 74.5t-32.5 71.5l-6 -1q5 -55 6.5 -113t1.5 -110v-227q-8 -2 -24 -5t-34 -3zM416 833q32 0 50 -15.5t18 -38.5q0 -17 -7.5 -29.5t-28.5 -27.5l-93 -66q-29 1 -45 14t-16 31q0 11 4 20t15 19z" />
    <glyph glyph-name="nacute" unicode="&#x144;" horiz-adv-x="567" 
d="M377 305q0 43 -24.5 63t-66.5 20q-29 0 -53.5 -7t-42.5 -18v-362q-9 -2 -24 -5t-34 -3q-35 0 -52 13t-17 46v321q0 24 10 39t31 29q29 20 77 33.5t106 13.5q103 0 159.5 -45.5t56.5 -133.5v-308q-8 -2 -23.5 -5t-33.5 -3q-36 0 -52.5 13t-16.5 46v253zM357 720
q37 0 57 -17t20 -38q0 -19 -8 -30.5t-27 -28.5l-93 -84q-32 0 -49.5 16t-17.5 35q0 11 4.5 19t14.5 19z" />
    <glyph glyph-name="Ncommaaccent" unicode="&#x145;" horiz-adv-x="665" 
d="M143 -7q-37 0 -52 13.5t-15 45.5v533q11 14 32.5 22t47.5 8q31 0 55.5 -11t43.5 -44l144 -259q20 -36 38.5 -74.5t32.5 -70.5l4 1q-5 59 -6.5 114.5t-1.5 109.5v227q8 2 24.5 4.5t33.5 2.5q37 0 52.5 -13.5t15.5 -45.5v-540q-11 -11 -31.5 -17t-48.5 -6q-30 0 -54.5 10.5
t-43.5 43.5l-144 259q-20 35 -38.5 74.5t-32.5 71.5l-6 -1q5 -55 6.5 -113t1.5 -110v-227q-8 -2 -24 -5t-34 -3zM348 -212q-13 -14 -27.5 -20t-31.5 -6q-30 0 -48 18q18 38 28.5 76.5t15.5 72.5q13 6 28 10t31 4q24 0 39.5 -9.5t15.5 -31.5q0 -12 -4.5 -28t-12 -32
t-16.5 -30.5t-18 -23.5z" />
    <glyph glyph-name="ncommaaccent" unicode="&#x146;" horiz-adv-x="567" 
d="M377 305q0 43 -24.5 63t-66.5 20q-29 0 -53.5 -7t-42.5 -18v-362q-9 -2 -24 -5t-34 -3q-35 0 -52 13t-17 46v321q0 24 10 39t31 29q29 20 77 33.5t106 13.5q103 0 159.5 -45.5t56.5 -133.5v-308q-8 -2 -23.5 -5t-33.5 -3q-36 0 -52.5 13t-16.5 46v253zM296 -212
q-13 -14 -27.5 -20t-31.5 -6q-30 0 -48 18q18 38 28.5 76.5t15.5 72.5q13 6 28 10t31 4q24 0 39.5 -9.5t15.5 -31.5q0 -12 -4.5 -28t-12 -32t-16.5 -30.5t-18 -23.5z" />
    <glyph glyph-name="Ncaron" unicode="&#x147;" horiz-adv-x="665" 
d="M143 -7q-37 0 -52 13.5t-15 45.5v533q11 14 32.5 22t47.5 8q31 0 55.5 -11t43.5 -44l144 -259q20 -36 38.5 -74.5t32.5 -70.5l4 1q-5 59 -6.5 114.5t-1.5 109.5v227q8 2 24.5 4.5t33.5 2.5q37 0 52.5 -13.5t15.5 -45.5v-540q-11 -11 -31.5 -17t-48.5 -6q-30 0 -54.5 10.5
t-43.5 43.5l-144 259q-20 35 -38.5 74.5t-32.5 71.5l-6 -1q5 -55 6.5 -113t1.5 -110v-227q-8 -2 -24 -5t-34 -3zM431 831q26 -1 43 -14.5t17 -34.5q0 -17 -9.5 -28.5t-28.5 -28.5l-43 -40q-20 -17 -35.5 -23.5t-34.5 -6.5q-23 0 -40 8.5t-33 24.5l-83 81q0 29 13.5 44
t37.5 15q16 0 30 -8.5t35 -31.5l40 -46z" />
    <glyph glyph-name="ncaron" unicode="&#x148;" horiz-adv-x="567" 
d="M377 305q0 43 -24.5 63t-66.5 20q-29 0 -53.5 -7t-42.5 -18v-362q-9 -2 -24 -5t-34 -3q-35 0 -52 13t-17 46v321q0 24 10 39t31 29q29 20 77 33.5t106 13.5q103 0 159.5 -45.5t56.5 -133.5v-308q-8 -2 -23.5 -5t-33.5 -3q-36 0 -52.5 13t-16.5 46v253zM278 621l90 90
q29 -1 46.5 -15t17.5 -36q0 -16 -9.5 -27.5t-27.5 -28.5l-53 -50q-29 -26 -62 -26q-21 0 -37.5 7.5t-41.5 31.5l-79 78q-1 4 -1 9q0 20 12 37.5t37 17.5q16 0 28.5 -7t32.5 -29z" />
    <glyph glyph-name="napostrophe" unicode="&#x149;" horiz-adv-x="687" 
d="M497 305q0 43 -24.5 63t-66.5 20q-29 0 -53.5 -7t-42.5 -18v-362q-9 -2 -24 -5t-34 -3q-35 0 -52 13t-17 46v321q0 24 10 39t31 29q29 20 77 33.5t106 13.5q103 0 159.5 -45.5t56.5 -133.5v-308q-8 -2 -23.5 -5t-33.5 -3q-36 0 -52.5 13t-16.5 46v253zM117 413
q-17 -30 -51 -30q-27 0 -50 13q3 24 6.5 52.5t6.5 58t5.5 57.5t3.5 52q12 6 27.5 10.5t32.5 4.5q25 0 43.5 -11.5t18.5 -40.5q0 -17 -4 -40.5t-10 -47t-14 -44.5t-15 -34z" />
    <glyph glyph-name="Omacron" unicode="&#x14c;" horiz-adv-x="696" 
d="M652 304q0 -78 -23 -138t-63.5 -100.5t-96.5 -61t-121 -20.5t-121 20.5t-96.5 61t-63.5 100.5t-23 138t23.5 137.5t64.5 100t96.5 61t119.5 20.5t119.5 -20.5t96.5 -61t64.5 -100t23.5 -137.5zM519 304q0 104 -46.5 158.5t-124.5 54.5q-77 0 -123.5 -54t-46.5 -159
t46 -159t124 -54t124.5 54t46.5 159zM205 692q-5 8 -9.5 20.5t-4.5 26.5q0 28 12 39t32 11h247q13 -18 13 -47q0 -27 -11.5 -38.5t-31.5 -11.5h-247z" />
    <glyph glyph-name="omacron" unicode="&#x14d;" horiz-adv-x="570" 
d="M530 237q0 -58 -17.5 -104.5t-49.5 -79.5t-77 -50.5t-101 -17.5t-101 17.5t-77 50t-49.5 79t-17.5 105.5q0 58 17.5 104.5t50 79t77.5 50t100 17.5t100 -17.5t77.5 -50.5t50 -79.5t17.5 -103.5zM285 388q-54 0 -85 -39.5t-31 -111.5q0 -73 30.5 -112t85.5 -39t85.5 39.5
t30.5 111.5t-31 111.5t-85 39.5zM147 567q-5 8 -9.5 20.5t-4.5 26.5q0 28 12 39t32 11h247q13 -18 13 -47q0 -27 -11.5 -38.5t-31.5 -11.5h-247z" />
    <glyph glyph-name="Ohungarumlaut" unicode="&#x150;" horiz-adv-x="696" 
d="M652 304q0 -78 -23 -138t-63.5 -100.5t-96.5 -61t-121 -20.5t-121 20.5t-96.5 61t-63.5 100.5t-23 138t23.5 137.5t64.5 100t96.5 61t119.5 20.5t119.5 -20.5t96.5 -61t64.5 -100t23.5 -137.5zM519 304q0 104 -46.5 158.5t-124.5 54.5q-77 0 -123.5 -54t-46.5 -159
t46 -159t124 -54t124.5 54t46.5 159zM278 832q37 0 55.5 -16t18.5 -37q0 -18 -8.5 -30.5t-25.5 -31.5l-55 -61q-32 0 -49 14.5t-17 33.5q0 11 3.5 20t12.5 21zM471 832q38 0 56.5 -16t18.5 -37q0 -18 -8.5 -30.5t-25.5 -31.5l-56 -61q-32 0 -49 14.5t-17 33.5q0 11 4 20
t13 21z" />
    <glyph glyph-name="ohungarumlaut" unicode="&#x151;" horiz-adv-x="570" 
d="M530 237q0 -58 -17.5 -104.5t-49.5 -79.5t-77 -50.5t-101 -17.5t-101 17.5t-77 50t-49.5 79t-17.5 105.5q0 58 17.5 104.5t50 79t77.5 50t100 17.5t100 -17.5t77.5 -50.5t50 -79.5t17.5 -103.5zM285 388q-54 0 -85 -39.5t-31 -111.5q0 -73 30.5 -112t85.5 -39t85.5 39.5
t30.5 111.5t-31 111.5t-85 39.5zM227 720q37 0 56.5 -16t19.5 -38q0 -17 -9 -29t-25 -31l-73 -84q-32 0 -50 15.5t-18 34.5q0 11 4 19.5t13 19.5zM425 720q38 0 57.5 -16t19.5 -38q0 -17 -9 -29t-26 -31l-73 -84q-32 0 -49.5 15.5t-17.5 34.5q0 11 3.5 19.5t12.5 19.5z" />
    <glyph glyph-name="OE" unicode="&#x152;" horiz-adv-x="952" 
d="M564 -2q-48 0 -64 38q-63 -52 -158 -52q-64 0 -118.5 20.5t-94.5 61t-62.5 100.5t-22.5 138t23 137.5t63.5 100t94.5 61t117 20.5q96 0 158 -53q8 17 24.5 27t39.5 10h325q5 -8 9.5 -21t4.5 -29q0 -54 -46 -54h-241v-142h244q5 -8 9.5 -20.5t4.5 -28.5q0 -27 -12.5 -40.5
t-33.5 -13.5h-212v-155h278q5 -8 9 -21.5t4 -29.5q0 -54 -46 -54h-297zM343 91q102 0 146 79v266q-23 41 -60 61t-86 20q-74 0 -120 -54t-46 -159t45.5 -159t120.5 -54z" />
    <glyph glyph-name="oe" unicode="&#x153;" horiz-adv-x="891" 
d="M281 488q59 0 103.5 -22t73.5 -61q30 42 75.5 62.5t100.5 20.5q49 0 90 -15.5t70 -43t45.5 -66t16.5 -83.5q0 -28 -15 -42t-41 -18l-277 -40q14 -51 52 -74t93 -23q42 0 78 12.5t58 26.5q14 -8 23 -22t9 -30q0 -20 -13.5 -35.5t-37 -26.5t-56 -17t-69.5 -6
q-66 0 -116.5 21t-82.5 64q-29 -40 -74 -62.5t-106 -22.5q-56 0 -100.5 17.5t-76 50t-48 79t-16.5 105.5q0 58 17 104.5t48.5 79t76 50t99.5 17.5zM285 388q-54 0 -85 -39.5t-31 -111.5q0 -73 30.5 -112t85.5 -39t85.5 39.5t30.5 111.5t-31 111.5t-85 39.5zM634 393
q-50 0 -82.5 -32.5t-36.5 -92.5l222 33q-4 37 -29 64.5t-74 27.5z" />
    <glyph glyph-name="Racute" unicode="&#x154;" horiz-adv-x="599" 
d="M207 1q-9 -2 -25.5 -5t-35.5 -3q-38 0 -53.5 14t-15.5 47v502q0 19 10 29t28 16q32 11 75.5 15.5t89.5 4.5q132 0 198 -54.5t66 -150.5q0 -63 -33 -109.5t-91 -71.5q44 -57 84.5 -108.5t60.5 -80.5q-8 -26 -28 -40.5t-44 -14.5q-31 0 -47.5 14t-32.5 38l-113 169h-93
v-211zM287 314q57 0 91.5 25t34.5 76q0 101 -135 101q-20 0 -38.5 -2t-34.5 -4v-196h82zM360 833q32 0 50 -15.5t18 -38.5q0 -17 -7.5 -29.5t-28.5 -27.5l-93 -66q-29 1 -45 14t-16 31q0 11 4 20t15 19z" />
    <glyph glyph-name="racute" unicode="&#x155;" horiz-adv-x="397" 
d="M190 1q-9 -2 -24 -5t-34 -3q-35 0 -52 13t-17 46v317q0 26 12 44t35 32q31 19 76.5 31t98.5 12q95 0 95 -59q0 -14 -4.5 -26.5t-9.5 -20.5q-23 5 -57 5q-35 0 -66 -8t-53 -20v-358zM277 720q37 0 57 -17t20 -38q0 -19 -8 -30.5t-27 -28.5l-93 -84q-32 0 -49.5 16
t-17.5 35q0 11 4.5 19t14.5 19z" />
    <glyph glyph-name="Rcommaaccent" unicode="&#x156;" horiz-adv-x="599" 
d="M207 1q-9 -2 -25.5 -5t-35.5 -3q-38 0 -53.5 14t-15.5 47v502q0 19 10 29t28 16q32 11 75.5 15.5t89.5 4.5q132 0 198 -54.5t66 -150.5q0 -63 -33 -109.5t-91 -71.5q44 -57 84.5 -108.5t60.5 -80.5q-8 -26 -28 -40.5t-44 -14.5q-31 0 -47.5 14t-32.5 38l-113 169h-93
v-211zM287 314q57 0 91.5 25t34.5 76q0 101 -135 101q-20 0 -38.5 -2t-34.5 -4v-196h82zM327 -212q-13 -14 -27.5 -20t-31.5 -6q-30 0 -48 18q18 38 28.5 76.5t15.5 72.5q13 6 28 10t31 4q24 0 39.5 -9.5t15.5 -31.5q0 -12 -4.5 -28t-12 -32t-16.5 -30.5t-18 -23.5z" />
    <glyph glyph-name="rcommaaccent" unicode="&#x157;" horiz-adv-x="397" 
d="M190 1q-9 -2 -24 -5t-34 -3q-35 0 -52 13t-17 46v317q0 26 12 44t35 32q31 19 76.5 31t98.5 12q95 0 95 -59q0 -14 -4.5 -26.5t-9.5 -20.5q-23 5 -57 5q-35 0 -66 -8t-53 -20v-358zM138 -212q-13 -14 -27.5 -20t-31.5 -6q-30 0 -48 18q18 38 28.5 76.5t15.5 72.5
q13 6 28 10t31 4q24 0 39.5 -9.5t15.5 -31.5q0 -12 -4.5 -28t-12 -32t-16.5 -30.5t-18 -23.5z" />
    <glyph glyph-name="Rcaron" unicode="&#x158;" horiz-adv-x="599" 
d="M207 1q-9 -2 -25.5 -5t-35.5 -3q-38 0 -53.5 14t-15.5 47v502q0 19 10 29t28 16q32 11 75.5 15.5t89.5 4.5q132 0 198 -54.5t66 -150.5q0 -63 -33 -109.5t-91 -71.5q44 -57 84.5 -108.5t60.5 -80.5q-8 -26 -28 -40.5t-44 -14.5q-31 0 -47.5 14t-32.5 38l-113 169h-93
v-211zM287 314q57 0 91.5 25t34.5 76q0 101 -135 101q-20 0 -38.5 -2t-34.5 -4v-196h82zM395 831q26 -1 43 -14.5t17 -34.5q0 -17 -9.5 -28.5t-28.5 -28.5l-43 -40q-20 -17 -35.5 -23.5t-34.5 -6.5q-23 0 -40 8.5t-33 24.5l-83 81q0 29 13.5 44t37.5 15q16 0 30 -8.5
t35 -31.5l40 -46z" />
    <glyph glyph-name="rcaron" unicode="&#x159;" horiz-adv-x="397" 
d="M190 1q-9 -2 -24 -5t-34 -3q-35 0 -52 13t-17 46v317q0 26 12 44t35 32q31 19 76.5 31t98.5 12q95 0 95 -59q0 -14 -4.5 -26.5t-9.5 -20.5q-23 5 -57 5q-35 0 -66 -8t-53 -20v-358zM226 621l90 90q29 -1 46.5 -15t17.5 -36q0 -16 -9.5 -27.5t-27.5 -28.5l-53 -50
q-29 -26 -62 -26q-21 0 -37.5 7.5t-41.5 31.5l-79 78q-1 4 -1 9q0 20 12 37.5t37 17.5q16 0 28.5 -7t32.5 -29z" />
    <glyph glyph-name="Sacute" unicode="&#x15a;" horiz-adv-x="537" 
d="M254 91q58 0 85 22.5t27 56.5q0 31 -21 49.5t-64 31.5l-64 20q-38 12 -69 27t-53 35.5t-34 48t-12 65.5q0 81 61 128.5t167 47.5q42 0 77.5 -6.5t61.5 -18t40.5 -28.5t14.5 -38q0 -20 -9.5 -34.5t-23.5 -23.5q-24 17 -63.5 29.5t-86.5 12.5q-52 0 -79 -18.5t-27 -50.5
q0 -26 18.5 -40t58.5 -27l57 -18q87 -26 135 -71t48 -122q0 -41 -16 -75t-46.5 -58.5t-76 -38t-103.5 -13.5q-46 0 -84.5 8t-66.5 21.5t-43.5 32t-15.5 40.5q0 23 13.5 39.5t31.5 24.5q25 -22 66 -40.5t96 -18.5zM331 833q32 0 50 -15.5t18 -38.5q0 -17 -7.5 -29.5
t-28.5 -27.5l-93 -66q-29 1 -45 14t-16 31q0 11 4 20t15 19z" />
    <glyph glyph-name="sacute" unicode="&#x15b;" horiz-adv-x="470" 
d="M432 134q0 -70 -52 -109.5t-152 -39.5q-41 0 -74.5 6t-58 17.5t-38 28t-13.5 36.5q0 19 8.5 33t22.5 23q28 -18 64.5 -32t84.5 -14q41 0 62 13.5t21 37.5q0 41 -60 54l-56 13q-74 17 -109.5 51t-35.5 91q0 65 52 105.5t146 40.5q36 0 66.5 -5.5t53 -16t35 -25t12.5 -33.5
q0 -18 -8 -31.5t-19 -21.5q-9 6 -23.5 12t-32 11t-37 8.5t-38.5 3.5q-39 0 -61 -12.5t-22 -35.5q0 -17 12.5 -28t43.5 -18l49 -12q83 -19 120 -55.5t37 -95.5zM299 720q37 0 57 -17t20 -38q0 -19 -8 -30.5t-27 -28.5l-93 -84q-32 0 -49.5 16t-17.5 35q0 11 4.5 19t14.5 19z
" />
    <glyph glyph-name="Scircumflex" unicode="&#x15c;" horiz-adv-x="537" 
d="M254 91q58 0 85 22.5t27 56.5q0 31 -21 49.5t-64 31.5l-64 20q-38 12 -69 27t-53 35.5t-34 48t-12 65.5q0 81 61 128.5t167 47.5q42 0 77.5 -6.5t61.5 -18t40.5 -28.5t14.5 -38q0 -20 -9.5 -34.5t-23.5 -23.5q-24 17 -63.5 29.5t-86.5 12.5q-52 0 -79 -18.5t-27 -50.5
q0 -26 18.5 -40t58.5 -27l57 -18q87 -26 135 -71t48 -122q0 -41 -16 -75t-46.5 -58.5t-76 -38t-103.5 -13.5q-46 0 -84.5 8t-66.5 21.5t-43.5 32t-15.5 40.5q0 23 13.5 39.5t31.5 24.5q25 -22 66 -40.5t96 -18.5zM275 742q-20 -20 -44 -43t-49 -45q-24 1 -40 14.5t-16 33.5
q0 17 9 28.5t27 28.5l44 40q39 32 71 32q21 0 37 -8.5t34 -25.5l81 -87q0 -26 -14.5 -40t-37.5 -14q-16 0 -29 10t-33 31z" />
    <glyph glyph-name="scircumflex" unicode="&#x15d;" horiz-adv-x="470" 
d="M432 134q0 -70 -52 -109.5t-152 -39.5q-41 0 -74.5 6t-58 17.5t-38 28t-13.5 36.5q0 19 8.5 33t22.5 23q28 -18 64.5 -32t84.5 -14q41 0 62 13.5t21 37.5q0 41 -60 54l-56 13q-74 17 -109.5 51t-35.5 91q0 65 52 105.5t146 40.5q36 0 66.5 -5.5t53 -16t35 -25t12.5 -33.5
q0 -18 -8 -31.5t-19 -21.5q-9 6 -23.5 12t-32 11t-37 8.5t-38.5 3.5q-39 0 -61 -12.5t-22 -35.5q0 -17 12.5 -28t43.5 -18l49 -12q83 -19 120 -55.5t37 -95.5zM232 622q-25 -29 -44 -49.5t-40 -45.5q-29 1 -46.5 14.5t-17.5 34.5q0 16 8.5 27t24.5 28l47 50q16 15 32 23.5
t38 8.5q21 0 37.5 -7.5t36.5 -31.5l77 -94q0 -21 -12 -36t-37 -15q-17 0 -28.5 8.5t-22.5 22.5z" />
    <glyph glyph-name="Scedilla" unicode="&#x15e;" horiz-adv-x="537" 
d="M254 91q58 0 85 22.5t27 56.5q0 31 -21 49.5t-64 31.5l-64 20q-38 12 -69 27t-53 35.5t-34 48t-12 65.5q0 81 61 128.5t167 47.5q42 0 77.5 -6.5t61.5 -18t40.5 -28.5t14.5 -38q0 -20 -9.5 -34.5t-23.5 -23.5q-24 17 -63.5 29.5t-86.5 12.5q-52 0 -79 -18.5t-27 -50.5
q0 -26 18.5 -40t58.5 -27l57 -18q87 -26 135 -71t48 -122q0 -69 -44 -117t-129 -62q20 -31 20 -74q0 -51 -31 -81.5t-84 -30.5q-34 0 -53.5 15t-19.5 43q0 13 5 28h13q33 0 48 15t15 39q0 9 -2.5 19.5t-8.5 21.5q-40 2 -73.5 10.5t-57.5 22t-37 31t-13 37.5q0 23 13.5 39.5
t31.5 24.5q25 -22 66 -40.5t96 -18.5z" />
    <glyph glyph-name="scedilla" unicode="&#x15f;" horiz-adv-x="470" 
d="M432 134q0 -56 -33 -92t-96 -50q22 -32 22 -76q0 -51 -31 -81.5t-84 -30.5q-34 0 -53.5 15t-19.5 43q0 13 5 28h13q33 0 48 15t15 39q0 9 -2.5 20t-8.5 22q-73 3 -118 26t-45 61q0 19 8.5 33t22.5 23q28 -18 64.5 -32t84.5 -14q41 0 62 13.5t21 37.5q0 41 -60 54l-56 13
q-74 17 -109.5 51t-35.5 91q0 65 52 105.5t146 40.5q36 0 66.5 -5.5t53 -16t35 -25t12.5 -33.5q0 -18 -8 -31.5t-19 -21.5q-9 6 -23.5 12t-32 11t-37 8.5t-38.5 3.5q-39 0 -61 -12.5t-22 -35.5q0 -17 12.5 -28t43.5 -18l49 -12q83 -19 120 -55.5t37 -95.5z" />
    <glyph glyph-name="Scaron" unicode="&#x160;" horiz-adv-x="537" 
d="M254 91q58 0 85 22.5t27 56.5q0 31 -21 49.5t-64 31.5l-64 20q-38 12 -69 27t-53 35.5t-34 48t-12 65.5q0 81 61 128.5t167 47.5q42 0 77.5 -6.5t61.5 -18t40.5 -28.5t14.5 -38q0 -20 -9.5 -34.5t-23.5 -23.5q-24 17 -63.5 29.5t-86.5 12.5q-52 0 -79 -18.5t-27 -50.5
q0 -26 18.5 -40t58.5 -27l57 -18q87 -26 135 -71t48 -122q0 -41 -16 -75t-46.5 -58.5t-76 -38t-103.5 -13.5q-46 0 -84.5 8t-66.5 21.5t-43.5 32t-15.5 40.5q0 23 13.5 39.5t31.5 24.5q25 -22 66 -40.5t96 -18.5zM364 831q26 -1 43 -14.5t17 -34.5q0 -17 -9.5 -28.5
t-28.5 -28.5l-43 -40q-20 -17 -35.5 -23.5t-34.5 -6.5q-23 0 -40 8.5t-33 24.5l-83 81q0 29 13.5 44t37.5 15q16 0 30 -8.5t35 -31.5l40 -46z" />
    <glyph glyph-name="scaron" unicode="&#x161;" horiz-adv-x="470" 
d="M432 134q0 -70 -52 -109.5t-152 -39.5q-41 0 -74.5 6t-58 17.5t-38 28t-13.5 36.5q0 19 8.5 33t22.5 23q28 -18 64.5 -32t84.5 -14q41 0 62 13.5t21 37.5q0 41 -60 54l-56 13q-74 17 -109.5 51t-35.5 91q0 65 52 105.5t146 40.5q36 0 66.5 -5.5t53 -16t35 -25t12.5 -33.5
q0 -18 -8 -31.5t-19 -21.5q-9 6 -23.5 12t-32 11t-37 8.5t-38.5 3.5q-39 0 -61 -12.5t-22 -35.5q0 -17 12.5 -28t43.5 -18l49 -12q83 -19 120 -55.5t37 -95.5zM232 621l90 90q29 -1 46.5 -15t17.5 -36q0 -16 -9.5 -27.5t-27.5 -28.5l-53 -50q-29 -26 -62 -26
q-21 0 -37.5 7.5t-41.5 31.5l-79 78q-1 4 -1 9q0 20 12 37.5t37 17.5q16 0 28.5 -7t32.5 -29z" />
    <glyph glyph-name="uni021A" unicode="&#x21a;" horiz-adv-x="540" 
d="M504 607q5 -8 9.5 -21.5t4.5 -29.5q0 -27 -12.5 -41t-34.5 -14h-138v-500q-8 -2 -25 -5t-35 -3q-38 0 -54 14t-16 47v447h-168q-5 9 -9.5 22t-4.5 29q0 28 12.5 41.5t34.5 13.5h436zM279 -212q-13 -14 -27.5 -20t-31.5 -6q-30 0 -48 18q18 38 28.5 76.5t15.5 72.5
q13 6 28 10t31 4q24 0 39.5 -9.5t15.5 -31.5q0 -12 -4.5 -28t-12 -32t-16.5 -30.5t-18 -23.5z" />
    <glyph glyph-name="uni021B" unicode="&#x21b;" horiz-adv-x="385" 
d="M190 147q0 -32 19.5 -46t54.5 -14q17 0 34.5 4t31.5 10q8 -8 13.5 -19.5t5.5 -26.5q0 -30 -27 -49.5t-87 -19.5q-79 0 -124.5 35.5t-45.5 117.5v459q8 2 23.5 5t33.5 3q35 0 51.5 -13t16.5 -46v-83h147q5 -8 9 -21t4 -28q0 -26 -12 -38t-32 -12h-116v-218zM220 -212
q-13 -14 -27.5 -20t-31.5 -6q-30 0 -48 18q18 38 28.5 76.5t15.5 72.5q13 6 28 10t31 4q24 0 39.5 -9.5t15.5 -31.5q0 -12 -4.5 -28t-12 -32t-16.5 -30.5t-18 -23.5z" />
    <glyph glyph-name="Tcaron" unicode="&#x164;" horiz-adv-x="540" 
d="M504 607q5 -8 9.5 -21.5t4.5 -29.5q0 -27 -12.5 -41t-34.5 -14h-138v-500q-8 -2 -25 -5t-35 -3q-38 0 -54 14t-16 47v447h-168q-5 9 -9.5 22t-4.5 29q0 28 12.5 41.5t34.5 13.5h436zM364 831q26 -1 43 -14.5t17 -34.5q0 -17 -9.5 -28.5t-28.5 -28.5l-43 -40
q-20 -17 -35.5 -23.5t-34.5 -6.5q-23 0 -40 8.5t-33 24.5l-83 81q0 29 13.5 44t37.5 15q16 0 30 -8.5t35 -31.5l40 -46z" />
    <glyph glyph-name="tcaron" unicode="&#x165;" horiz-adv-x="521" 
d="M190 147q0 -32 19.5 -46t54.5 -14q17 0 34.5 4t31.5 10q8 -8 13.5 -19.5t5.5 -26.5q0 -30 -27 -49.5t-87 -19.5q-79 0 -124.5 35.5t-45.5 117.5v459q8 2 23.5 5t33.5 3q35 0 51.5 -13t16.5 -46v-83h147q5 -8 9 -21t4 -28q0 -26 -12 -38t-32 -12h-116v-218zM485 504
q-13 -14 -27.5 -20t-31.5 -6q-31 0 -48 19q17 38 28 76t16 72q12 7 27.5 11t31.5 4q24 0 39.5 -10t15.5 -32q0 -12 -4.5 -28t-12 -31.5t-16.5 -30t-18 -24.5z" />
    <glyph glyph-name="Utilde" unicode="&#x168;" horiz-adv-x="657" 
d="M328 -16q-60 0 -107 16.5t-79.5 47t-49.5 73t-17 95.5v391q8 2 25.5 5t34.5 3q36 0 52.5 -13t16.5 -48v-333q0 -63 35 -96.5t89 -33.5t89 33.5t35 96.5v386q9 2 26 5t34 3q36 0 53 -13t17 -48v-338q0 -53 -17 -95.5t-50 -73t-80 -47t-107 -16.5zM248 815q21 0 40 -5
t36 -10.5t32 -10.5t27 -5q20 0 30 11.5t15 24.5h5q25 0 44 -15.5t19 -44.5q0 -36 -24 -55.5t-62 -19.5q-23 0 -42.5 5t-36.5 11t-31.5 11t-26.5 5q-20 0 -30 -11.5t-15 -25.5h-4q-26 0 -44.5 15.5t-18.5 44.5q0 19 7.5 33t20 23.5t28 14t31.5 4.5z" />
    <glyph glyph-name="utilde" unicode="&#x169;" horiz-adv-x="567" 
d="M503 93q0 -23 -8 -38.5t-29 -27.5q-29 -18 -73.5 -30t-101.5 -12q-52 0 -94 11.5t-72 35.5t-46 61t-16 88v291q8 3 23.5 5.5t34.5 2.5q35 0 52 -12.5t17 -46.5v-238q0 -52 26.5 -74.5t75.5 -22.5q31 0 52.5 6t32.5 13v367q8 3 23.5 5.5t33.5 2.5q36 0 52.5 -12.5
t16.5 -46.5v-328zM201 684q21 0 40 -5t36 -10.5t32 -10.5t27 -5q20 0 30 11.5t15 24.5h5q25 0 44 -15.5t19 -44.5q0 -36 -24 -55.5t-62 -19.5q-23 0 -42.5 5t-36.5 11t-31.5 11t-26.5 5q-20 0 -30 -11.5t-15 -25.5h-4q-26 0 -44.5 15.5t-18.5 44.5q0 19 7.5 33t20 23.5
t28 14t31.5 4.5z" />
    <glyph glyph-name="Umacron" unicode="&#x16a;" horiz-adv-x="657" 
d="M328 -16q-60 0 -107 16.5t-79.5 47t-49.5 73t-17 95.5v391q8 2 25.5 5t34.5 3q36 0 52.5 -13t16.5 -48v-333q0 -63 35 -96.5t89 -33.5t89 33.5t35 96.5v386q9 2 26 5t34 3q36 0 53 -13t17 -48v-338q0 -53 -17 -95.5t-50 -73t-80 -47t-107 -16.5zM185 692q-5 8 -9.5 20.5
t-4.5 26.5q0 28 12 39t32 11h247q13 -18 13 -47q0 -27 -11.5 -38.5t-31.5 -11.5h-247z" />
    <glyph glyph-name="umacron" unicode="&#x16b;" horiz-adv-x="566" 
d="M503 93q0 -23 -8 -38.5t-29 -27.5q-29 -18 -73.5 -30t-101.5 -12q-52 0 -94 11.5t-72 35.5t-46 61t-16 88v291q8 3 23.5 5.5t34.5 2.5q35 0 52 -12.5t17 -46.5v-238q0 -52 26.5 -74.5t75.5 -22.5q31 0 52.5 6t32.5 13v367q8 3 23.5 5.5t33.5 2.5q36 0 52.5 -12.5
t16.5 -46.5v-328zM148 567q-5 8 -9.5 20.5t-4.5 26.5q0 28 12 39t32 11h247q13 -18 13 -47q0 -27 -11.5 -38.5t-31.5 -11.5h-247z" />
    <glyph glyph-name="Ubreve" unicode="&#x16c;" horiz-adv-x="657" 
d="M328 -16q-60 0 -107 16.5t-79.5 47t-49.5 73t-17 95.5v391q8 2 25.5 5t34.5 3q36 0 52.5 -13t16.5 -48v-333q0 -63 35 -96.5t89 -33.5t89 33.5t35 96.5v386q9 2 26 5t34 3q36 0 53 -13t17 -48v-338q0 -53 -17 -95.5t-50 -73t-80 -47t-107 -16.5zM326 752q31 0 50.5 16
t25.5 42q5 1 8.5 1.5t8.5 0.5q29 0 43.5 -16.5t14.5 -39.5q0 -19 -10 -36.5t-29 -31t-47 -21.5t-65 -8q-38 0 -66 8t-47.5 21.5t-29 31t-9.5 36.5q0 23 14.5 39.5t43.5 16.5q5 0 9 -0.5t9 -1.5q5 -26 24.5 -42t51.5 -16z" />
    <glyph glyph-name="ubreve" unicode="&#x16d;" horiz-adv-x="567" 
d="M503 93q0 -23 -8 -38.5t-29 -27.5q-29 -18 -73.5 -30t-101.5 -12q-52 0 -94 11.5t-72 35.5t-46 61t-16 88v291q8 3 23.5 5.5t34.5 2.5q35 0 52 -12.5t17 -46.5v-238q0 -52 26.5 -74.5t75.5 -22.5q31 0 52.5 6t32.5 13v367q8 3 23.5 5.5t33.5 2.5q36 0 52.5 -12.5
t16.5 -46.5v-328zM284 640q31 0 50.5 16t25.5 42q5 1 8.5 1.5t8.5 0.5q29 0 43.5 -16.5t14.5 -39.5q0 -19 -10 -36.5t-29 -31t-47 -21.5t-65 -8q-38 0 -66 8t-47.5 21.5t-29 31t-9.5 36.5q0 23 14.5 39.5t43.5 16.5q5 0 9 -0.5t9 -1.5q5 -26 24.5 -42t51.5 -16z" />
    <glyph glyph-name="Uring" unicode="&#x16e;" horiz-adv-x="657" 
d="M328 -16q-60 0 -107 16.5t-79.5 47t-49.5 73t-17 95.5v391q8 2 25.5 5t34.5 3q36 0 52.5 -13t16.5 -48v-333q0 -63 35 -96.5t89 -33.5t89 33.5t35 96.5v386q9 2 26 5t34 3q36 0 53 -13t17 -48v-338q0 -53 -17 -95.5t-50 -73t-80 -47t-107 -16.5zM211 749q0 43 32 71.5
t88 28.5q57 0 89.5 -28.5t32.5 -71.5q0 -42 -32.5 -70.5t-89.5 -28.5q-56 0 -88 28.5t-32 70.5zM292 749q0 -17 11 -26.5t28 -9.5t28.5 9.5t11.5 26.5t-11.5 26.5t-28.5 9.5t-28 -9.5t-11 -26.5z" />
    <glyph glyph-name="uring" unicode="&#x16f;" horiz-adv-x="566" 
d="M503 93q0 -23 -8 -38.5t-29 -27.5q-29 -18 -73.5 -30t-101.5 -12q-52 0 -94 11.5t-72 35.5t-46 61t-16 88v291q8 3 23.5 5.5t34.5 2.5q35 0 52 -12.5t17 -46.5v-238q0 -52 26.5 -74.5t75.5 -22.5q31 0 52.5 6t32.5 13v367q8 3 23.5 5.5t33.5 2.5q36 0 52.5 -12.5
t16.5 -46.5v-328zM161 627q0 43 31 73t87 30q57 0 89 -30t32 -73t-32 -72.5t-89 -29.5q-56 0 -87 29.5t-31 72.5zM241 627q0 -19 11 -29.5t28 -10.5t28.5 10.5t11.5 29.5t-11.5 29.5t-28.5 10.5t-28 -10.5t-11 -29.5z" />
    <glyph glyph-name="Uhungarumlaut" unicode="&#x170;" horiz-adv-x="657" 
d="M328 -16q-60 0 -107 16.5t-79.5 47t-49.5 73t-17 95.5v391q8 2 25.5 5t34.5 3q36 0 52.5 -13t16.5 -48v-333q0 -63 35 -96.5t89 -33.5t89 33.5t35 96.5v386q9 2 26 5t34 3q36 0 53 -13t17 -48v-338q0 -53 -17 -95.5t-50 -73t-80 -47t-107 -16.5zM248 832q37 0 55.5 -16
t18.5 -37q0 -18 -8.5 -30.5t-25.5 -31.5l-55 -61q-32 0 -49 14.5t-17 33.5q0 11 3.5 20t12.5 21zM441 832q38 0 56.5 -16t18.5 -37q0 -18 -8.5 -30.5t-25.5 -31.5l-56 -61q-32 0 -49 14.5t-17 33.5q0 11 4 20t13 21z" />
    <glyph glyph-name="uhungarumlaut" unicode="&#x171;" horiz-adv-x="566" 
d="M503 93q0 -23 -8 -38.5t-29 -27.5q-29 -18 -73.5 -30t-101.5 -12q-52 0 -94 11.5t-72 35.5t-46 61t-16 88v291q8 3 23.5 5.5t34.5 2.5q35 0 52 -12.5t17 -46.5v-238q0 -52 26.5 -74.5t75.5 -22.5q31 0 52.5 6t32.5 13v367q8 3 23.5 5.5t33.5 2.5q36 0 52.5 -12.5
t16.5 -46.5v-328zM217 720q37 0 56.5 -16t19.5 -38q0 -17 -9 -29t-25 -31l-73 -84q-32 0 -50 15.5t-18 34.5q0 11 4 19.5t13 19.5zM415 720q38 0 57.5 -16t19.5 -38q0 -17 -9 -29t-26 -31l-73 -84q-32 0 -49.5 15.5t-17.5 34.5q0 11 3.5 19.5t12.5 19.5z" />
    <glyph glyph-name="Uogonek" unicode="&#x172;" horiz-adv-x="657" 
d="M582 216q0 -94 -52 -154t-148 -74q-8 -9 -13 -20t-5 -25q0 -23 15.5 -35.5t43.5 -12.5h9q3 -8 5 -16t2 -17q0 -23 -15.5 -39.5t-57.5 -16.5q-50 0 -83.5 26.5t-33.5 74.5q0 26 9 46t23 34q-99 12 -152.5 73t-53.5 156v391q8 2 25.5 5t34.5 3q36 0 52.5 -13t16.5 -48v-333
q0 -63 35 -96.5t89 -33.5t89 33.5t35 96.5v386q9 2 26 5t34 3q36 0 53 -13t17 -48v-338v0z" />
    <glyph glyph-name="uogonek" unicode="&#x173;" horiz-adv-x="566" 
d="M503 93q0 -41 -34 -64q-22 -18 -37.5 -37.5t-15.5 -48.5q0 -23 15.5 -35.5t43.5 -12.5h10q3 -8 5 -16t2 -17q0 -23 -16 -39.5t-57 -16.5q-50 0 -83.5 26.5t-33.5 74.5q0 28 10.5 48t25.5 34q-11 -2 -23 -3t-24 -1q-52 0 -94 11.5t-72 35.5t-46 61t-16 88v291
q8 3 23.5 5.5t34.5 2.5q35 0 52 -12.5t17 -46.5v-238q0 -52 26.5 -74.5t75.5 -22.5q31 0 52.5 6t32.5 13v367q8 3 23.5 5.5t33.5 2.5q36 0 52.5 -12.5t16.5 -46.5v-328v0z" />
    <glyph glyph-name="Wcircumflex" unicode="&#x174;" horiz-adv-x="832" 
d="M350 458q10 5 27.5 9.5t36.5 4.5q32 0 52.5 -9.5t25.5 -28.5q15 -48 27.5 -89t24.5 -79.5t23 -76t22 -77.5h4q12 64 22 124t20 119t18.5 119t17.5 124q26 14 57 14q28 0 47.5 -12.5t19.5 -40.5q0 -20 -5 -60t-13.5 -90t-20 -106.5t-24 -110t-25 -99.5t-24.5 -75
q-12 -10 -36 -17t-51 -7q-35 0 -59.5 10.5t-29.5 27.5q-9 23 -19.5 54.5t-22 68.5t-23.5 77.5t-23 82.5q-11 -41 -22.5 -83.5t-22.5 -82t-22 -74t-20 -58.5q-11 -9 -33.5 -16t-49.5 -7q-34 0 -60 10.5t-34 27.5q-8 20 -19.5 57t-23.5 84.5t-24 102.5t-23 109.5t-20.5 106
t-14.5 93.5q11 10 29 18.5t41 8.5q28 0 45.5 -13t22.5 -42q15 -83 26 -146.5t20.5 -115.5t18 -96t17.5 -87h5q11 43 21.5 80t21.5 76t23.5 84.5t28.5 105.5zM417 738q-25 -29 -44 -49.5t-40 -45.5q-29 1 -46.5 14.5t-17.5 34.5q0 16 8.5 27t24.5 28l47 50q16 15 32 23.5
t38 8.5q21 0 37.5 -7.5t36.5 -31.5l77 -94q0 -21 -12 -36t-37 -15q-17 0 -28.5 8.5t-22.5 22.5z" />
    <glyph glyph-name="wcircumflex" unicode="&#x175;" horiz-adv-x="753" 
d="M379 307q-11 -41 -23.5 -83t-25 -81.5t-24 -73.5t-19.5 -58q-11 -8 -28 -13.5t-43 -5.5q-29 0 -50.5 8.5t-29.5 25.5q-12 24 -27 76.5t-31 115t-29.5 127t-22.5 112.5q10 10 27.5 18.5t38.5 8.5q28 0 44 -13.5t21 -43.5q19 -120 36 -203.5t24 -113.5h4q4 17 13.5 50
t22 76t27 92t29.5 99q14 8 29.5 12.5t36.5 4.5q27 0 45.5 -9t24.5 -27q15 -48 28.5 -94t24.5 -85.5t19.5 -70.5t13.5 -48h5q17 83 35.5 173t31.5 186q12 7 27 11t30 4q26 0 42.5 -12t16.5 -39q0 -14 -6 -45.5t-15.5 -72t-21 -86t-23.5 -88t-23 -77t-19 -53.5
q-10 -8 -30.5 -13.5t-44.5 -5.5q-63 0 -75 31q-8 22 -19 54t-22.5 70t-23 79t-21.5 81zM378 622q-25 -29 -44 -49.5t-40 -45.5q-29 1 -46.5 14.5t-17.5 34.5q0 16 8.5 27t24.5 28l47 50q16 15 32 23.5t38 8.5q21 0 37.5 -7.5t36.5 -31.5l77 -94q0 -21 -12 -36t-37 -15
q-17 0 -28.5 8.5t-22.5 22.5z" />
    <glyph glyph-name="Ycircumflex" unicode="&#x176;" horiz-adv-x="562" 
d="M543 557q0 -11 -11 -36.5t-34 -67.5t-59 -102t-87 -139v-211q-8 -2 -24.5 -5t-34.5 -3q-38 0 -53 14t-15 46v158q-27 39 -57 86t-59 95t-54 94.5t-42 84.5q8 15 25 27.5t43 12.5q29 0 46.5 -13t34.5 -45q8 -14 25.5 -46.5t37 -68.5t37 -68t24.5 -44h5q19 37 36 70.5
t33 66t31.5 66t32.5 69.5q12 7 27.5 10t29.5 3q27 0 44.5 -14t17.5 -40zM285 742q-20 -20 -44 -43t-49 -45q-24 1 -40 14.5t-16 33.5q0 17 9 28.5t27 28.5l44 40q39 32 71 32q21 0 37 -8.5t34 -25.5l81 -87q0 -26 -14.5 -40t-37.5 -14q-16 0 -29 10t-33 31z" />
    <glyph glyph-name="ycircumflex" unicode="&#x177;" horiz-adv-x="521" 
d="M148 114q-24 50 -57 135t-66 206q10 12 28 20.5t39 8.5q26 0 42.5 -12t26.5 -43q47 -151 107 -306h4q13 33 27.5 75t28 88t25.5 93t21 91q12 6 25.5 10t28.5 4q26 0 45 -12t19 -39q0 -30 -13 -84.5t-34.5 -117t-48.5 -126t-54 -111.5q-52 -92 -94.5 -137.5t-83.5 -45.5
q-32 0 -51.5 18.5t-24.5 46.5q16 14 34 32.5t36 39.5t34 43t28 43q-9 3 -17.5 7.5t-17 13.5t-18 23t-19.5 36zM266 622q-25 -29 -44 -49.5t-40 -45.5q-29 1 -46.5 14.5t-17.5 34.5q0 16 8.5 27t24.5 28l47 50q16 15 32 23.5t38 8.5q21 0 37.5 -7.5t36.5 -31.5l77 -94
q0 -21 -12 -36t-37 -15q-17 0 -28.5 8.5t-22.5 22.5z" />
    <glyph glyph-name="Ydieresis" unicode="&#x178;" horiz-adv-x="562" 
d="M543 557q0 -11 -11 -36.5t-34 -67.5t-59 -102t-87 -139v-211q-8 -2 -24.5 -5t-34.5 -3q-38 0 -53 14t-15 46v158q-27 39 -57 86t-59 95t-54 94.5t-42 84.5q8 15 25 27.5t43 12.5q29 0 46.5 -13t34.5 -45q8 -14 25.5 -46.5t37 -68.5t37 -68t24.5 -44h5q19 37 36 70.5
t33 66t31.5 66t32.5 69.5q12 7 27.5 10t29.5 3q27 0 44.5 -14t17.5 -40zM255 738q0 -27 -19.5 -46t-48.5 -19q-30 0 -48.5 19t-18.5 46q0 28 18.5 47t48.5 19q29 0 48.5 -19t19.5 -47zM449 738q0 -27 -19 -46t-48 -19t-48.5 19t-19.5 46q0 28 19.5 47t48.5 19t48 -19t19 -47
z" />
    <glyph glyph-name="Zacute" unicode="&#x179;" horiz-adv-x="559" 
d="M71 0q-13 11 -21 28t-8 38q0 20 9.5 39t23.5 37l280 359h-291q-5 9 -9.5 22t-4.5 30q0 28 12.5 42t35.5 14h383q32 -27 32 -68q0 -20 -8.5 -38t-22.5 -36l-281 -360h304q5 -9 10 -22t5 -30q0 -28 -12.5 -41.5t-34.5 -13.5h-402zM357 833q32 0 50 -15.5t18 -38.5
q0 -17 -7.5 -29.5t-28.5 -27.5l-93 -66q-29 1 -45 14t-16 31q0 11 4 20t15 19z" />
    <glyph glyph-name="zacute" unicode="&#x17a;" horiz-adv-x="475" 
d="M65 0q-12 11 -19 25t-7 31t7.5 31.5t18.5 28.5l212 258h-220q-5 8 -9 21.5t-4 28.5q0 26 12 38t32 12h318q12 -11 19 -25t7 -32q0 -16 -7.5 -30.5t-18.5 -28.5l-211 -259h233q5 -8 9 -21t4 -28q0 -26 -12 -38t-32 -12h-332zM312 720q37 0 57 -17t20 -38q0 -19 -8 -30.5
t-27 -28.5l-93 -84q-32 0 -49.5 16t-17.5 35q0 11 4.5 19t14.5 19z" />
    <glyph glyph-name="Zdotaccent" unicode="&#x17b;" horiz-adv-x="559" 
d="M71 0q-13 11 -21 28t-8 38q0 20 9.5 39t23.5 37l280 359h-291q-5 9 -9.5 22t-4.5 30q0 28 12.5 42t35.5 14h383q32 -27 32 -68q0 -20 -8.5 -38t-22.5 -36l-281 -360h304q5 -9 10 -22t5 -30q0 -28 -12.5 -41.5t-34.5 -13.5h-402zM355 746q0 -29 -19.5 -49t-51.5 -20
t-51.5 20t-19.5 49q0 30 19.5 49.5t51.5 19.5t51.5 -19.5t19.5 -49.5z" />
    <glyph glyph-name="zdotaccent" unicode="&#x17c;" horiz-adv-x="475" 
d="M65 0q-12 11 -19 25t-7 31t7.5 31.5t18.5 28.5l212 258h-220q-5 8 -9 21.5t-4 28.5q0 26 12 38t32 12h318q12 -11 19 -25t7 -32q0 -16 -7.5 -30.5t-18.5 -28.5l-211 -259h233q5 -8 9 -21t4 -28q0 -26 -12 -38t-32 -12h-332zM310 620q0 -29 -19.5 -49t-51.5 -20t-51.5 20
t-19.5 49q0 30 19.5 49.5t51.5 19.5t51.5 -19.5t19.5 -49.5z" />
    <glyph glyph-name="Zcaron" unicode="&#x17d;" horiz-adv-x="559" 
d="M71 0q-13 11 -21 28t-8 38q0 20 9.5 39t23.5 37l280 359h-291q-5 9 -9.5 22t-4.5 30q0 28 12.5 42t35.5 14h383q32 -27 32 -68q0 -20 -8.5 -38t-22.5 -36l-281 -360h304q5 -9 10 -22t5 -30q0 -28 -12.5 -41.5t-34.5 -13.5h-402zM382 831q26 -1 43 -14.5t17 -34.5
q0 -17 -9.5 -28.5t-28.5 -28.5l-43 -40q-20 -17 -35.5 -23.5t-34.5 -6.5q-23 0 -40 8.5t-33 24.5l-83 81q0 29 13.5 44t37.5 15q16 0 30 -8.5t35 -31.5l40 -46z" />
    <glyph glyph-name="zcaron" unicode="&#x17e;" horiz-adv-x="475" 
d="M65 0q-12 11 -19 25t-7 31t7.5 31.5t18.5 28.5l212 258h-220q-5 8 -9 21.5t-4 28.5q0 26 12 38t32 12h318q12 -11 19 -25t7 -32q0 -16 -7.5 -30.5t-18.5 -28.5l-211 -259h233q5 -8 9 -21t4 -28q0 -26 -12 -38t-32 -12h-332zM239 621l90 90q29 -1 46.5 -15t17.5 -36
q0 -16 -9.5 -27.5t-27.5 -28.5l-53 -50q-29 -26 -62 -26q-21 0 -37.5 7.5t-41.5 31.5l-79 78q-1 4 -1 9q0 20 12 37.5t37 17.5q16 0 28.5 -7t32.5 -29z" />
    <glyph glyph-name="uni018F" unicode="&#x18f;" horiz-adv-x="657" 
d="M39 247q0 34 19 50.5t51 21.5l364 57q-20 71 -69.5 105t-115.5 34q-57 0 -101 -20t-72 -44q-18 11 -29 25t-11 35q0 22 12.5 38.5t30.5 27.5q30 19 76.5 31.5t103.5 12.5q63 0 120 -20t100.5 -60.5t69 -102.5t25.5 -146q0 -75 -21 -132.5t-59 -96.5t-91.5 -59t-118.5 -20
q-69 0 -122 21.5t-89 57.5t-54.5 83.5t-18.5 100.5zM321 90q85 0 125 48t41 139l-318 -50q2 -27 13.5 -52t31 -44t46.5 -30t61 -11z" />
    <glyph glyph-name="florin" unicode="&#x192;" horiz-adv-x="521" 
d="M297 329l-25 -250q-9 -90 -53.5 -130t-116.5 -40q-54 0 -82.5 17t-28.5 51q0 16 6 28.5t14 19.5q13 -6 28.5 -10t38.5 -4q32 0 47.5 17t20.5 58l41 403q10 93 64.5 136.5t137.5 43.5q128 0 128 -69q0 -16 -6.5 -28.5t-14.5 -19.5q-19 6 -39.5 11t-49.5 5q-45 0 -68 -20.5
t-28 -64.5l-7 -56h160q5 -8 9.5 -20.5t4.5 -27.5q0 -26 -12.5 -38t-32.5 -12h-136z" />
    <glyph glyph-name="Ohorn" unicode="&#x1a0;" horiz-adv-x="733" 
d="M652 304q0 -78 -23 -138t-63.5 -100.5t-96.5 -61t-121 -20.5t-121 20.5t-96.5 61t-63.5 100.5t-23 138t23.5 137.5t64.5 100t96.5 61t119.5 20.5q69 0 128.5 -24.5t101.5 -72.5q21 8 34 29t13 59v34q11 5 22 8.5t27 3.5q23 0 40 -12t17 -40v-9q0 -62 -30 -100t-75 -52
q12 -31 19 -66.5t7 -76.5zM519 304q0 104 -46.5 158.5t-124.5 54.5q-77 0 -123.5 -54t-46.5 -159t46 -159t124 -54t124.5 54t46.5 159z" />
    <glyph glyph-name="ohorn" unicode="&#x1a1;" horiz-adv-x="618" 
d="M533 237q0 -58 -17.5 -104.5t-49.5 -79.5t-77 -50.5t-101 -17.5t-101 17.5t-77 50t-49.5 79t-17.5 105.5q0 58 17.5 104.5t50 79t77.5 50t100 17.5q58 0 105.5 -20t79.5 -56q14 11 22.5 30t8.5 49v34q11 5 22 8.5t27 3.5q23 0 40 -12t17 -40v-9q0 -57 -26 -93.5
t-65 -53.5q14 -44 14 -92zM288 388q-54 0 -85 -39.5t-31 -111.5q0 -73 30.5 -112t85.5 -39t85.5 39.5t30.5 111.5t-31 111.5t-85 39.5z" />
    <glyph glyph-name="Uhorn" unicode="&#x1af;" horiz-adv-x="726" 
d="M580 440v-224q0 -53 -17 -95.5t-50 -73t-80 -47t-107 -16.5t-107 16.5t-79.5 47t-49.5 73t-17 95.5v391q8 2 25.5 5t34.5 3q36 0 52.5 -13t16.5 -48v-333q0 -63 35 -96.5t89 -33.5t89 33.5t35 96.5v386q9 2 26 5t34 3q36 0 53 -13t17 -48v-32q26 5 43 26.5t17 65.5v34
q11 5 22 8.5t27 3.5q23 0 40 -12t17 -40v-9q0 -39 -13 -69t-35 -50t-50 -30t-59 -10h-9z" />
    <glyph glyph-name="uhorn" unicode="&#x1b0;" horiz-adv-x="659" 
d="M503 93q0 -23 -8 -38.5t-29 -27.5q-29 -18 -73.5 -30t-101.5 -12q-52 0 -94 11.5t-72 35.5t-46 61t-16 88v291q8 3 23.5 5.5t34.5 2.5q35 0 52 -12.5t17 -46.5v-238q0 -52 26.5 -74.5t75.5 -22.5q31 0 52.5 6t32.5 13v367q8 3 23.5 5.5t33.5 2.5q36 0 52.5 -12.5
t16.5 -46.5v-19q22 8 35.5 29t13.5 60v34q11 5 22 8.5t27 3.5q23 0 40 -12t17 -40v-9q0 -39 -13 -68.5t-34.5 -49.5t-49.5 -30.5t-58 -10.5v-224v0z" />
    <glyph glyph-name="Gcaron" unicode="&#x1e6;" horiz-adv-x="652" 
d="M593 84q0 -25 -10.5 -38.5t-33.5 -25.5q-13 -8 -32.5 -14.5t-43 -11t-48.5 -7.5t-50 -3q-71 0 -131.5 18.5t-105 57.5t-69.5 99t-25 143q0 79 25.5 139.5t70 100.5t103.5 60.5t127 20.5q45 0 81.5 -7.5t63 -20t40.5 -30t14 -36.5q0 -20 -11 -35t-25 -23q-26 17 -63 31.5
t-91 14.5q-44 0 -81 -14.5t-63.5 -41.5t-41.5 -67t-15 -91q0 -55 15 -95t41.5 -66.5t63 -39t79.5 -12.5q29 0 53 5t37 12v139h-128q-5 8 -9 21t-4 29q0 26 12.5 39t32.5 13h168q25 0 39.5 -14t14.5 -39v-211zM445 831q26 -1 43 -14.5t17 -34.5q0 -17 -9.5 -28.5t-28.5 -28.5
l-43 -40q-20 -17 -35.5 -23.5t-34.5 -6.5q-23 0 -40 8.5t-33 24.5l-83 81q0 29 13.5 44t37.5 15q16 0 30 -8.5t35 -31.5l40 -46z" />
    <glyph glyph-name="gcaron" unicode="&#x1e7;" horiz-adv-x="552" 
d="M369 41q-20 -10 -46.5 -17t-61.5 -7q-45 0 -85 12.5t-70 40.5t-47.5 72.5t-17.5 108.5q0 58 17.5 102.5t50 74.5t77.5 45t100 15q52 0 95.5 -13t69.5 -30q18 -12 28.5 -27t10.5 -38v-386q0 -51 -18.5 -88t-50.5 -60.5t-75 -34.5t-93 -11q-52 0 -90.5 9.5t-57.5 21.5
q-33 21 -33 56q0 19 8 33t19 21q26 -16 63 -28t79 -12q60 0 94 23t34 74v43zM282 115q29 0 49.5 8t35.5 19v226q-14 8 -32.5 14t-44.5 6q-55 0 -88.5 -33.5t-33.5 -103.5q0 -38 8.5 -64t24 -42t36.5 -23t45 -7zM285 621l90 90q29 -1 46.5 -15t17.5 -36q0 -16 -9.5 -27.5
t-27.5 -28.5l-53 -50q-29 -26 -62 -26q-21 0 -37.5 7.5t-41.5 31.5l-79 78q-1 4 -1 9q0 20 12 37.5t37 17.5q16 0 28.5 -7t32.5 -29z" />
    <glyph glyph-name="Scommaaccent" unicode="&#x218;" horiz-adv-x="537" 
d="M254 91q58 0 85 22.5t27 56.5q0 31 -21 49.5t-64 31.5l-64 20q-38 12 -69 27t-53 35.5t-34 48t-12 65.5q0 81 61 128.5t167 47.5q42 0 77.5 -6.5t61.5 -18t40.5 -28.5t14.5 -38q0 -20 -9.5 -34.5t-23.5 -23.5q-24 17 -63.5 29.5t-86.5 12.5q-52 0 -79 -18.5t-27 -50.5
q0 -26 18.5 -40t58.5 -27l57 -18q87 -26 135 -71t48 -122q0 -41 -16 -75t-46.5 -58.5t-76 -38t-103.5 -13.5q-46 0 -84.5 8t-66.5 21.5t-43.5 32t-15.5 40.5q0 23 13.5 39.5t31.5 24.5q25 -22 66 -40.5t96 -18.5zM280 -212q-13 -14 -27.5 -20t-31.5 -6q-30 0 -48 18
q18 38 28.5 76.5t15.5 72.5q13 6 28 10t31 4q24 0 39.5 -9.5t15.5 -31.5q0 -12 -4.5 -28t-12 -32t-16.5 -30.5t-18 -23.5z" />
    <glyph glyph-name="scommaaccent" unicode="&#x219;" horiz-adv-x="470" 
d="M432 134q0 -70 -52 -109.5t-152 -39.5q-41 0 -74.5 6t-58 17.5t-38 28t-13.5 36.5q0 19 8.5 33t22.5 23q28 -18 64.5 -32t84.5 -14q41 0 62 13.5t21 37.5q0 41 -60 54l-56 13q-74 17 -109.5 51t-35.5 91q0 65 52 105.5t146 40.5q36 0 66.5 -5.5t53 -16t35 -25t12.5 -33.5
q0 -18 -8 -31.5t-19 -21.5q-9 6 -23.5 12t-32 11t-37 8.5t-38.5 3.5q-39 0 -61 -12.5t-22 -35.5q0 -17 12.5 -28t43.5 -18l49 -12q83 -19 120 -55.5t37 -95.5zM257 -212q-13 -14 -27.5 -20t-31.5 -6q-30 0 -48 18q18 38 28.5 76.5t15.5 72.5q13 6 28 10t31 4q24 0 39.5 -9.5
t15.5 -31.5q0 -12 -4.5 -28t-12 -32t-16.5 -30.5t-18 -23.5z" />
    <glyph glyph-name="Wgrave" unicode="&#x1e80;" horiz-adv-x="832" 
d="M350 458q10 5 27.5 9.5t36.5 4.5q32 0 52.5 -9.5t25.5 -28.5q15 -48 27.5 -89t24.5 -79.5t23 -76t22 -77.5h4q12 64 22 124t20 119t18.5 119t17.5 124q26 14 57 14q28 0 47.5 -12.5t19.5 -40.5q0 -20 -5 -60t-13.5 -90t-20 -106.5t-24 -110t-25 -99.5t-24.5 -75
q-12 -10 -36 -17t-51 -7q-35 0 -59.5 10.5t-29.5 27.5q-9 23 -19.5 54.5t-22 68.5t-23.5 77.5t-23 82.5q-11 -41 -22.5 -83.5t-22.5 -82t-22 -74t-20 -58.5q-11 -9 -33.5 -16t-49.5 -7q-34 0 -60 10.5t-34 27.5q-8 20 -19.5 57t-23.5 84.5t-24 102.5t-23 109.5t-20.5 106
t-14.5 93.5q11 10 29 18.5t41 8.5q28 0 45.5 -13t22.5 -42q15 -83 26 -146.5t20.5 -115.5t18 -96t17.5 -87h5q11 43 21.5 80t21.5 76t23.5 84.5t28.5 105.5zM264 753q-2 10 -2 18q0 26 15.5 42t38.5 16q29 0 56 -28l85 -93q-2 -26 -17.5 -39t-34.5 -13q-16 0 -27.5 6
t-23.5 15z" />
    <glyph glyph-name="wgrave" unicode="&#x1e81;" horiz-adv-x="753" 
d="M379 307q-11 -41 -23.5 -83t-25 -81.5t-24 -73.5t-19.5 -58q-11 -8 -28 -13.5t-43 -5.5q-29 0 -50.5 8.5t-29.5 25.5q-12 24 -27 76.5t-31 115t-29.5 127t-22.5 112.5q10 10 27.5 18.5t38.5 8.5q28 0 44 -13.5t21 -43.5q19 -120 36 -203.5t24 -113.5h4q4 17 13.5 50
t22 76t27 92t29.5 99q14 8 29.5 12.5t36.5 4.5q27 0 45.5 -9t24.5 -27q15 -48 28.5 -94t24.5 -85.5t19.5 -70.5t13.5 -48h5q17 83 35.5 173t31.5 186q12 7 27 11t30 4q26 0 42.5 -12t16.5 -39q0 -14 -6 -45.5t-15.5 -72t-21 -86t-23.5 -88t-23 -77t-19 -53.5
q-10 -8 -30.5 -13.5t-44.5 -5.5q-63 0 -75 31q-8 22 -19 54t-22.5 70t-23 79t-21.5 81zM219 640q-2 10 -2 18q0 27 16 42.5t40 15.5q32 0 55 -27l89 -112q-2 -26 -17.5 -39.5t-34.5 -13.5q-17 0 -28 5t-22 16z" />
    <glyph glyph-name="Wacute" unicode="&#x1e82;" horiz-adv-x="832" 
d="M350 458q10 5 27.5 9.5t36.5 4.5q32 0 52.5 -9.5t25.5 -28.5q15 -48 27.5 -89t24.5 -79.5t23 -76t22 -77.5h4q12 64 22 124t20 119t18.5 119t17.5 124q26 14 57 14q28 0 47.5 -12.5t19.5 -40.5q0 -20 -5 -60t-13.5 -90t-20 -106.5t-24 -110t-25 -99.5t-24.5 -75
q-12 -10 -36 -17t-51 -7q-35 0 -59.5 10.5t-29.5 27.5q-9 23 -19.5 54.5t-22 68.5t-23.5 77.5t-23 82.5q-11 -41 -22.5 -83.5t-22.5 -82t-22 -74t-20 -58.5q-11 -9 -33.5 -16t-49.5 -7q-34 0 -60 10.5t-34 27.5q-8 20 -19.5 57t-23.5 84.5t-24 102.5t-23 109.5t-20.5 106
t-14.5 93.5q11 10 29 18.5t41 8.5q28 0 45.5 -13t22.5 -42q15 -83 26 -146.5t20.5 -115.5t18 -96t17.5 -87h5q11 43 21.5 80t21.5 76t23.5 84.5t28.5 105.5zM504 833q32 0 50 -15.5t18 -38.5q0 -17 -7.5 -29.5t-28.5 -27.5l-93 -66q-29 1 -45 14t-16 31q0 11 4 20t15 19z
" />
    <glyph glyph-name="wacute" unicode="&#x1e83;" horiz-adv-x="753" 
d="M379 307q-11 -41 -23.5 -83t-25 -81.5t-24 -73.5t-19.5 -58q-11 -8 -28 -13.5t-43 -5.5q-29 0 -50.5 8.5t-29.5 25.5q-12 24 -27 76.5t-31 115t-29.5 127t-22.5 112.5q10 10 27.5 18.5t38.5 8.5q28 0 44 -13.5t21 -43.5q19 -120 36 -203.5t24 -113.5h4q4 17 13.5 50
t22 76t27 92t29.5 99q14 8 29.5 12.5t36.5 4.5q27 0 45.5 -9t24.5 -27q15 -48 28.5 -94t24.5 -85.5t19.5 -70.5t13.5 -48h5q17 83 35.5 173t31.5 186q12 7 27 11t30 4q26 0 42.5 -12t16.5 -39q0 -14 -6 -45.5t-15.5 -72t-21 -86t-23.5 -88t-23 -77t-19 -53.5
q-10 -8 -30.5 -13.5t-44.5 -5.5q-63 0 -75 31q-8 22 -19 54t-22.5 70t-23 79t-21.5 81zM459 720q37 0 57 -17t20 -38q0 -19 -8 -30.5t-27 -28.5l-93 -84q-32 0 -49.5 16t-17.5 35q0 11 4.5 19t14.5 19z" />
    <glyph glyph-name="Wdieresis" unicode="&#x1e84;" horiz-adv-x="832" 
d="M350 458q10 5 27.5 9.5t36.5 4.5q32 0 52.5 -9.5t25.5 -28.5q15 -48 27.5 -89t24.5 -79.5t23 -76t22 -77.5h4q12 64 22 124t20 119t18.5 119t17.5 124q26 14 57 14q28 0 47.5 -12.5t19.5 -40.5q0 -20 -5 -60t-13.5 -90t-20 -106.5t-24 -110t-25 -99.5t-24.5 -75
q-12 -10 -36 -17t-51 -7q-35 0 -59.5 10.5t-29.5 27.5q-9 23 -19.5 54.5t-22 68.5t-23.5 77.5t-23 82.5q-11 -41 -22.5 -83.5t-22.5 -82t-22 -74t-20 -58.5q-11 -9 -33.5 -16t-49.5 -7q-34 0 -60 10.5t-34 27.5q-8 20 -19.5 57t-23.5 84.5t-24 102.5t-23 109.5t-20.5 106
t-14.5 93.5q11 10 29 18.5t41 8.5q28 0 45.5 -13t22.5 -42q15 -83 26 -146.5t20.5 -115.5t18 -96t17.5 -87h5q11 43 21.5 80t21.5 76t23.5 84.5t28.5 105.5zM387 738q0 -27 -19.5 -46t-48.5 -19q-30 0 -48.5 19t-18.5 46q0 28 18.5 47t48.5 19q29 0 48.5 -19t19.5 -47z
M581 738q0 -27 -19 -46t-48 -19t-48.5 19t-19.5 46q0 28 19.5 47t48.5 19t48 -19t19 -47z" />
    <glyph glyph-name="wdieresis" unicode="&#x1e85;" horiz-adv-x="753" 
d="M379 307q-11 -41 -23.5 -83t-25 -81.5t-24 -73.5t-19.5 -58q-11 -8 -28 -13.5t-43 -5.5q-29 0 -50.5 8.5t-29.5 25.5q-12 24 -27 76.5t-31 115t-29.5 127t-22.5 112.5q10 10 27.5 18.5t38.5 8.5q28 0 44 -13.5t21 -43.5q19 -120 36 -203.5t24 -113.5h4q4 17 13.5 50
t22 76t27 92t29.5 99q14 8 29.5 12.5t36.5 4.5q27 0 45.5 -9t24.5 -27q15 -48 28.5 -94t24.5 -85.5t19.5 -70.5t13.5 -48h5q17 83 35.5 173t31.5 186q12 7 27 11t30 4q26 0 42.5 -12t16.5 -39q0 -14 -6 -45.5t-15.5 -72t-21 -86t-23.5 -88t-23 -77t-19 -53.5
q-10 -8 -30.5 -13.5t-44.5 -5.5q-63 0 -75 31q-8 22 -19 54t-22.5 70t-23 79t-21.5 81zM346 609q0 -27 -19.5 -46t-48.5 -19q-30 0 -48.5 19t-18.5 46q0 28 18.5 47t48.5 19q29 0 48.5 -19t19.5 -47zM540 609q0 -27 -19 -46t-48 -19t-48.5 19t-19.5 46q0 28 19.5 47t48.5 19
t48 -19t19 -47z" />
    <glyph glyph-name="Ygrave" unicode="&#x1ef2;" horiz-adv-x="562" 
d="M543 557q0 -11 -11 -36.5t-34 -67.5t-59 -102t-87 -139v-211q-8 -2 -24.5 -5t-34.5 -3q-38 0 -53 14t-15 46v158q-27 39 -57 86t-59 95t-54 94.5t-42 84.5q8 15 25 27.5t43 12.5q29 0 46.5 -13t34.5 -45q8 -14 25.5 -46.5t37 -68.5t37 -68t24.5 -44h5q19 37 36 70.5
t33 66t31.5 66t32.5 69.5q12 7 27.5 10t29.5 3q27 0 44.5 -14t17.5 -40zM129 753q-2 10 -2 18q0 26 15.5 42t38.5 16q29 0 56 -28l85 -93q-2 -26 -17.5 -39t-34.5 -13q-16 0 -27.5 6t-23.5 15z" />
    <glyph glyph-name="ygrave" unicode="&#x1ef3;" horiz-adv-x="521" 
d="M148 114q-24 50 -57 135t-66 206q10 12 28 20.5t39 8.5q26 0 42.5 -12t26.5 -43q47 -151 107 -306h4q13 33 27.5 75t28 88t25.5 93t21 91q12 6 25.5 10t28.5 4q26 0 45 -12t19 -39q0 -30 -13 -84.5t-34.5 -117t-48.5 -126t-54 -111.5q-52 -92 -94.5 -137.5t-83.5 -45.5
q-32 0 -51.5 18.5t-24.5 46.5q16 14 34 32.5t36 39.5t34 43t28 43q-9 3 -17.5 7.5t-17 13.5t-18 23t-19.5 36zM117 640q-2 10 -2 18q0 27 16 42.5t40 15.5q32 0 55 -27l89 -112q-2 -26 -17.5 -39.5t-34.5 -13.5q-17 0 -28 5t-22 16z" />
    <glyph glyph-name="circumflex" unicode="&#x2c6;" horiz-adv-x="348" 
d="M173 622q-25 -29 -44 -49.5t-40 -45.5q-29 1 -46.5 14.5t-17.5 34.5q0 16 8.5 27t24.5 28l47 50q16 15 32 23.5t38 8.5q21 0 37.5 -7.5t36.5 -31.5l77 -94q0 -21 -12 -36t-37 -15q-17 0 -28.5 8.5t-22.5 22.5z" />
    <glyph glyph-name="caron" unicode="&#x2c7;" horiz-adv-x="350" 
d="M174 621l90 90q29 -1 46.5 -15t17.5 -36q0 -16 -9.5 -27.5t-27.5 -28.5l-53 -50q-29 -26 -62 -26q-21 0 -37.5 7.5t-41.5 31.5l-79 78q-1 4 -1 9q0 20 12 37.5t37 17.5q16 0 28.5 -7t32.5 -29z" />
    <glyph glyph-name="breve" unicode="&#x2d8;" horiz-adv-x="336" 
d="M170 640q31 0 50.5 16t25.5 42q5 1 8.5 1.5t8.5 0.5q29 0 43.5 -16.5t14.5 -39.5q0 -19 -10 -36.5t-29 -31t-47 -21.5t-65 -8q-38 0 -66 8t-47.5 21.5t-29 31t-9.5 36.5q0 23 14.5 39.5t43.5 16.5q5 0 9 -0.5t9 -1.5q5 -26 24.5 -42t51.5 -16z" />
    <glyph glyph-name="dotaccent" unicode="&#x2d9;" horiz-adv-x="206" 
d="M173 620q0 -29 -19.5 -49t-51.5 -20t-51.5 20t-19.5 49q0 30 19.5 49.5t51.5 19.5t51.5 -19.5t19.5 -49.5z" />
    <glyph glyph-name="ring" unicode="&#x2da;" horiz-adv-x="286" 
d="M22 627q0 43 31 73t87 30q57 0 89 -30t32 -73t-32 -72.5t-89 -29.5q-56 0 -87 29.5t-31 72.5zM102 627q0 -19 11 -29.5t28 -10.5t28.5 10.5t11.5 29.5t-11.5 29.5t-28.5 10.5t-28 -10.5t-11 -29.5z" />
    <glyph glyph-name="ogonek" unicode="&#x2db;" horiz-adv-x="235" 
d="M189 8q-18 -11 -31 -26.5t-13 -38.5t15.5 -35.5t43.5 -12.5h9q3 -8 5 -16t2 -17q0 -23 -15.5 -39.5t-57.5 -16.5q-50 0 -83.5 26.5t-33.5 74.5q0 21 6.5 38t16 30t21 22t21.5 14z" />
    <glyph glyph-name="tilde" unicode="&#x2dc;" horiz-adv-x="374" 
d="M107 684q21 0 40 -5t36 -10.5t32 -10.5t27 -5q20 0 30 11.5t15 24.5h5q25 0 44 -15.5t19 -44.5q0 -36 -24 -55.5t-62 -19.5q-23 0 -42.5 5t-36.5 11t-31.5 11t-26.5 5q-20 0 -30 -11.5t-15 -25.5h-4q-26 0 -44.5 15.5t-18.5 44.5q0 19 7.5 33t20 23.5t28 14t31.5 4.5z
" />
    <glyph glyph-name="hungarumlaut" unicode="&#x2dd;" horiz-adv-x="488" 
d="M145 720q37 0 56.5 -16t19.5 -38q0 -17 -9 -29t-25 -31l-73 -84q-32 0 -50 15.5t-18 34.5q0 11 4 19.5t13 19.5zM343 720q38 0 57.5 -16t19.5 -38q0 -17 -9 -29t-26 -31l-73 -84q-32 0 -49.5 15.5t-17.5 34.5q0 11 3.5 19.5t12.5 19.5z" />
    <glyph glyph-name="gravecomb" unicode="&#x300;" horiz-adv-x="0" 
d="M-265 640q-2 10 -2 18q0 27 16 42.5t40 15.5q32 0 55 -27l89 -112q-2 -26 -17.5 -39.5t-34.5 -13.5q-17 0 -28 5t-22 16z" />
    <glyph glyph-name="acutecomb" unicode="&#x301;" horiz-adv-x="0" 
d="M-117 720q37 0 57 -17t20 -38q0 -19 -8 -30.5t-27 -28.5l-93 -84q-32 0 -49.5 16t-17.5 35q0 11 4.5 19t14.5 19z" />
    <glyph glyph-name="tildecomb" unicode="&#x303;" horiz-adv-x="0" 
d="M-266 690q20 0 38.5 -5t35.5 -10.5t31.5 -10.5t26.5 -5q21 0 32 12t16 23q29 0 47.5 -16t18.5 -44q0 -35 -24 -54.5t-63 -19.5q-22 0 -41 4.5t-35.5 10.5t-30.5 10.5t-26 4.5q-21 0 -32 -11.5t-16 -23.5q-29 1 -47.5 17t-18.5 44q0 35 26 54.5t62 19.5z" />
    <glyph glyph-name="hookabovecomb" unicode="&#x309;" horiz-adv-x="0" 
d="M-137 735q24 0 47 -6t41 -18.5t29 -31.5t11 -44q0 -22 -7.5 -38t-20.5 -26.5t-29 -16.5t-34 -7v-23q-5 -3 -16 -6t-26 -3q-25 0 -35 6t-10 16v33q0 20 9 27.5t25 7.5h12q37 0 37 28q0 12 -10.5 20.5t-34.5 8.5q-18 0 -35 -5t-28 -11q-9 5 -15.5 14.5t-6.5 23.5
q0 13 8 22.5t21.5 16t31 9.5t36.5 3z" />
    <glyph glyph-name="dotbelowcomb" unicode="&#x323;" horiz-adv-x="0" 
d="M-33 -136q0 -29 -19.5 -49t-51.5 -20t-51.5 20t-19.5 49q0 30 19.5 49.5t51.5 19.5t51.5 -19.5t19.5 -49.5z" />
    <glyph glyph-name="capgrave" horiz-adv-x="271" 
d="M37 753q-2 10 -2 18q0 26 15.5 42t38.5 16q29 0 56 -28l85 -93q-2 -26 -17.5 -39t-34.5 -13q-16 0 -27.5 6t-23.5 15z" />
    <glyph glyph-name="capacute" horiz-adv-x="271" 
d="M187 833q32 0 50 -15.5t18 -38.5q0 -17 -7.5 -29.5t-28.5 -27.5l-93 -66q-29 1 -45 14t-16 31q0 11 4 20t15 19z" />
    <glyph glyph-name="caphungarumlaut" horiz-adv-x="298" 
d="M119 832q37 0 55.5 -16t18.5 -37q0 -18 -8.5 -30.5t-25.5 -31.5l-55 -61q-32 0 -49 14.5t-17 33.5q0 11 3.5 20t12.5 21zM312 832q38 0 56.5 -16t18.5 -37q0 -18 -8.5 -30.5t-25.5 -31.5l-56 -61q-32 0 -49 14.5t-17 33.5q0 11 4 20t13 21z" />
    <glyph glyph-name="capring" horiz-adv-x="272" 
d="M19 749q0 43 32 71.5t88 28.5q57 0 89.5 -28.5t32.5 -71.5q0 -42 -32.5 -70.5t-89.5 -28.5q-56 0 -88 28.5t-32 70.5zM100 749q0 -17 11 -26.5t28 -9.5t28.5 9.5t11.5 26.5t-11.5 26.5t-28.5 9.5t-28 -9.5t-11 -26.5z" />
    <glyph glyph-name="capcircumflex" horiz-adv-x="366" 
d="M187 742q-20 -20 -44 -43t-49 -45q-24 1 -40 14.5t-16 33.5q0 17 9 28.5t27 28.5l44 40q39 32 71 32q21 0 37 -8.5t34 -25.5l81 -87q0 -26 -14.5 -40t-37.5 -14q-16 0 -29 10t-33 31l-40 45v0z" />
    <glyph glyph-name="capcaron" horiz-adv-x="366" 
d="M283 831q26 -1 43 -14.5t17 -34.5q0 -17 -9.5 -28.5t-28.5 -28.5l-43 -40q-20 -17 -35.5 -23.5t-34.5 -6.5q-23 0 -40 8.5t-33 24.5l-83 81q0 29 13.5 44t37.5 15q16 0 30 -8.5t35 -31.5l40 -46z" />
    <glyph glyph-name="capdblgrave" horiz-adv-x="298" 
d="M31 766v5q0 29 15.5 44t38.5 15q17 0 29.5 -9.5t23.5 -24.5l63 -92q-5 -25 -19.5 -35t-33.5 -10q-15 0 -28 8t-22 19zM223 766v5q0 29 15.5 44t38.5 15q17 0 29.5 -9.5t23.5 -24.5l63 -92q-5 -25 -19.5 -35t-33.5 -10q-16 0 -28 8t-22 19z" />
    <glyph glyph-name="uni02BC" unicode="&#x2bc;" horiz-adv-x="176" 
d="M117 413q-17 -30 -51 -30q-27 0 -50 13q3 24 6.5 52.5t6.5 58t5.5 57.5t3.5 52q12 6 27.5 10.5t32.5 4.5q25 0 43.5 -11.5t18.5 -40.5q0 -17 -4 -40.5t-10 -47t-14 -44.5t-15 -34z" />
    <glyph glyph-name="uni02BB" unicode="&#x2bb;" horiz-adv-x="178" 
d="M62 602q16 30 51 30q14 0 26 -4t23 -9q-3 -25 -6.5 -53.5t-6.5 -58t-5.5 -58t-3.5 -52.5q-12 -5 -27.5 -9.5t-31.5 -4.5q-26 0 -44.5 11.5t-18.5 40.5q0 17 4 40t10 47t14 45.5t16 34.5z" />
    <glyph glyph-name="uni02C9" unicode="&#x2c9;" horiz-adv-x="343" 
d="M35 567q-5 8 -9.5 20.5t-4.5 26.5q0 28 12 39t32 11h247q13 -18 13 -47q0 -27 -11.5 -38.5t-31.5 -11.5h-247z" />
    <glyph glyph-name="uni02CB" unicode="&#x2cb;" horiz-adv-x="292" 
d="M37 640q-2 10 -2 18q0 27 16 42.5t40 15.5q32 0 55 -27l89 -112q-2 -26 -17.5 -39.5t-34.5 -13.5q-17 0 -28 5t-22 16z" />
    <glyph glyph-name="uni02BE" unicode="&#x2be;" horiz-adv-x="226" 
d="M99 516q0 35 -20 53t-58 18q-2 5 -3 12t-1 11q0 23 16.5 36.5t46.5 13.5q21 0 42.5 -8.5t39 -26.5t28 -45t10.5 -64t-10.5 -64.5t-28 -45.5t-39 -26.5t-42.5 -8.5q-30 0 -46.5 13.5t-16.5 36.5q0 4 1 11t3 12q38 0 58 18.5t20 53.5z" />
    <glyph glyph-name="uni02BF" unicode="&#x2bf;" horiz-adv-x="226" 
d="M127 516q0 -35 20 -53.5t58 -18.5q2 -5 2.5 -12t0.5 -11q0 -23 -16 -36.5t-46 -13.5q-21 0 -42.5 8.5t-39 26.5t-28 45.5t-10.5 64.5t10.5 64t28 45t39 26.5t42.5 8.5q30 0 46 -13.5t16 -36.5q0 -4 -0.5 -11t-2.5 -12q-38 0 -58 -18t-20 -53z" />
    <glyph glyph-name="uni02CA" unicode="&#x2ca;" horiz-adv-x="309" 
d="M181 720q37 0 57 -17t20 -38q0 -19 -8 -30.5t-27 -28.5l-93 -84q-32 0 -49.5 16t-17.5 35q0 11 4.5 19t14.5 19z" />
    <glyph glyph-name="uni02CC" unicode="&#x2cc;" horiz-adv-x="382" 
d="M232 -303q-8 -2 -20 -4.5t-24 -2.5q-26 0 -39.5 9.5t-13.5 38.5v161q8 3 20 5.5t26 2.5q25 0 38 -10t13 -38v-162z" />
    <glyph glyph-name="uni02C8" unicode="&#x2c8;" horiz-adv-x="342" 
d="M232 531q-8 -2 -20 -4.5t-24 -2.5q-26 0 -39.5 9.5t-13.5 38.5v161q8 3 20 5.5t26 2.5q25 0 38 -10t13 -38v-162z" />
    <glyph glyph-name="uni0308" unicode="&#x308;" horiz-adv-x="374" 
d="M159 618q0 -27 -19.5 -46t-48.5 -19q-30 0 -48.5 19t-18.5 46q0 28 18.5 47t48.5 19q29 0 48.5 -19t19.5 -47zM353 618q0 -27 -19 -46t-48 -19t-48.5 19t-19.5 46q0 28 19.5 47t48.5 19t48 -19t19 -47z" />
    <glyph glyph-name="uni0307" unicode="&#x307;" horiz-adv-x="206" 
d="M173 620q0 -29 -19.5 -49t-51.5 -20t-51.5 20t-19.5 49q0 30 19.5 49.5t51.5 19.5t51.5 -19.5t19.5 -49.5z" />
    <glyph glyph-name="uni030B" unicode="&#x30b;" horiz-adv-x="298" 
d="M141 720q37 0 56.5 -16t19.5 -38q0 -17 -9 -29t-25 -31l-73 -84q-32 0 -50 15.5t-18 34.5q0 11 4 19.5t13 19.5zM339 720q38 0 57.5 -16t19.5 -38q0 -17 -9 -29t-26 -31l-73 -84q-32 0 -49.5 15.5t-17.5 34.5q0 11 3.5 19.5t12.5 19.5z" />
    <glyph glyph-name="uni0302" unicode="&#x302;" horiz-adv-x="348" 
d="M173 622q-25 -29 -44 -49.5t-40 -45.5q-29 1 -46.5 14.5t-17.5 34.5q0 16 8.5 27t24.5 28l47 50q16 15 32 23.5t38 8.5q21 0 37.5 -7.5t36.5 -31.5l77 -94q0 -21 -12 -36t-37 -15q-17 0 -28.5 8.5t-22.5 22.5z" />
    <glyph glyph-name="uni030C" unicode="&#x30c;" horiz-adv-x="350" 
d="M174 621l90 90q29 -1 46.5 -15t17.5 -36q0 -16 -9.5 -27.5t-27.5 -28.5l-53 -50q-29 -26 -62 -26q-21 0 -37.5 7.5t-41.5 31.5l-79 78q-1 4 -1 9q0 20 12 37.5t37 17.5q16 0 28.5 -7t32.5 -29z" />
    <glyph glyph-name="uni030C.alt" horiz-adv-x="204" 
d="M118 504q-13 -14 -27.5 -20t-31.5 -6q-31 0 -48 19q17 38 28 76t16 72q12 7 27.5 11t31.5 4q24 0 39.5 -10t15.5 -32q0 -12 -4.5 -28t-12 -31.5t-16.5 -30t-18 -24.5z" />
    <glyph glyph-name="uni0306" unicode="&#x306;" horiz-adv-x="336" 
d="M170 640q31 0 50.5 16t25.5 42q5 1 8.5 1.5t8.5 0.5q29 0 43.5 -16.5t14.5 -39.5q0 -19 -10 -36.5t-29 -31t-47 -21.5t-65 -8q-38 0 -66 8t-47.5 21.5t-29 31t-9.5 36.5q0 23 14.5 39.5t43.5 16.5q5 0 9 -0.5t9 -1.5q5 -26 24.5 -42t51.5 -16z" />
    <glyph glyph-name="uni030A" unicode="&#x30a;" horiz-adv-x="286" 
d="M22 627q0 43 31 73t87 30q57 0 89 -30t32 -73t-32 -72.5t-89 -29.5q-56 0 -87 29.5t-31 72.5zM102 627q0 -19 11 -29.5t28 -10.5t28.5 10.5t11.5 29.5t-11.5 29.5t-28.5 10.5t-28 -10.5t-11 -29.5z" />
    <glyph glyph-name="uni0304" unicode="&#x304;" horiz-adv-x="321" 
d="M35 567q-5 8 -9.5 20.5t-4.5 26.5q0 28 12 39t32 11h247q13 -18 13 -47q0 -27 -11.5 -38.5t-31.5 -11.5h-247z" />
    <glyph glyph-name="uni030F" unicode="&#x30f;" horiz-adv-x="302" 
d="M27 648v6q0 29 16 44t39 15q18 0 31.5 -9t24.5 -26l79 -112q-6 -26 -19 -36.5t-32 -10.5q-16 0 -28.5 8.5t-23.5 19.5zM228 648v6q0 29 15.5 44t38.5 15q19 0 32.5 -9t24.5 -26l79 -112q-6 -26 -19 -36.5t-33 -10.5q-15 0 -27.5 8t-23.5 20z" />
    <glyph glyph-name="uni0311" unicode="&#x311;" horiz-adv-x="336" 
d="M170 740q-32 0 -51.5 -16t-24.5 -43q-5 -1 -9 -1.5t-9 -0.5q-29 0 -43.5 16.5t-14.5 39.5q0 19 10 36.5t29 31t47.5 21.5t65.5 8t65.5 -8t47.5 -21.5t28.5 -31t9.5 -36.5q0 -23 -14.5 -39.5t-43.5 -16.5q-7 0 -17 2q-5 27 -25 43t-51 16z" />
    <glyph glyph-name="uni0312" unicode="&#x312;" horiz-adv-x="178" 
d="M70 676q12 14 27 19.5t32 5.5q30 0 48 -18q-18 -38 -29 -76t-15 -73q-13 -6 -28 -10t-31 -4q-24 0 -39.5 10t-15.5 32q0 12 4.5 28t12 31.5t16.5 30t18 24.5z" />
    <glyph glyph-name="uni031B" unicode="&#x31b;" horiz-adv-x="218" 
d="M-3 318q-3 4 -5.5 13t-4 20t-2.5 23t-1 23q34 0 58.5 20.5t24.5 73.5v34q11 5 22 8.5t27 3.5q23 0 40 -12t17 -40v-9q0 -39 -13 -69t-35 -50t-50 -30t-59 -10z" />
    <glyph glyph-name="uni0324" unicode="&#x324;" horiz-adv-x="374" 
d="M159 -140q0 -27 -19.5 -46t-48.5 -19q-30 0 -48.5 19t-18.5 46q0 28 18.5 47t48.5 19q29 0 48.5 -19t19.5 -47zM353 -140q0 -27 -19 -46t-48 -19t-48.5 19t-19.5 46q0 28 19.5 47t48.5 19t48 -19t19 -47z" />
    <glyph glyph-name="uni0326" unicode="&#x326;" horiz-adv-x="200" 
d="M125 -212q-13 -14 -27.5 -20t-31.5 -6q-30 0 -48 18q18 38 28.5 76.5t15.5 72.5q13 6 28 10t31 4q24 0 39.5 -9.5t15.5 -31.5q0 -12 -4.5 -28t-12 -32t-16.5 -30.5t-18 -23.5z" />
    <glyph glyph-name="uni0327" unicode="&#x327;" horiz-adv-x="195" 
d="M119 28q32 -20 46 -49t14 -63q0 -51 -31 -81.5t-84 -30.5q-34 0 -53.5 15t-19.5 43q0 13 5 28h13q33 0 48 15t15 39q0 13 -5.5 29.5t-18.5 30.5z" />
    <glyph glyph-name="uni0328" unicode="&#x328;" horiz-adv-x="235" 
d="M189 8q-18 -11 -31 -26.5t-13 -38.5t15.5 -35.5t43.5 -12.5h9q3 -8 5 -16t2 -17q0 -23 -15.5 -39.5t-57.5 -16.5q-50 0 -83.5 26.5t-33.5 74.5q0 21 6.5 38t16 30t21 22t21.5 14z" />
    <glyph glyph-name="uni032E" unicode="&#x32e;" horiz-adv-x="336" 
d="M170 -104q31 0 50.5 16t25.5 42q5 1 8.5 1.5t8.5 0.5q29 0 43.5 -16.5t14.5 -39.5q0 -19 -10 -36.5t-29 -31t-47 -21.5t-65 -8q-38 0 -66 8t-47.5 21.5t-29 31t-9.5 36.5q0 23 14.5 39.5t43.5 16.5q5 0 9 -0.5t9 -1.5q5 -26 24.5 -42t51.5 -16z" />
    <glyph glyph-name="uni0331" unicode="&#x331;" horiz-adv-x="368" 
d="M38 -199q-5 8 -9 20.5t-4 26.5q0 28 11.5 39t31.5 11h261q13 -18 13 -47q0 -27 -11.5 -38.5t-31.5 -11.5h-261z" />
    <glyph glyph-name="acute.vit" horiz-adv-x="329" 
d="M164 890q31 0 47 -14t16 -31q0 -15 -7.5 -26.5t-21.5 -25.5l-64 -68q-26 0 -41.5 12.5t-15.5 28.5t15 35z" />
    <glyph glyph-name="grave.vit" horiz-adv-x="293" 
d="M60 838q1 24 15 38t32 14q17 0 29 -8.5t23 -23.5l65 -91q-3 -21 -16 -31.5t-28 -10.5q-22 0 -41 22z" />
    <glyph glyph-name="tilde.vit" horiz-adv-x="577" 
d="M190 866q18 0 35.5 -4.5t34 -10.5t30 -10.5t23.5 -4.5q17 0 25.5 10t13.5 24h6q22 0 38 -13t16 -37q0 -31 -21.5 -48t-55.5 -17q-19 0 -37 4.5t-34 9.5t-29 9.5t-22 4.5q-17 0 -26 -9.5t-14 -23.5h-6q-22 0 -38.5 12.5t-16.5 38.5q0 32 24 48.5t54 16.5z" />
    <glyph glyph-name="circumflex.vit" horiz-adv-x="348" 
d="M173 637q-25 -29 -44 -49.5t-40 -45.5q-29 1 -46.5 14.5t-17.5 34.5q0 16 8.5 27t24.5 28l47 50q16 15 32 23.5t38 8.5q21 0 37.5 -7.5t36.5 -31.5l77 -94q0 -21 -12 -36t-37 -15q-17 0 -28.5 8.5t-22.5 22.5z" />
    <glyph glyph-name="caron.vit" horiz-adv-x="350" 
d="M37 838q0 22 13 34.5t30 12.5q15 0 24.5 -7t19.5 -18l51 -58l78 83q28 0 41.5 -12.5t13.5 -26.5q0 -15 -6.5 -25t-19.5 -21l-64 -59q-9 -9 -19 -14.5t-22 -5.5q-14 0 -24 6t-19 14z" />
    <glyph glyph-name="hook.vit" horiz-adv-x="233" 
d="M100 889q42 0 71.5 -21t29.5 -63q0 -35 -22 -52t-49 -19v-27q-12 -6 -33 -6q-36 0 -36 20v34q0 26 23 26h7q35 0 35 24q0 11 -8.5 17.5t-25.5 6.5q-14 0 -27 -4.5t-24 -10.5q-18 12 -18 33q0 20 22 31t55 11z" />
    <glyph glyph-name="uni1E0C" unicode="&#x1e0c;" horiz-adv-x="659" 
d="M482 306q0 54 -15 93.5t-41.5 65t-63 38t-79.5 12.5q-23 0 -41.5 -1.5t-35.5 -3.5v-411q17 -4 38.5 -5.5t42.5 -1.5q93 0 144 54t51 160zM615 307q0 -81 -23.5 -141.5t-66.5 -100t-103.5 -59.5t-134.5 -20q-17 0 -37 0.5t-41.5 3t-43 6.5t-40.5 11q-48 18 -48 60v490
q0 18 10 28t28 16q37 13 80.5 16.5t82.5 3.5q75 0 137.5 -19.5t106.5 -58.5t68.5 -98t24.5 -138zM369 -136q0 -29 -19.5 -49t-51.5 -20t-51.5 20t-19.5 49q0 30 19.5 49.5t51.5 19.5t51.5 -19.5t19.5 -49.5z" />
    <glyph glyph-name="uni1E0D" unicode="&#x1e0d;" horiz-adv-x="566" 
d="M502 92q0 -23 -10 -37t-30 -27q-25 -16 -66 -29.5t-95 -13.5q-120 0 -190.5 61.5t-70.5 188.5q0 66 19 113.5t51.5 78.5t76.5 46t95 15q27 0 51 -5.5t43 -13.5v181q8 3 23.5 5.5t33.5 2.5q36 0 52.5 -13t16.5 -46v-507zM376 367q-15 9 -35 15t-43 6q-56 0 -93 -36
t-37 -118q0 -77 35.5 -112.5t96.5 -35.5q26 0 44.5 6t31.5 14v261zM370 -136q0 -29 -19.5 -49t-51.5 -20t-51.5 20t-19.5 49q0 30 19.5 49.5t51.5 19.5t51.5 -19.5t19.5 -49.5z" />
    <glyph glyph-name="uni1E0E" unicode="&#x1e0e;" horiz-adv-x="659" 
d="M482 306q0 54 -15 93.5t-41.5 65t-63 38t-79.5 12.5q-23 0 -41.5 -1.5t-35.5 -3.5v-411q17 -4 38.5 -5.5t42.5 -1.5q93 0 144 54t51 160zM615 307q0 -81 -23.5 -141.5t-66.5 -100t-103.5 -59.5t-134.5 -20q-17 0 -37 0.5t-41.5 3t-43 6.5t-40.5 11q-48 18 -48 60v490
q0 18 10 28t28 16q37 13 80.5 16.5t82.5 3.5q75 0 137.5 -19.5t106.5 -58.5t68.5 -98t24.5 -138zM154 -194q-5 8 -9 20.5t-4 26.5q0 28 11.5 39t31.5 11h261q13 -18 13 -47q0 -27 -11.5 -38.5t-31.5 -11.5h-261z" />
    <glyph glyph-name="uni1E0F" unicode="&#x1e0f;" horiz-adv-x="566" 
d="M502 92q0 -23 -10 -37t-30 -27q-25 -16 -66 -29.5t-95 -13.5q-120 0 -190.5 61.5t-70.5 188.5q0 66 19 113.5t51.5 78.5t76.5 46t95 15q27 0 51 -5.5t43 -13.5v181q8 3 23.5 5.5t33.5 2.5q36 0 52.5 -13t16.5 -46v-507zM376 367q-15 9 -35 15t-43 6q-56 0 -93 -36
t-37 -118q0 -77 35.5 -112.5t96.5 -35.5q26 0 44.5 6t31.5 14v261zM144 -194q-5 8 -9 20.5t-4 26.5q0 28 11.5 39t31.5 11h261q13 -18 13 -47q0 -27 -11.5 -38.5t-31.5 -11.5h-261z" />
    <glyph glyph-name="uni0237" unicode="&#x237;" horiz-adv-x="266" 
d="M-1 -121q18 8 31.5 17.5t23 22.5t14 30.5t4.5 41.5v481q8 3 23.5 5.5t33.5 2.5q36 0 52.5 -12.5t16.5 -46.5v-444q0 -47 -11.5 -79.5t-30 -52.5t-41 -29t-44.5 -9q-35 0 -52.5 20.5t-19.5 51.5z" />
    <glyph glyph-name="uni0251" unicode="&#x251;" horiz-adv-x="570" 
d="M502 148q0 -44 9 -67.5t24 -40.5q-3 -22 -21.5 -38.5t-47.5 -16.5q-47 0 -67 43q-23 -19 -57 -31t-77 -12q-45 0 -86 14t-72 44t-49 77t-18 113q0 65 19.5 113t54 79.5t81.5 47t102 15.5q53 0 96.5 -12.5t70.5 -29.5q17 -11 27.5 -26t10.5 -38v-234zM286 86q29 0 54 11
t37 26v245q-12 8 -32 14t-45 6q-28 0 -52 -8.5t-42 -27.5t-28 -48t-10 -69q0 -78 32.5 -113.5t85.5 -35.5z" />
    <glyph glyph-name="uni0259" unicode="&#x259;" horiz-adv-x="533" 
d="M32 195q0 28 14.5 41.5t40.5 17.5l278 40q-14 52 -51.5 74.5t-88.5 22.5q-40 0 -75 -12t-56 -27q-14 8 -22.5 22t-8.5 31q0 19 13 35t36 26.5t54 16.5t67 6q58 0 106 -17t81.5 -49.5t52 -80.5t18.5 -110q0 -63 -19 -109t-51.5 -76.5t-75 -45.5t-90.5 -15q-51 0 -92 16
t-70 44t-45 66.5t-16 82.5zM255 81q49 0 81.5 31t36.5 94l-222 -33q5 -38 30 -65t74 -27z" />
    <glyph glyph-name="uni0261" unicode="&#x261;" horiz-adv-x="552" 
d="M369 41q-20 -10 -46.5 -17t-61.5 -7q-45 0 -85 12.5t-70 40.5t-47.5 72.5t-17.5 108.5q0 58 17.5 102.5t50 74.5t77.5 45t100 15q52 0 95.5 -13t69.5 -30q18 -12 28.5 -27t10.5 -38v-386q0 -51 -18.5 -88t-50.5 -60.5t-75 -34.5t-93 -11q-52 0 -90.5 9.5t-57.5 21.5
q-33 21 -33 56q0 19 8 33t19 21q26 -16 63 -28t79 -12q60 0 94 23t34 74v43zM282 115q29 0 49.5 8t35.5 19v226q-14 8 -32.5 14t-44.5 6q-55 0 -88.5 -33.5t-33.5 -103.5q0 -38 8.5 -64t24 -42t36.5 -23t45 -7z" />
    <glyph glyph-name="uni1E20" unicode="&#x1e20;" horiz-adv-x="652" 
d="M593 84q0 -25 -10.5 -38.5t-33.5 -25.5q-13 -8 -32.5 -14.5t-43 -11t-48.5 -7.5t-50 -3q-71 0 -131.5 18.5t-105 57.5t-69.5 99t-25 143q0 79 25.5 139.5t70 100.5t103.5 60.5t127 20.5q45 0 81.5 -7.5t63 -20t40.5 -30t14 -36.5q0 -20 -11 -35t-25 -23q-26 17 -63 31.5
t-91 14.5q-44 0 -81 -14.5t-63.5 -41.5t-41.5 -67t-15 -91q0 -55 15 -95t41.5 -66.5t63 -39t79.5 -12.5q29 0 53 5t37 12v139h-128q-5 8 -9 21t-4 29q0 26 12.5 39t32.5 13h168q25 0 39.5 -14t14.5 -39v-211zM205 692q-5 8 -9.5 20.5t-4.5 26.5q0 28 12 39t32 11h247
q13 -18 13 -47q0 -27 -11.5 -38.5t-31.5 -11.5h-247z" />
    <glyph glyph-name="uni1E21" unicode="&#x1e21;" horiz-adv-x="552" 
d="M369 41q-20 -10 -46.5 -17t-61.5 -7q-45 0 -85 12.5t-70 40.5t-47.5 72.5t-17.5 108.5q0 58 17.5 102.5t50 74.5t77.5 45t100 15q52 0 95.5 -13t69.5 -30q18 -12 28.5 -27t10.5 -38v-386q0 -51 -18.5 -88t-50.5 -60.5t-75 -34.5t-93 -11q-52 0 -90.5 9.5t-57.5 21.5
q-33 21 -33 56q0 19 8 33t19 21q26 -16 63 -28t79 -12q60 0 94 23t34 74v43zM282 115q29 0 49.5 8t35.5 19v226q-14 8 -32.5 14t-44.5 6q-55 0 -88.5 -33.5t-33.5 -103.5q0 -38 8.5 -64t24 -42t36.5 -23t45 -7zM139 567q-5 8 -9.5 20.5t-4.5 26.5q0 28 12 39t32 11h247
q13 -18 13 -47q0 -27 -11.5 -38.5t-31.5 -11.5h-247z" />
    <glyph glyph-name="uni1E24" unicode="&#x1e24;" horiz-adv-x="659" 
d="M216 1q-9 -2 -25.5 -5t-35.5 -3q-38 0 -53.5 14t-15.5 47v553q8 2 25.5 5t34.5 3q36 0 53 -13t17 -48v-197h250v250q8 2 25.5 5t34.5 3q36 0 53 -13.5t17 -48.5v-552q-9 -2 -25.5 -5t-35.5 -3q-38 0 -53.5 14t-15.5 47v199h-250v-252zM420 -136q0 -29 -19.5 -49
t-51.5 -20t-51.5 20t-19.5 49q0 30 19.5 49.5t51.5 19.5t51.5 -19.5t19.5 -49.5z" />
    <glyph glyph-name="uni1E25" unicode="&#x1e25;" horiz-adv-x="558" 
d="M193 1q-9 -2 -24 -5t-34 -3q-35 0 -52 13t-17 46v598q8 3 23.5 5.5t34.5 2.5q35 0 52 -13t17 -46v-138q22 11 50.5 19t63.5 8q91 0 145 -47t54 -142v-298q-8 -2 -23.5 -5t-33.5 -3q-36 0 -53 13t-17 46v241q0 50 -26 72.5t-68 22.5q-27 0 -50 -8.5t-42 -20.5v-358z
M362 -136q0 -29 -19.5 -49t-51.5 -20t-51.5 20t-19.5 49q0 30 19.5 49.5t51.5 19.5t51.5 -19.5t19.5 -49.5z" />
    <glyph glyph-name="uni1E2A" unicode="&#x1e2a;" horiz-adv-x="659" 
d="M216 1q-9 -2 -25.5 -5t-35.5 -3q-38 0 -53.5 14t-15.5 47v553q8 2 25.5 5t34.5 3q36 0 53 -13t17 -48v-197h250v250q8 2 25.5 5t34.5 3q36 0 53 -13.5t17 -48.5v-552q-9 -2 -25.5 -5t-35.5 -3q-38 0 -53.5 14t-15.5 47v199h-250v-252zM353 -115q31 0 50.5 16t25.5 42
q5 1 8.5 1.5t8.5 0.5q29 0 43.5 -16.5t14.5 -39.5q0 -19 -10 -36.5t-29 -31t-47 -21.5t-65 -8q-38 0 -66 8t-47.5 21.5t-29 31t-9.5 36.5q0 23 14.5 39.5t43.5 16.5q5 0 9 -0.5t9 -1.5q5 -26 24.5 -42t51.5 -16z" />
    <glyph glyph-name="uni1E2B" unicode="&#x1e2b;" horiz-adv-x="558" 
d="M193 1q-9 -2 -24 -5t-34 -3q-35 0 -52 13t-17 46v598q8 3 23.5 5.5t34.5 2.5q35 0 52 -13t17 -46v-138q22 11 50.5 19t63.5 8q91 0 145 -47t54 -142v-298q-8 -2 -23.5 -5t-33.5 -3q-36 0 -53 13t-17 46v241q0 50 -26 72.5t-68 22.5q-27 0 -50 -8.5t-42 -20.5v-358z
M297 -115q31 0 50.5 16t25.5 42q5 1 8.5 1.5t8.5 0.5q29 0 43.5 -16.5t14.5 -39.5q0 -19 -10 -36.5t-29 -31t-47 -21.5t-65 -8q-38 0 -66 8t-47.5 21.5t-29 31t-9.5 36.5q0 23 14.5 39.5t43.5 16.5q5 0 9 -0.5t9 -1.5q5 -26 24.5 -42t51.5 -16z" />
    <glyph glyph-name="uni1E36" unicode="&#x1e36;" horiz-adv-x="507" 
d="M146 -2q-32 0 -50.5 19t-18.5 51v539q8 2 25.5 5t34.5 3q36 0 53 -13t17 -48v-449h257q5 -8 10 -21.5t5 -29.5q0 -27 -12.5 -41.5t-34.5 -14.5h-286zM345 -136q0 -29 -19.5 -49t-51.5 -20t-51.5 20t-19.5 49q0 30 19.5 49.5t51.5 19.5t51.5 -19.5t19.5 -49.5z" />
    <glyph glyph-name="uni1E37" unicode="&#x1e37;" horiz-adv-x="266" 
d="M196 1q-8 -2 -23.5 -5t-33.5 -3q-36 0 -52.5 13t-16.5 46v598q8 3 23.5 5.5t33.5 2.5q36 0 52.5 -13t16.5 -46v-598zM208 -136q0 -29 -19.5 -49t-51.5 -20t-51.5 20t-19.5 49q0 30 19.5 49.5t51.5 19.5t51.5 -19.5t19.5 -49.5z" />
    <glyph glyph-name="uni1E38" unicode="&#x1e38;" horiz-adv-x="507" 
d="M146 -2q-32 0 -50.5 19t-18.5 51v539q8 2 25.5 5t34.5 3q36 0 53 -13t17 -48v-449h257q5 -8 10 -21.5t5 -29.5q0 -27 -12.5 -41.5t-34.5 -14.5h-286zM15 692q-5 8 -9.5 20.5t-4.5 26.5q0 28 12 39t32 11h247q13 -18 13 -47q0 -27 -11.5 -38.5t-31.5 -11.5h-247zM346 -136
q0 -29 -19.5 -49t-51.5 -20t-51.5 20t-19.5 49q0 30 19.5 49.5t51.5 19.5t51.5 -19.5t19.5 -49.5z" />
    <glyph glyph-name="uni1E39" unicode="&#x1e39;" horiz-adv-x="266" 
d="M196 1q-8 -2 -23.5 -5t-33.5 -3q-36 0 -52.5 13t-16.5 46v598q8 3 23.5 5.5t33.5 2.5q36 0 52.5 -13t16.5 -46v-598zM-13 712q-5 8 -9.5 20.5t-4.5 26.5q0 28 12 39t32 11h247q13 -18 13 -47q0 -27 -11.5 -38.5t-31.5 -11.5h-247zM207 -136q0 -29 -19.5 -49t-51.5 -20
t-51.5 20t-19.5 49q0 30 19.5 49.5t51.5 19.5t51.5 -19.5t19.5 -49.5z" />
    <glyph glyph-name="uni1E3A" unicode="&#x1e3a;" horiz-adv-x="507" 
d="M146 -2q-32 0 -50.5 19t-18.5 51v539q8 2 25.5 5t34.5 3q36 0 53 -13t17 -48v-449h257q5 -8 10 -21.5t5 -29.5q0 -27 -12.5 -41.5t-34.5 -14.5h-286zM124 -194q-5 8 -9 20.5t-4 26.5q0 28 11.5 39t31.5 11h261q13 -18 13 -47q0 -27 -11.5 -38.5t-31.5 -11.5h-261z" />
    <glyph glyph-name="uni1E3B" unicode="&#x1e3b;" horiz-adv-x="266" 
d="M196 1q-8 -2 -23.5 -5t-33.5 -3q-36 0 -52.5 13t-16.5 46v598q8 3 23.5 5.5t33.5 2.5q36 0 52.5 -13t16.5 -46v-598zM-6 -194q-5 8 -9 20.5t-4 26.5q0 28 11.5 39t31.5 11h261q13 -18 13 -47q0 -27 -11.5 -38.5t-31.5 -11.5h-261z" />
    <glyph glyph-name="uni1E42" unicode="&#x1e42;" horiz-adv-x="789" 
d="M460 153q-10 -8 -26 -13t-37 -5q-26 0 -43.5 6.5t-24.5 23.5q-41 102 -69 174t-45 123h-5q-3 -67 -5.5 -123t-4.5 -109.5t-4.5 -108.5t-6.5 -119q-10 -3 -25 -6t-32 -3q-67 0 -67 50q0 16 1.5 49.5t4 78t6 97.5t7 107t7.5 106.5t7 97.5q8 10 29.5 20.5t55.5 10.5
q38 0 61.5 -12.5t35.5 -41.5q13 -31 27.5 -68t29.5 -76t29.5 -76.5t27.5 -70.5h4q34 94 67.5 182t58.5 149q12 6 31 10t39 4q37 0 59 -11t27 -33q4 -19 9 -60.5t10 -94.5t10 -113t9 -115.5t7 -101.5t4 -72q-13 -8 -27.5 -12t-35.5 -4q-26 0 -45.5 10.5t-21.5 39.5
q-4 63 -7 123.5t-5 114.5t-4 99.5t-3 78.5h-5q-16 -47 -44 -119.5t-71 -186.5zM470 -136q0 -29 -19.5 -49t-51.5 -20t-51.5 20t-19.5 49q0 30 19.5 49.5t51.5 19.5t51.5 -19.5t19.5 -49.5z" />
    <glyph glyph-name="uni1E43" unicode="&#x1e43;" horiz-adv-x="823" 
d="M768 1q-8 -2 -23.5 -5t-33.5 -3q-36 0 -52.5 13t-16.5 46v260q0 40 -22 58t-58 18q-24 0 -46.5 -9t-39.5 -24q3 -14 3 -28v-326q-8 -2 -23.5 -5t-33.5 -3q-36 0 -52.5 13t-16.5 46v260q0 40 -23 58t-59 18q-25 0 -46 -8t-35 -16v-363q-9 -2 -24 -5t-34 -3q-35 0 -52 13
t-17 46v321q0 23 10 38.5t31 29.5q30 20 76 33.5t95 13.5q91 0 148 -49q29 21 66.5 35t88.5 14q39 0 74 -9.5t60.5 -30.5t40.5 -53.5t15 -77.5v-316zM489 -136q0 -29 -19.5 -49t-51.5 -20t-51.5 20t-19.5 49q0 30 19.5 49.5t51.5 19.5t51.5 -19.5t19.5 -49.5z" />
    <glyph glyph-name="uni1E44" unicode="&#x1e44;" horiz-adv-x="665" 
d="M143 -7q-37 0 -52 13.5t-15 45.5v533q11 14 32.5 22t47.5 8q31 0 55.5 -11t43.5 -44l144 -259q20 -36 38.5 -74.5t32.5 -70.5l4 1q-5 59 -6.5 114.5t-1.5 109.5v227q8 2 24.5 4.5t33.5 2.5q37 0 52.5 -13.5t15.5 -45.5v-540q-11 -11 -31.5 -17t-48.5 -6q-30 0 -54.5 10.5
t-43.5 43.5l-144 259q-20 35 -38.5 74.5t-32.5 71.5l-6 -1q5 -55 6.5 -113t1.5 -110v-227q-8 -2 -24 -5t-34 -3zM406 746q0 -29 -19.5 -49t-51.5 -20t-51.5 20t-19.5 49q0 30 19.5 49.5t51.5 19.5t51.5 -19.5t19.5 -49.5z" />
    <glyph glyph-name="uni1E45" unicode="&#x1e45;" horiz-adv-x="567" 
d="M377 305q0 43 -24.5 63t-66.5 20q-29 0 -53.5 -7t-42.5 -18v-362q-9 -2 -24 -5t-34 -3q-35 0 -52 13t-17 46v321q0 24 10 39t31 29q29 20 77 33.5t106 13.5q103 0 159.5 -45.5t56.5 -133.5v-308q-8 -2 -23.5 -5t-33.5 -3q-36 0 -52.5 13t-16.5 46v253zM349 620
q0 -29 -19.5 -49t-51.5 -20t-51.5 20t-19.5 49q0 30 19.5 49.5t51.5 19.5t51.5 -19.5t19.5 -49.5z" />
    <glyph glyph-name="uni1E46" unicode="&#x1e46;" horiz-adv-x="670" 
d="M144 -7q-37 0 -52 13.5t-15 45.5v533q11 14 32.5 22t47.5 8q31 0 55.5 -11t43.5 -44l144 -259q20 -36 38.5 -74.5t32.5 -70.5l4 1q-5 59 -6.5 114.5t-1.5 109.5v227q8 2 24.5 4.5t33.5 2.5q37 0 52.5 -13.5t15.5 -45.5v-540q-11 -11 -31.5 -17t-48.5 -6q-30 0 -54.5 10.5
t-43.5 43.5l-144 259q-20 35 -38.5 74.5t-32.5 71.5l-6 -1q5 -55 6.5 -113t1.5 -110v-227q-8 -2 -24 -5t-34 -3zM411 -136q0 -29 -19.5 -49t-51.5 -20t-51.5 20t-19.5 49q0 30 19.5 49.5t51.5 19.5t51.5 -19.5t19.5 -49.5z" />
    <glyph glyph-name="uni1E47" unicode="&#x1e47;" horiz-adv-x="567" 
d="M377 305q0 43 -24.5 63t-66.5 20q-29 0 -53.5 -7t-42.5 -18v-362q-9 -2 -24 -5t-34 -3q-35 0 -52 13t-17 46v321q0 24 10 39t31 29q29 20 77 33.5t106 13.5q103 0 159.5 -45.5t56.5 -133.5v-308q-8 -2 -23.5 -5t-33.5 -3q-36 0 -52.5 13t-16.5 46v253zM356 -136
q0 -29 -19.5 -49t-51.5 -20t-51.5 20t-19.5 49q0 30 19.5 49.5t51.5 19.5t51.5 -19.5t19.5 -49.5z" />
    <glyph glyph-name="uni1E48" unicode="&#x1e48;" horiz-adv-x="670" 
d="M144 -7q-37 0 -52 13.5t-15 45.5v533q11 14 32.5 22t47.5 8q31 0 55.5 -11t43.5 -44l144 -259q20 -36 38.5 -74.5t32.5 -70.5l4 1q-5 59 -6.5 114.5t-1.5 109.5v227q8 2 24.5 4.5t33.5 2.5q37 0 52.5 -13.5t15.5 -45.5v-540q-11 -11 -31.5 -17t-48.5 -6q-30 0 -54.5 10.5
t-43.5 43.5l-144 259q-20 35 -38.5 74.5t-32.5 71.5l-6 -1q5 -55 6.5 -113t1.5 -110v-227q-8 -2 -24 -5t-34 -3zM194 -194q-5 8 -9 20.5t-4 26.5q0 28 11.5 39t31.5 11h261q13 -18 13 -47q0 -27 -11.5 -38.5t-31.5 -11.5h-261z" />
    <glyph glyph-name="uni1E49" unicode="&#x1e49;" horiz-adv-x="567" 
d="M377 305q0 43 -24.5 63t-66.5 20q-29 0 -53.5 -7t-42.5 -18v-362q-9 -2 -24 -5t-34 -3q-35 0 -52 13t-17 46v321q0 24 10 39t31 29q29 20 77 33.5t106 13.5q103 0 159.5 -45.5t56.5 -133.5v-308q-8 -2 -23.5 -5t-33.5 -3q-36 0 -52.5 13t-16.5 46v253zM148 -194
q-5 8 -9 20.5t-4 26.5q0 28 11.5 39t31.5 11h261q13 -18 13 -47q0 -27 -11.5 -38.5t-31.5 -11.5h-261z" />
    <glyph glyph-name="uni1E5A" unicode="&#x1e5a;" horiz-adv-x="599" 
d="M207 1q-9 -2 -25.5 -5t-35.5 -3q-38 0 -53.5 14t-15.5 47v502q0 19 10 29t28 16q32 11 75.5 15.5t89.5 4.5q132 0 198 -54.5t66 -150.5q0 -63 -33 -109.5t-91 -71.5q44 -57 84.5 -108.5t60.5 -80.5q-8 -26 -28 -40.5t-44 -14.5q-31 0 -47.5 14t-32.5 38l-113 169h-93
v-211zM287 314q57 0 91.5 25t34.5 76q0 101 -135 101q-20 0 -38.5 -2t-34.5 -4v-196h82zM369 -136q0 -29 -19.5 -49t-51.5 -20t-51.5 20t-19.5 49q0 30 19.5 49.5t51.5 19.5t51.5 -19.5t19.5 -49.5z" />
    <glyph glyph-name="uni1E5B" unicode="&#x1e5b;" horiz-adv-x="402" 
d="M195 1q-9 -2 -24 -5t-34 -3q-35 0 -52 13t-17 46v317q0 26 12 44t35 32q31 19 76.5 31t98.5 12q95 0 95 -59q0 -14 -4.5 -26.5t-9.5 -20.5q-23 5 -57 5q-35 0 -66 -8t-53 -20v-358zM204 -136q0 -29 -19.5 -49t-51.5 -20t-51.5 20t-19.5 49q0 30 19.5 49.5t51.5 19.5
t51.5 -19.5t19.5 -49.5z" />
    <glyph glyph-name="uni1E5C" unicode="&#x1e5c;" horiz-adv-x="599" 
d="M207 1q-9 -2 -25.5 -5t-35.5 -3q-38 0 -53.5 14t-15.5 47v502q0 19 10 29t28 16q32 11 75.5 15.5t89.5 4.5q132 0 198 -54.5t66 -150.5q0 -63 -33 -109.5t-91 -71.5q44 -57 84.5 -108.5t60.5 -80.5q-8 -26 -28 -40.5t-44 -14.5q-31 0 -47.5 14t-32.5 38l-113 169h-93
v-211zM287 314q57 0 91.5 25t34.5 76q0 101 -135 101q-20 0 -38.5 -2t-34.5 -4v-196h82zM149 692q-5 8 -9.5 20.5t-4.5 26.5q0 28 12 39t32 11h247q13 -18 13 -47q0 -27 -11.5 -38.5t-31.5 -11.5h-247zM369 -136q0 -29 -19.5 -49t-51.5 -20t-51.5 20t-19.5 49
q0 30 19.5 49.5t51.5 19.5t51.5 -19.5t19.5 -49.5z" />
    <glyph glyph-name="uni1E5D" unicode="&#x1e5d;" horiz-adv-x="398" 
d="M191 1q-9 -2 -24 -5t-34 -3q-35 0 -52 13t-17 46v317q0 26 12 44t35 32q31 19 76.5 31t98.5 12q95 0 95 -59q0 -14 -4.5 -26.5t-9.5 -20.5q-23 5 -57 5q-35 0 -66 -8t-53 -20v-358zM79 567q-5 8 -9.5 20.5t-4.5 26.5q0 28 12 39t32 11h247q13 -18 13 -47
q0 -27 -11.5 -38.5t-31.5 -11.5h-247zM204 -136q0 -29 -19.5 -49t-51.5 -20t-51.5 20t-19.5 49q0 30 19.5 49.5t51.5 19.5t51.5 -19.5t19.5 -49.5z" />
    <glyph glyph-name="uni1E5E" unicode="&#x1e5e;" horiz-adv-x="599" 
d="M207 1q-9 -2 -25.5 -5t-35.5 -3q-38 0 -53.5 14t-15.5 47v502q0 19 10 29t28 16q32 11 75.5 15.5t89.5 4.5q132 0 198 -54.5t66 -150.5q0 -63 -33 -109.5t-91 -71.5q44 -57 84.5 -108.5t60.5 -80.5q-8 -26 -28 -40.5t-44 -14.5q-31 0 -47.5 14t-32.5 38l-113 169h-93
v-211zM287 314q57 0 91.5 25t34.5 76q0 101 -135 101q-20 0 -38.5 -2t-34.5 -4v-196h82zM159 -194q-5 8 -9 20.5t-4 26.5q0 28 11.5 39t31.5 11h261q13 -18 13 -47q0 -27 -11.5 -38.5t-31.5 -11.5h-261z" />
    <glyph glyph-name="uni1E5F" unicode="&#x1e5f;" horiz-adv-x="402" 
d="M195 1q-9 -2 -24 -5t-34 -3q-35 0 -52 13t-17 46v317q0 26 12 44t35 32q31 19 76.5 31t98.5 12q95 0 95 -59q0 -14 -4.5 -26.5t-9.5 -20.5q-23 5 -57 5q-35 0 -66 -8t-53 -20v-358zM71 -194q-5 8 -9 20.5t-4 26.5q0 28 11.5 39t31.5 11h261q13 -18 13 -47
q0 -27 -11.5 -38.5t-31.5 -11.5h-261z" />
    <glyph glyph-name="uni1E60" unicode="&#x1e60;" horiz-adv-x="541" 
d="M260 91q58 0 85 22.5t27 56.5q0 31 -21 49.5t-64 31.5l-64 20q-38 12 -69 27t-53 35.5t-34 48t-12 65.5q0 81 61 128.5t167 47.5q42 0 77.5 -6.5t61.5 -18t40.5 -28.5t14.5 -38q0 -20 -9.5 -34.5t-23.5 -23.5q-24 17 -63.5 29.5t-86.5 12.5q-52 0 -79 -18.5t-27 -50.5
q0 -26 18.5 -40t58.5 -27l57 -18q87 -26 135 -71t48 -122q0 -41 -16 -75t-46.5 -58.5t-76 -38t-103.5 -13.5q-46 0 -84.5 8t-66.5 21.5t-43.5 32t-15.5 40.5q0 23 13.5 39.5t31.5 24.5q25 -22 66 -40.5t96 -18.5zM347 746q0 -29 -19.5 -49t-51.5 -20t-51.5 20t-19.5 49
q0 30 19.5 49.5t51.5 19.5t51.5 -19.5t19.5 -49.5z" />
    <glyph glyph-name="uni1E61" unicode="&#x1e61;" horiz-adv-x="470" 
d="M432 134q0 -70 -52 -109.5t-152 -39.5q-41 0 -74.5 6t-58 17.5t-38 28t-13.5 36.5q0 19 8.5 33t22.5 23q28 -18 64.5 -32t84.5 -14q41 0 62 13.5t21 37.5q0 41 -60 54l-56 13q-74 17 -109.5 51t-35.5 91q0 65 52 105.5t146 40.5q36 0 66.5 -5.5t53 -16t35 -25t12.5 -33.5
q0 -18 -8 -31.5t-19 -21.5q-9 6 -23.5 12t-32 11t-37 8.5t-38.5 3.5q-39 0 -61 -12.5t-22 -35.5q0 -17 12.5 -28t43.5 -18l49 -12q83 -19 120 -55.5t37 -95.5zM303 620q0 -29 -19.5 -49t-51.5 -20t-51.5 20t-19.5 49q0 30 19.5 49.5t51.5 19.5t51.5 -19.5t19.5 -49.5z" />
    <glyph glyph-name="uni1E62" unicode="&#x1e62;" horiz-adv-x="541" 
d="M260 91q58 0 85 22.5t27 56.5q0 31 -21 49.5t-64 31.5l-64 20q-38 12 -69 27t-53 35.5t-34 48t-12 65.5q0 81 61 128.5t167 47.5q42 0 77.5 -6.5t61.5 -18t40.5 -28.5t14.5 -38q0 -20 -9.5 -34.5t-23.5 -23.5q-24 17 -63.5 29.5t-86.5 12.5q-52 0 -79 -18.5t-27 -50.5
q0 -26 18.5 -40t58.5 -27l57 -18q87 -26 135 -71t48 -122q0 -41 -16 -75t-46.5 -58.5t-76 -38t-103.5 -13.5q-46 0 -84.5 8t-66.5 21.5t-43.5 32t-15.5 40.5q0 23 13.5 39.5t31.5 24.5q25 -22 66 -40.5t96 -18.5zM349 -136q0 -29 -19.5 -49t-51.5 -20t-51.5 20t-19.5 49
q0 30 19.5 49.5t51.5 19.5t51.5 -19.5t19.5 -49.5z" />
    <glyph glyph-name="uni1E63" unicode="&#x1e63;" horiz-adv-x="470" 
d="M432 134q0 -70 -52 -109.5t-152 -39.5q-41 0 -74.5 6t-58 17.5t-38 28t-13.5 36.5q0 19 8.5 33t22.5 23q28 -18 64.5 -32t84.5 -14q41 0 62 13.5t21 37.5q0 41 -60 54l-56 13q-74 17 -109.5 51t-35.5 91q0 65 52 105.5t146 40.5q36 0 66.5 -5.5t53 -16t35 -25t12.5 -33.5
q0 -18 -8 -31.5t-19 -21.5q-9 6 -23.5 12t-32 11t-37 8.5t-38.5 3.5q-39 0 -61 -12.5t-22 -35.5q0 -17 12.5 -28t43.5 -18l49 -12q83 -19 120 -55.5t37 -95.5zM307 -136q0 -29 -19.5 -49t-51.5 -20t-51.5 20t-19.5 49q0 30 19.5 49.5t51.5 19.5t51.5 -19.5t19.5 -49.5z" />
    <glyph glyph-name="uni1E6C" unicode="&#x1e6c;" horiz-adv-x="540" 
d="M504 607q5 -8 9.5 -21.5t4.5 -29.5q0 -27 -12.5 -41t-34.5 -14h-138v-500q-8 -2 -25 -5t-35 -3q-38 0 -54 14t-16 47v447h-168q-5 9 -9.5 22t-4.5 29q0 28 12.5 41.5t34.5 13.5h436zM342 -136q0 -29 -19.5 -49t-51.5 -20t-51.5 20t-19.5 49q0 30 19.5 49.5t51.5 19.5
t51.5 -19.5t19.5 -49.5z" />
    <glyph glyph-name="uni1E6D" unicode="&#x1e6d;" horiz-adv-x="385" 
d="M190 147q0 -32 19.5 -46t54.5 -14q17 0 34.5 4t31.5 10q8 -8 13.5 -19.5t5.5 -26.5q0 -30 -27 -49.5t-87 -19.5q-79 0 -124.5 35.5t-45.5 117.5v459q8 2 23.5 5t33.5 3q35 0 51.5 -13t16.5 -46v-83h147q5 -8 9 -21t4 -28q0 -26 -12 -38t-32 -12h-116v-218zM274 -136
q0 -29 -19.5 -49t-51.5 -20t-51.5 20t-19.5 49q0 30 19.5 49.5t51.5 19.5t51.5 -19.5t19.5 -49.5z" />
    <glyph glyph-name="uni1E6E" unicode="&#x1e6e;" horiz-adv-x="540" 
d="M504 607q5 -8 9.5 -21.5t4.5 -29.5q0 -27 -12.5 -41t-34.5 -14h-138v-500q-8 -2 -25 -5t-35 -3q-38 0 -54 14t-16 47v447h-168q-5 9 -9.5 22t-4.5 29q0 28 12.5 41.5t34.5 13.5h436zM125 -194q-5 8 -9 20.5t-4 26.5q0 28 11.5 39t31.5 11h261q13 -18 13 -47
q0 -27 -11.5 -38.5t-31.5 -11.5h-261z" />
    <glyph glyph-name="uni1E6F" unicode="&#x1e6f;" horiz-adv-x="385" 
d="M190 147q0 -32 19.5 -46t54.5 -14q17 0 34.5 4t31.5 10q8 -8 13.5 -19.5t5.5 -26.5q0 -30 -27 -49.5t-87 -19.5q-79 0 -124.5 35.5t-45.5 117.5v459q8 2 23.5 5t33.5 3q35 0 51.5 -13t16.5 -46v-83h147q5 -8 9 -21t4 -28q0 -26 -12 -38t-32 -12h-116v-218zM62 -194
q-5 8 -9 20.5t-4 26.5q0 28 11.5 39t31.5 11h261q13 -18 13 -47q0 -27 -11.5 -38.5t-31.5 -11.5h-261z" />
    <glyph glyph-name="uni1E8E" unicode="&#x1e8e;" horiz-adv-x="562" 
d="M543 557q0 -11 -11 -36.5t-34 -67.5t-59 -102t-87 -139v-211q-8 -2 -24.5 -5t-34.5 -3q-38 0 -53 14t-15 46v158q-27 39 -57 86t-59 95t-54 94.5t-42 84.5q8 15 25 27.5t43 12.5q29 0 46.5 -13t34.5 -45q8 -14 25.5 -46.5t37 -68.5t37 -68t24.5 -44h5q19 37 36 70.5
t33 66t31.5 66t32.5 69.5q12 7 27.5 10t29.5 3q27 0 44.5 -14t17.5 -40zM353 748q0 -29 -19.5 -49t-51.5 -20t-51.5 20t-19.5 49q0 30 19.5 49.5t51.5 19.5t51.5 -19.5t19.5 -49.5z" />
    <glyph glyph-name="uni1E8F" unicode="&#x1e8f;" horiz-adv-x="521" 
d="M148 114q-24 50 -57 135t-66 206q10 12 28 20.5t39 8.5q26 0 42.5 -12t26.5 -43q47 -151 107 -306h4q13 33 27.5 75t28 88t25.5 93t21 91q12 6 25.5 10t28.5 4q26 0 45 -12t19 -39q0 -30 -13 -84.5t-34.5 -117t-48.5 -126t-54 -111.5q-52 -92 -94.5 -137.5t-83.5 -45.5
q-32 0 -51.5 18.5t-24.5 46.5q16 14 34 32.5t36 39.5t34 43t28 43q-9 3 -17.5 7.5t-17 13.5t-18 23t-19.5 36zM332 620q0 -29 -19.5 -49t-51.5 -20t-51.5 20t-19.5 49q0 30 19.5 49.5t51.5 19.5t51.5 -19.5t19.5 -49.5z" />
    <glyph glyph-name="uni1E92" unicode="&#x1e92;" horiz-adv-x="559" 
d="M71 0q-13 11 -21 28t-8 38q0 20 9.5 39t23.5 37l280 359h-291q-5 9 -9.5 22t-4.5 30q0 28 12.5 42t35.5 14h383q32 -27 32 -68q0 -20 -8.5 -38t-22.5 -36l-281 -360h304q5 -9 10 -22t5 -30q0 -28 -12.5 -41.5t-34.5 -13.5h-402zM350 -136q0 -29 -19.5 -49t-51.5 -20
t-51.5 20t-19.5 49q0 30 19.5 49.5t51.5 19.5t51.5 -19.5t19.5 -49.5z" />
    <glyph glyph-name="uni1E93" unicode="&#x1e93;" horiz-adv-x="475" 
d="M65 0q-12 11 -19 25t-7 31t7.5 31.5t18.5 28.5l212 258h-220q-5 8 -9 21.5t-4 28.5q0 26 12 38t32 12h318q12 -11 19 -25t7 -32q0 -16 -7.5 -30.5t-18.5 -28.5l-211 -259h233q5 -8 9 -21t4 -28q0 -26 -12 -38t-32 -12h-332zM306 -136q0 -29 -19.5 -49t-51.5 -20t-51.5 20
t-19.5 49q0 30 19.5 49.5t51.5 19.5t51.5 -19.5t19.5 -49.5z" />
    <glyph glyph-name="uni1E97" unicode="&#x1e97;" horiz-adv-x="385" 
d="M190 147q0 -32 19.5 -46t54.5 -14q17 0 34.5 4t31.5 10q8 -8 13.5 -19.5t5.5 -26.5q0 -30 -27 -49.5t-87 -19.5q-79 0 -124.5 35.5t-45.5 117.5v459q8 2 23.5 5t33.5 3q35 0 51.5 -13t16.5 -46v-83h147q5 -8 9 -21t4 -28q0 -26 -12 -38t-32 -12h-116v-218zM92 707
q0 -27 -19.5 -46t-48.5 -19q-30 0 -48.5 19t-18.5 46q0 28 18.5 47t48.5 19q29 0 48.5 -19t19.5 -47zM286 707q0 -27 -19 -46t-48 -19t-48.5 19t-19.5 46q0 28 19.5 47t48.5 19t48 -19t19 -47z" />
    <glyph glyph-name="uni1E9E" unicode="&#x1e9e;" horiz-adv-x="619" 
d="M193 0q-8 -2 -23.5 -5t-32.5 -3q-36 0 -53 13.5t-17 45.5v339q0 57 18.5 100.5t50.5 73t76.5 44.5t96.5 15q46 0 84 -11t67.5 -29.5t49.5 -42t31 -48.5q11 -18 11 -33q0 -12 -6.5 -22.5t-21.5 -22.5l-109 -84q31 -1 62.5 -12.5t56.5 -33t40.5 -52t15.5 -70.5
q0 -44 -14.5 -77.5t-40 -56t-61 -34t-78.5 -11.5q-58 0 -93.5 19.5t-35.5 49.5q0 18 8 32t22 22q16 -11 34 -19t43 -8q37 0 62 22.5t25 61.5q0 48 -30.5 70t-79.5 22h-42q-11 13 -18 33t-7 44v10l137 119q-12 21 -38 40t-71 19q-49 0 -84 -33t-35 -97v-390z" />
    <glyph glyph-name="uni1EA0" unicode="&#x1ea0;" horiz-adv-x="610" 
d="M416 142h-224q-11 -37 -23.5 -77t-20.5 -66q-10 -4 -21.5 -7t-28.5 -3q-34 0 -53 13.5t-19 38.5q0 12 3.5 23.5t8.5 26.5q8 27 21.5 67t29 86.5t33.5 96t34.5 96t32 87t26.5 69.5q13 7 38.5 14t51.5 7q35 0 64 -10.5t37 -33.5q20 -55 44 -126.5t48.5 -147.5t47.5 -149
t41 -131q-10 -11 -27.5 -18.5t-41.5 -7.5q-35 0 -49.5 12.5t-22.5 39.5zM304 500q-9 -25 -19.5 -56t-22 -64.5t-23.5 -68t-23 -67.5h174l-81 256h-5zM379 -136q0 -29 -19.5 -49t-51.5 -20t-51.5 20t-19.5 49q0 30 19.5 49.5t51.5 19.5t51.5 -19.5t19.5 -49.5z" />
    <glyph glyph-name="uni1EA1" unicode="&#x1ea1;" horiz-adv-x="522" 
d="M250 81q29 0 53 5.5t35 13.5v111l-97 -9q-40 -4 -61 -17.5t-21 -42.5t21.5 -45t69.5 -16zM246 488q98 0 156.5 -42t58.5 -130v-231q0 -24 -12 -38t-30 -25q-28 -17 -71 -27t-98 -10q-100 0 -157.5 38.5t-57.5 115.5q0 67 42.5 102.5t123.5 43.5l137 14v18q0 38 -27.5 56
t-77.5 18q-39 0 -76 -9.5t-66 -23.5q-11 8 -18.5 21.5t-7.5 29.5q0 20 9.5 32.5t30.5 22.5q29 12 66 18t75 6zM326 -136q0 -29 -19.5 -49t-51.5 -20t-51.5 20t-19.5 49q0 30 19.5 49.5t51.5 19.5t51.5 -19.5t19.5 -49.5z" />
    <glyph glyph-name="uni01CD" unicode="&#x1cd;" horiz-adv-x="610" 
d="M416 143h-224q-11 -37 -23.5 -77t-20.5 -66q-10 -4 -21.5 -7t-28.5 -3q-34 0 -53 13.5t-19 38.5q0 12 3.5 23.5t8.5 26.5q8 28 21.5 67.5t29 86t33.5 96t34.5 96t32 87t26.5 69.5q13 7 38.5 14t51.5 7q35 0 64 -10.5t37 -33.5q20 -55 44 -126.5t48.5 -147.5t47.5 -149
t41 -131q-10 -11 -27.5 -18.5t-41.5 -7.5q-35 0 -49.5 12.5t-22.5 39.5zM304 501q-9 -25 -19.5 -56t-22 -64.5t-23.5 -68t-23 -67.5h174l-81 256h-5zM398 831q26 -1 43 -14.5t17 -34.5q0 -17 -9.5 -28.5t-28.5 -28.5l-43 -40q-20 -17 -35.5 -23.5t-34.5 -6.5q-23 0 -40 8.5
t-33 24.5l-83 81q0 29 13.5 44t37.5 15q16 0 30 -8.5t35 -31.5l40 -46z" />
    <glyph glyph-name="uni01CE" unicode="&#x1ce;" horiz-adv-x="522" 
d="M250 81q29 0 53 5.5t35 13.5v111l-97 -9q-40 -4 -61 -17.5t-21 -42.5t21.5 -45t69.5 -16zM246 488q98 0 156.5 -42t58.5 -130v-231q0 -24 -12 -38t-30 -25q-28 -17 -71 -27t-98 -10q-100 0 -157.5 38.5t-57.5 115.5q0 67 42.5 102.5t123.5 43.5l137 14v18q0 38 -27.5 56
t-77.5 18q-39 0 -76 -9.5t-66 -23.5q-11 8 -18.5 21.5t-7.5 29.5q0 20 9.5 32.5t30.5 22.5q29 12 66 18t75 6zM264 621l90 90q29 -1 46.5 -15t17.5 -36q0 -16 -9.5 -27.5t-27.5 -28.5l-53 -50q-29 -26 -62 -26q-21 0 -37.5 7.5t-41.5 31.5l-79 78q-1 4 -1 9q0 20 12 37.5
t37 17.5q16 0 28.5 -7t32.5 -29z" />
    <glyph glyph-name="uni1EA2" unicode="&#x1ea2;" horiz-adv-x="610" 
d="M416 143h-224q-11 -37 -23.5 -77t-20.5 -66q-10 -4 -21.5 -7t-28.5 -3q-34 0 -53 13.5t-19 38.5q0 12 3.5 23.5t8.5 26.5q8 28 21.5 67.5t29 86t33.5 96t34.5 96t32 87t26.5 69.5q13 7 38.5 14t51.5 7q35 0 64 -10.5t37 -33.5q20 -55 44 -126.5t48.5 -147.5t47.5 -149
t41 -131q-10 -11 -27.5 -18.5t-41.5 -7.5q-35 0 -49.5 12.5t-22.5 39.5zM304 501q-9 -25 -19.5 -56t-22 -64.5t-23.5 -68t-23 -67.5h174l-81 256h-5zM306 869q24 0 47 -6t41 -18.5t29 -31.5t11 -44q0 -22 -7.5 -38t-20.5 -26.5t-29 -16.5t-34 -7v-23q-5 -3 -16 -6t-26 -3
q-25 0 -35 6t-10 16v33q0 20 9 27.5t25 7.5h12q37 0 37 28q0 12 -10.5 20.5t-34.5 8.5q-18 0 -35 -5t-28 -11q-9 5 -15.5 14.5t-6.5 23.5q0 13 8 22.5t21.5 16t31 9.5t36.5 3z" />
    <glyph glyph-name="uni1EA3" unicode="&#x1ea3;" horiz-adv-x="522" 
d="M250 81q29 0 53 5.5t35 13.5v111l-97 -9q-40 -4 -61 -17.5t-21 -42.5t21.5 -45t69.5 -16zM246 488q98 0 156.5 -42t58.5 -130v-231q0 -24 -12 -38t-30 -25q-28 -17 -71 -27t-98 -10q-100 0 -157.5 38.5t-57.5 115.5q0 67 42.5 102.5t123.5 43.5l137 14v18q0 38 -27.5 56
t-77.5 18q-39 0 -76 -9.5t-66 -23.5q-11 8 -18.5 21.5t-7.5 29.5q0 20 9.5 32.5t30.5 22.5q29 12 66 18t75 6zM256 733q24 0 47 -6t41 -18.5t29 -31.5t11 -44q0 -22 -7.5 -38t-20.5 -26.5t-29 -16.5t-34 -7v-23q-5 -3 -16 -6t-26 -3q-25 0 -35 6t-10 16v33q0 20 9 27.5
t25 7.5h12q37 0 37 28q0 12 -10.5 20.5t-34.5 8.5q-18 0 -35 -5t-28 -11q-9 5 -15.5 14.5t-6.5 23.5q0 13 8 22.5t21.5 16t31 9.5t36.5 3z" />
    <glyph glyph-name="uni1EA4" unicode="&#x1ea4;" horiz-adv-x="610" 
d="M514 937q32 -1 47.5 -15t15.5 -31q0 -15 -7.5 -26.5t-21.5 -25.5l-64 -67q-26 0 -41.5 12t-15.5 28q0 9 3.5 17t11.5 19zM416 143h-224q-11 -37 -23.5 -77t-20.5 -66q-10 -4 -21.5 -7t-28.5 -3q-34 0 -53 13.5t-19 38.5q0 12 3.5 23.5t8.5 26.5q8 28 21.5 67.5t29 86
t33.5 96t34.5 96t32 87t26.5 69.5q13 7 38.5 14t51.5 7q35 0 64 -10.5t37 -33.5q20 -55 44 -126.5t48.5 -147.5t47.5 -149t41 -131q-10 -11 -27.5 -18.5t-41.5 -7.5q-35 0 -49.5 12.5t-22.5 39.5zM304 501q-9 -25 -19.5 -56t-22 -64.5t-23.5 -68t-23 -67.5h174l-81 256h-5z
M311 735q-20 -20 -44 -43t-49 -45q-24 1 -40 14.5t-16 33.5q0 17 9 28.5t27 28.5l44 40q39 32 71 32q21 0 37 -8.5t34 -25.5l81 -87q0 -26 -14.5 -40t-37.5 -14q-16 0 -29 10t-33 31z" />
    <glyph glyph-name="uni1EA5" unicode="&#x1ea5;" horiz-adv-x="522" 
d="M465 827q31 -1 47 -15t16 -31q0 -15 -7.5 -26.5t-21.5 -25.5l-64 -68q-26 0 -41.5 12.5t-15.5 28.5q0 9 3.5 17t11.5 19zM263 622q-25 -29 -44.5 -49.5t-40.5 -45.5q-29 1 -46.5 14.5t-17.5 34.5q0 15 9 26.5t25 28.5l47 50q16 15 31.5 23.5t37.5 8.5q21 0 37.5 -8
t36.5 -31l77 -94q0 -21 -12 -36t-37 -15q-16 0 -27.5 8.5t-23.5 22.5zM250 81q29 0 53 5.5t35 13.5v111l-97 -9q-40 -4 -61 -17.5t-21 -42.5t21.5 -45t69.5 -16zM246 488q98 0 156.5 -42t58.5 -130v-231q0 -24 -12 -38t-30 -25q-28 -17 -71 -27t-98 -10q-100 0 -157.5 38.5
t-57.5 115.5q0 67 42.5 102.5t123.5 43.5l137 14v18q0 38 -27.5 56t-77.5 18q-39 0 -76 -9.5t-66 -23.5q-11 8 -18.5 21.5t-7.5 29.5q0 20 9.5 32.5t30.5 22.5q29 12 66 18t75 6z" />
    <glyph glyph-name="uni1EA6" unicode="&#x1ea6;" horiz-adv-x="610" 
d="M383 884q1 24 15.5 38.5t32.5 14.5q17 0 29 -8.5t23 -24.5l66 -90q-3 -21 -16.5 -31.5t-27.5 -10.5q-23 0 -42 22zM416 143h-224q-11 -37 -23.5 -77t-20.5 -66q-10 -4 -21.5 -7t-28.5 -3q-34 0 -53 13.5t-19 38.5q0 12 3.5 23.5t8.5 26.5q8 28 21.5 67.5t29 86t33.5 96
t34.5 96t32 87t26.5 69.5q13 7 38.5 14t51.5 7q35 0 64 -10.5t37 -33.5q20 -55 44 -126.5t48.5 -147.5t47.5 -149t41 -131q-10 -11 -27.5 -18.5t-41.5 -7.5q-35 0 -49.5 12.5t-22.5 39.5zM304 501q-9 -25 -19.5 -56t-22 -64.5t-23.5 -68t-23 -67.5h174l-81 256h-5zM311 735
q-20 -20 -44 -43t-49 -45q-24 1 -40 14.5t-16 33.5q0 17 9 28.5t27 28.5l44 40q39 32 71 32q21 0 37 -8.5t34 -25.5l81 -87q0 -26 -14.5 -40t-37.5 -14q-16 0 -29 10t-33 31z" />
    <glyph glyph-name="uni1EA7" unicode="&#x1ea7;" horiz-adv-x="522" 
d="M334 774q1 24 15 38.5t32 14.5q17 0 29 -9t23 -24l65 -90q-3 -21 -16 -32t-28 -11q-12 0 -21.5 6t-19.5 17zM250 81q29 0 53 5.5t35 13.5v111l-97 -9q-40 -4 -61 -17.5t-21 -42.5t21.5 -45t69.5 -16zM246 488q98 0 156.5 -42t58.5 -130v-231q0 -24 -12 -38t-30 -25
q-28 -17 -71 -27t-98 -10q-100 0 -157.5 38.5t-57.5 115.5q0 67 42.5 102.5t123.5 43.5l137 14v18q0 38 -27.5 56t-77.5 18q-39 0 -76 -9.5t-66 -23.5q-11 8 -18.5 21.5t-7.5 29.5q0 20 9.5 32.5t30.5 22.5q29 12 66 18t75 6zM262 622q-25 -29 -44 -49.5t-40 -45.5
q-29 1 -46.5 14.5t-17.5 34.5q0 16 8.5 27t24.5 28l47 50q16 15 32 23.5t38 8.5q21 0 37.5 -7.5t36.5 -31.5l77 -94q0 -21 -12 -36t-37 -15q-17 0 -28.5 8.5t-22.5 22.5z" />
    <glyph glyph-name="uni1EA8" unicode="&#x1ea8;" horiz-adv-x="610" 
d="M477 964q42 0 71 -21t29 -63q0 -35 -22 -52t-49 -19v-27q-6 -3 -14 -5t-19 -2q-35 0 -35 21v34q0 26 23 26h7q35 0 35 24q0 11 -9 17.5t-26 6.5q-14 0 -27 -4.5t-24 -10.5q-18 12 -18 34q0 19 22.5 30t55.5 11zM416 143h-224q-11 -37 -23.5 -77t-20.5 -66
q-10 -4 -21.5 -7t-28.5 -3q-34 0 -53 13.5t-19 38.5q0 12 3.5 23.5t8.5 26.5q8 28 21.5 67.5t29 86t33.5 96t34.5 96t32 87t26.5 69.5q13 7 38.5 14t51.5 7q35 0 64 -10.5t37 -33.5q20 -55 44 -126.5t48.5 -147.5t47.5 -149t41 -131q-10 -11 -27.5 -18.5t-41.5 -7.5
q-35 0 -49.5 12.5t-22.5 39.5zM304 501q-9 -25 -19.5 -56t-22 -64.5t-23.5 -68t-23 -67.5h174l-81 256h-5zM311 735q-20 -20 -44 -43t-49 -45q-24 1 -40 14.5t-16 33.5q0 17 9 28.5t27 28.5l44 40q39 32 71 32q21 0 37 -8.5t34 -25.5l81 -87q0 -26 -14.5 -40t-37.5 -14
q-16 0 -29 10t-33 31z" />
    <glyph glyph-name="uni1EA9" unicode="&#x1ea9;" horiz-adv-x="522" 
d="M428 854q42 0 71.5 -21.5t29.5 -63.5q0 -34 -22 -51t-49 -19v-28q-14 -6 -33 -6q-37 0 -37 21v33q0 26 24 26h7q35 0 35 24q0 25 -35 25q-14 0 -27 -4.5t-23 -10.5q-18 10 -18 32q0 20 22 31.5t55 11.5zM250 81q29 0 53 5.5t35 13.5v111l-97 -9q-40 -4 -61 -17.5
t-21 -42.5t21.5 -45t69.5 -16zM246 488q98 0 156.5 -42t58.5 -130v-231q0 -24 -12 -38t-30 -25q-28 -17 -71 -27t-98 -10q-100 0 -157.5 38.5t-57.5 115.5q0 67 42.5 102.5t123.5 43.5l137 14v18q0 38 -27.5 56t-77.5 18q-39 0 -76 -9.5t-66 -23.5q-11 8 -18.5 21.5
t-7.5 29.5q0 20 9.5 32.5t30.5 22.5q29 12 66 18t75 6zM262 622q-25 -29 -44 -49.5t-40 -45.5q-29 1 -46.5 14.5t-17.5 34.5q0 16 8.5 27t24.5 28l47 50q16 15 32 23.5t38 8.5q21 0 37.5 -7.5t36.5 -31.5l77 -94q0 -21 -12 -36t-37 -15q-17 0 -28.5 8.5t-22.5 22.5z" />
    <glyph glyph-name="uni1EAA" unicode="&#x1eaa;" horiz-adv-x="610" 
d="M416 143h-224q-11 -37 -23.5 -77t-20.5 -66q-10 -4 -21.5 -7t-28.5 -3q-34 0 -53 13.5t-19 38.5q0 12 3.5 23.5t8.5 26.5q8 28 21.5 67.5t29 86t33.5 96t34.5 96t32 87t26.5 69.5q13 7 38.5 14t51.5 7q35 0 64 -10.5t37 -33.5q20 -55 44 -126.5t48.5 -147.5t47.5 -149
t41 -131q-10 -11 -27.5 -18.5t-41.5 -7.5q-35 0 -49.5 12.5t-22.5 39.5zM304 501q-9 -25 -19.5 -56t-22 -64.5t-23.5 -68t-23 -67.5h174l-81 256h-5zM311 735q-20 -20 -44 -43t-49 -45q-24 1 -40 14.5t-16 33.5q0 17 9 28.5t27 28.5l44 40q39 32 71 32q21 0 37 -8.5
t34 -25.5l81 -87q0 -26 -14.5 -40t-37.5 -14q-16 0 -29 10t-33 31zM239 978q18 0 35.5 -4.5t34 -10.5t30 -10.5t23.5 -4.5q17 0 25.5 10t13.5 24h6q22 0 38 -13t16 -37q0 -31 -21.5 -48t-55.5 -17q-19 0 -37 4.5t-34 9.5t-29 9.5t-22 4.5q-17 0 -26 -9.5t-14 -23.5h-6
q-22 0 -38.5 12.5t-16.5 38.5q0 32 24 48.5t54 16.5z" />
    <glyph glyph-name="uni1EAB" unicode="&#x1eab;" horiz-adv-x="522" 
d="M190 866q18 0 35.5 -4.5t34 -10.5t30 -10.5t23.5 -4.5q17 0 25.5 10t13.5 24h6q22 0 38 -13t16 -37q0 -31 -21.5 -48t-55.5 -17q-19 0 -37 4.5t-34 9.5t-29 9.5t-22 4.5q-17 0 -26 -9.5t-14 -23.5h-6q-22 0 -38.5 12.5t-16.5 38.5q0 32 24 48.5t54 16.5zM250 81
q29 0 53 5.5t35 13.5v111l-97 -9q-40 -4 -61 -17.5t-21 -42.5t21.5 -45t69.5 -16zM246 488q98 0 156.5 -42t58.5 -130v-231q0 -24 -12 -38t-30 -25q-28 -17 -71 -27t-98 -10q-100 0 -157.5 38.5t-57.5 115.5q0 67 42.5 102.5t123.5 43.5l137 14v18q0 38 -27.5 56t-77.5 18
q-39 0 -76 -9.5t-66 -23.5q-11 8 -18.5 21.5t-7.5 29.5q0 20 9.5 32.5t30.5 22.5q29 12 66 18t75 6zM262 620q-25 -29 -44 -49.5t-40 -45.5q-29 1 -46.5 14.5t-17.5 34.5q0 16 8.5 27t24.5 28l47 50q16 15 32 23.5t38 8.5q21 0 37.5 -7.5t36.5 -31.5l77 -94q0 -21 -12 -36
t-37 -15q-17 0 -28.5 8.5t-22.5 22.5z" />
    <glyph glyph-name="uni1EAC" unicode="&#x1eac;" horiz-adv-x="610" 
d="M416 143h-224q-11 -37 -23.5 -77t-20.5 -66q-10 -4 -21.5 -7t-28.5 -3q-34 0 -53 13.5t-19 38.5q0 12 3.5 23.5t8.5 26.5q8 28 21.5 67.5t29 86t33.5 96t34.5 96t32 87t26.5 69.5q13 7 38.5 14t51.5 7q35 0 64 -10.5t37 -33.5q20 -55 44 -126.5t48.5 -147.5t47.5 -149
t41 -131q-10 -11 -27.5 -18.5t-41.5 -7.5q-35 0 -49.5 12.5t-22.5 39.5zM304 501q-9 -25 -19.5 -56t-22 -64.5t-23.5 -68t-23 -67.5h174l-81 256h-5zM311 742q-20 -20 -44 -43t-49 -45q-24 1 -40 14.5t-16 33.5q0 17 9 28.5t27 28.5l44 40q39 32 71 32q21 0 37 -8.5
t34 -25.5l81 -87q0 -26 -14.5 -40t-37.5 -14q-16 0 -29 10t-33 31zM379 -136q0 -29 -19.5 -49t-51.5 -20t-51.5 20t-19.5 49q0 30 19.5 49.5t51.5 19.5t51.5 -19.5t19.5 -49.5z" />
    <glyph glyph-name="uni1EAD" unicode="&#x1ead;" horiz-adv-x="522" 
d="M250 81q29 0 53 5.5t35 13.5v111l-97 -9q-40 -4 -61 -17.5t-21 -42.5t21.5 -45t69.5 -16zM246 488q98 0 156.5 -42t58.5 -130v-231q0 -24 -12 -38t-30 -25q-28 -17 -71 -27t-98 -10q-100 0 -157.5 38.5t-57.5 115.5q0 67 42.5 102.5t123.5 43.5l137 14v18q0 38 -27.5 56
t-77.5 18q-39 0 -76 -9.5t-66 -23.5q-11 8 -18.5 21.5t-7.5 29.5q0 20 9.5 32.5t30.5 22.5q29 12 66 18t75 6zM262 622q-25 -29 -44 -49.5t-40 -45.5q-29 1 -46.5 14.5t-17.5 34.5q0 16 8.5 27t24.5 28l47 50q16 15 32 23.5t38 8.5q21 0 37.5 -7.5t36.5 -31.5l77 -94
q0 -21 -12 -36t-37 -15q-17 0 -28.5 8.5t-22.5 22.5zM326 -136q0 -29 -19.5 -49t-51.5 -20t-51.5 20t-19.5 49q0 30 19.5 49.5t51.5 19.5t51.5 -19.5t19.5 -49.5z" />
    <glyph glyph-name="uni1EAE" unicode="&#x1eae;" horiz-adv-x="610" 
d="M354 984q31 0 47 -14t16 -31q0 -15 -7.5 -26.5t-22.5 -25.5l-63 -67q-26 0 -41.5 12t-15.5 29q0 15 15 34zM416 143h-224q-11 -37 -23.5 -77t-20.5 -66q-10 -4 -21.5 -7t-28.5 -3q-34 0 -53 13.5t-19 38.5q0 12 3.5 23.5t8.5 26.5q8 28 21.5 67.5t29 86t33.5 96t34.5 96
t32 87t26.5 69.5q13 7 38.5 14t51.5 7q35 0 64 -10.5t37 -33.5q20 -55 44 -126.5t48.5 -147.5t47.5 -149t41 -131q-10 -11 -27.5 -18.5t-41.5 -7.5q-35 0 -49.5 12.5t-22.5 39.5zM304 501q-9 -25 -19.5 -56t-22 -64.5t-23.5 -68t-23 -67.5h174l-81 256h-5zM307 755
q31 0 50.5 16t25.5 42q5 1 8.5 1.5t8.5 0.5q29 0 43.5 -16.5t14.5 -39.5q0 -19 -10 -36.5t-29 -31t-47 -21.5t-65 -8q-38 0 -66 8t-47.5 21.5t-29 31t-9.5 36.5q0 23 14.5 39.5t43.5 16.5q5 0 9 -0.5t9 -1.5q5 -26 24.5 -42t51.5 -16z" />
    </font>
</defs>
</svg>
